<?xml version="1.0" encoding="UTF-8"?>
<svg version="1.1" xmlns="http://www.w3.org/2000/svg" width="320" height="320">
<path d="M0 0 C24.58129596 23.03385895 39.89682919 53.7679191 46.62109375 86.51904297 C46.86730469 87.69724609 47.11351562 88.87544922 47.3671875 90.08935547 C54.34746117 131.58587894 43.5153604 174.25335208 19.68359375 208.51904297 C14.25135596 216.08597423 8.12675248 222.87029791 1.62109375 229.51904297 C1.01007813 230.18033203 0.3990625 230.84162109 -0.23046875 231.52294922 C-26.05924409 258.94216639 -66.6080509 274.50139437 -103.65234375 275.86669922 C-145.93227278 276.7077605 -185.73665207 264.15999932 -217.37890625 235.51904297 C-218.24773437 234.78169922 -219.1165625 234.04435547 -220.01171875 233.28466797 C-229.92393066 224.77073047 -238.34388561 214.51316614 -245.37890625 203.51904297 C-245.75370117 202.93735352 -246.12849609 202.35566406 -246.51464844 201.75634766 C-269.43508465 165.78525863 -276.68533252 122.43551781 -267.85717773 80.79882812 C-261.23389122 51.6520788 -247.00677916 26.04222286 -226.37890625 4.51904297 C-225.57453125 3.65150391 -224.77015625 2.78396484 -223.94140625 1.89013672 C-164.77829791 -60.00222216 -66.03736996 -57.26289647 0 0 Z " fill="#1178F4" transform="translate(271.37890625,44.48095703125)"/>
<path d="M0 0 C1.57080322 0.00688843 1.57080322 0.00688843 3.17333984 0.01391602 C14.13371609 0.14042701 24.69155484 1.44859247 35.5 3.25 C35.5 16.12 35.5 28.99 35.5 42.25 C23.0625 42.5625 23.0625 42.5625 19.19750977 42.63793945 C11.30140082 42.89098435 4.66491488 43.88357109 -2.25 47.8125 C-10.80214798 57.07732697 -10.26935419 67.49898522 -10.3125 79.375 C-10.374375 85.27375 -10.43625 91.1725 -10.5 97.25 C4.02 97.25 18.54 97.25 33.5 97.25 C31.19137717 120.33622829 31.19137717 120.33622829 29.4375 129.8125 C29.26412109 130.79412109 29.09074219 131.77574219 28.91210938 132.78710938 C28.26863421 136.3742985 27.65390716 139.78827851 26.5 143.25 C14.29 143.25 2.08 143.25 -10.5 143.25 C-10.5 179.88 -10.5 216.51 -10.5 254.25 C-9.18 254.58 -7.86 254.91 -6.5 255.25 C-15.95056905 256.82089859 -25.03900288 257.60416976 -34.625 257.5625 C-35.87240967 257.56121094 -37.11981934 257.55992187 -38.4050293 257.55859375 C-48.97468217 257.4499991 -59.13914708 256.27633678 -69.5 254.25 C-69.5 253.92 -69.5 253.59 -69.5 253.25 C-66.86 253.25 -64.22 253.25 -61.5 253.25 C-61.17 216.95 -60.84 180.65 -60.5 143.25 C-73.7 143.25 -86.9 143.25 -100.5 143.25 C-100.5 128.07 -100.5 112.89 -100.5 97.25 C-87.3 97.25 -74.1 97.25 -60.5 97.25 C-60.54640625 94.115 -60.5928125 90.98 -60.640625 87.75 C-60.67196522 84.65854505 -60.69617031 81.5671089 -60.71972656 78.47558594 C-60.73964078 76.35375841 -60.76678222 74.23198427 -60.80175781 72.11035156 C-61.13246865 51.50901151 -59.37844785 31.79877828 -44.4296875 16.01953125 C-31.77502139 4.41515119 -16.85539345 -0.15313229 0 0 Z " fill="#FDFEFE" transform="translate(195.5,62.75)"/>
</svg>
