<?xml version="1.0" encoding="UTF-8"?>
<svg version="1.1" xmlns="http://www.w3.org/2000/svg" width="320" height="309">
<path d="M0 0 C1.82975372 -0.00503792 1.82975372 -0.00503792 3.69647217 -0.01017761 C7.0026677 -0.01797825 10.30882527 -0.02135097 13.61502886 -0.0219934 C15.69287279 -0.02271047 17.77071037 -0.02485706 19.8485527 -0.02749062 C27.13243774 -0.03670806 34.41630464 -0.04083017 41.70019531 -0.04003906 C48.43306742 -0.03943971 55.16585906 -0.0499729 61.89871085 -0.06578273 C67.72597706 -0.07896638 73.55321732 -0.08421845 79.38049829 -0.08358365 C82.8400554 -0.08333176 86.29954087 -0.08600818 89.75908279 -0.0967617 C123.27511584 -0.1827671 155.76653728 1.4203151 181.21630859 26.12963867 C207.00775751 52.47351487 206.23283537 90.19411499 206.24365234 124.46166992 C206.24687592 126.89094562 206.25024076 129.32022114 206.2537384 131.74949646 C206.25969127 136.81998137 206.26158231 141.89044934 206.26098633 146.9609375 C206.26088499 153.38932325 206.27452588 159.81759786 206.29175854 166.24595737 C206.30299567 171.25923643 206.30490197 176.27248961 206.3043766 181.28577995 C206.3055396 183.65232666 206.30986408 186.01887442 206.31770897 188.3854084 C206.42347098 223.58484997 205.47454991 257.841444 179.88818359 284.89526367 C160.00797044 303.86430039 134.33294341 309.2823278 107.51977539 309.30639648 C106.17160408 309.31103499 104.82343406 309.316061 103.4752655 309.32144165 C99.83407627 309.33447516 96.19290541 309.34099371 92.55169654 309.34545231 C90.26615456 309.34839995 87.98061741 309.35250797 85.6950779 309.35695648 C78.51362881 309.3706125 71.33219099 309.38028634 64.15072984 309.38415837 C55.9186838 309.38862358 47.68680508 309.4061076 39.45480984 309.43515897 C33.05521467 309.45694266 26.65566596 309.46687158 20.2560342 309.46819949 C16.4514992 309.46923641 12.64712183 309.47490079 8.84262657 309.4930191 C-32.25205872 309.67758118 -32.25205872 309.67758118 -48.98681641 302.89526367 C-49.76790771 302.59152832 -50.54899902 302.28779297 -51.35375977 301.97485352 C-62.14434242 297.63084028 -70.65762482 291.27394705 -78.92431641 283.14526367 C-79.97425781 282.1146582 -79.97425781 282.1146582 -81.04541016 281.06323242 C-92.87082417 268.63847969 -98.78037451 252.87542656 -101.67431641 236.20776367 C-101.79009033 235.54164063 -101.90586426 234.87551758 -102.02514648 234.18920898 C-104.50465056 218.1921652 -104.08725181 201.84217956 -104.09228516 185.70776367 C-104.09550802 183.25463849 -104.09887282 180.80151348 -104.10237122 178.34838867 C-104.10832797 173.22484899 -104.11021475 168.10132609 -104.10961914 162.9777832 C-104.10951785 156.48098797 -104.12315187 149.98430282 -104.14039135 143.48753357 C-104.15162782 138.42364021 -104.1535348 133.35977246 -104.15300941 128.29586792 C-104.15417278 125.90420148 -104.15849943 123.512534 -104.16634178 121.12088013 C-104.27178942 85.63756232 -103.29509995 51.10173473 -77.17041016 24.23120117 C-56.45336469 3.9090646 -27.74630264 -0.01122393 0 0 Z M-52.92431641 42.14526367 C-53.74544922 42.76272461 -54.56658203 43.38018555 -55.41259766 44.01635742 C-67.55377558 54.30709143 -72.11879169 69.90256444 -73.92431641 85.14526367 C-74.19407195 88.522182 -74.35495488 91.8990998 -74.49414062 95.28369141 C-74.55561437 96.71657454 -74.55561437 96.71657454 -74.61833 98.17840481 C-75.03344967 108.63715859 -75.06949657 119.08992194 -75.05712891 129.55541992 C-75.05780581 131.62601228 -75.05877901 133.69660456 -75.06002808 135.76719666 C-75.06148659 140.06713634 -75.05941065 144.36705499 -75.0546875 148.66699219 C-75.04898776 154.11462356 -75.05228273 159.56220566 -75.05825996 165.00983524 C-75.06191293 169.27323258 -75.06070558 173.53661868 -75.05813217 177.8000164 C-75.05747611 179.80619755 -75.05824371 181.81237979 -75.06061172 183.81855965 C-75.07005282 194.05678058 -74.95536007 204.27345456 -74.49414062 214.50244141 C-74.43920032 215.76856435 -74.43920032 215.76856435 -74.3831501 217.06026554 C-73.46101882 235.38716068 -68.83326878 252.7536837 -55.36181641 265.83276367 C-29.85350407 287.71339685 14.25180528 281.31548688 45.64306641 281.27563477 C50.16728648 281.26993804 54.69144774 281.2733308 59.21566582 281.27906799 C75.15512195 281.29629914 91.09038908 281.307785 107.02099609 280.71557617 C108.02098633 280.67892853 109.02097656 280.64228088 110.05126953 280.60452271 C129.42009003 279.75904832 147.77968322 275.98576906 161.76318359 261.58276367 C183.69391426 236.05432152 177.24111426 191.99673056 177.20605469 160.73925781 C177.20035485 155.61123852 177.20365136 150.48327157 177.20962715 145.35525417 C177.21328575 141.33201217 177.21207027 137.30878204 177.20949936 133.28553963 C177.20884484 131.39741064 177.20960508 129.50928048 177.21197891 127.62115288 C177.2219209 117.50024796 177.06982447 107.40573622 176.61816406 97.29394531 C176.57787142 96.39052367 176.53757877 95.48710203 176.49606514 94.55630398 C175.61371357 76.48014671 172.20990951 60.19424818 160.07568359 46.14526367 C142.55173589 31.14908152 122.05446533 28.99056873 99.79980469 29 C98.63703003 28.99664139 97.47425537 28.99328278 96.27624512 28.98982239 C92.46719263 28.98039536 88.65818449 28.97837336 84.84912109 28.97729492 C82.85163635 28.97489151 80.85415159 28.9724859 78.85666716 28.96983451 C72.58282697 28.96172993 66.30900108 28.95924652 60.03515625 28.95996094 C53.61413591 28.96056022 47.19319997 28.95002896 40.77220094 28.93421727 C35.21588105 28.92103435 29.65958837 28.91578152 24.10325301 28.91641635 C20.80411567 28.91666828 17.5050691 28.91303152 14.20594406 28.9032383 C-21.29813429 28.04780735 -21.29813429 28.04780735 -52.92431641 42.14526367 Z " fill="#973CAB" transform="translate(109.92431640625,-0.145263671875)"/>
<path d="M0 0 C16.51514295 13.0198746 27.58992042 30.72179799 31.12890625 51.58203125 C33.60970802 73.99864541 29.07069961 96.01036076 14.86035156 113.93261719 C2.47620857 128.88863638 -14.88321769 140.65909483 -34.4375 143.5 C-35.16195312 143.60957031 -35.88640625 143.71914062 -36.6328125 143.83203125 C-57.30628527 146.53326898 -79.34595272 141.96007625 -96.14404297 129.20410156 C-99.79563698 126.18021055 -103.13095662 122.89432771 -106.4375 119.5 C-107.56285156 118.37078125 -107.56285156 118.37078125 -108.7109375 117.21875 C-123.50561235 101.57380648 -129.16264038 81.13926879 -128.6875 60.0703125 C-127.75718905 37.93821491 -117.38627734 18.46794286 -101.4375 3.5 C-72.48073144 -21.47417575 -30.58206199 -22.2725439 0 0 Z M-86.95703125 30.23828125 C-95.8537074 41.4773734 -100.89819609 55.07562612 -99.4375 69.5 C-97.12453986 83.97527557 -90.44690705 96.45210049 -78.8359375 105.53515625 C-66.23668474 114.08594595 -52.6346753 116.97034437 -37.703125 114.28125 C-27.68823747 111.88534389 -19.96611756 107.47444642 -12.4375 100.5 C-11.87417969 99.97921875 -11.31085938 99.4584375 -10.73046875 98.921875 C-3.08586663 90.93437516 1.64512807 79.3895446 2.5625 68.5 C2.63210937 67.76652344 2.70171875 67.03304687 2.7734375 66.27734375 C3.38221114 53.37602546 -1.59037851 40.11793202 -9.6875 30.1875 C-18.63262163 20.75303911 -30.91568303 14.14251199 -43.96875 13.26171875 C-60.27838165 12.9567158 -75.86345985 17.54769185 -86.95703125 30.23828125 Z " fill="#D23884" transform="translate(209.4375,90.5)"/>
<path d="M0 0 C0.33 0 0.66 0 1 0 C1.33 7.92 1.66 15.84 2 24 C11.5 20.5 11.5 20.5 13 17 C13.99 17.33 14.98 17.66 16 18 C16.61875 17.38125 17.2375 16.7625 17.875 16.125 C20.91168602 13.08831398 22.95355637 11.49079502 27 10 C28.59040859 13.18081717 28.17110218 16.62333602 28.18945312 20.11816406 C28.19774643 20.957379 28.20603973 21.79659393 28.21458435 22.66123962 C28.23200638 24.48751167 28.24716728 26.31380634 28.26036072 28.14011383 C28.281369 31.03200636 28.30839633 33.92378643 28.33703613 36.81561279 C28.39679337 42.96036526 28.4488759 49.10517047 28.5 55.25 C28.55927131 62.35631082 28.62168376 69.462567 28.69187927 76.56877899 C28.71839327 79.41483308 28.73924906 82.26089275 28.7598877 85.10699463 C28.7764999 86.85941831 28.79337254 88.61183955 28.81054688 90.36425781 C28.8168235 91.54745857 28.8168235 91.54745857 28.82322693 92.75456238 C28.87063462 96.94432045 29.21103238 100.86922099 30 105 C30.10294909 106.53722435 30.17470043 108.07694593 30.2109375 109.6171875 C30.85850013 130.61300671 33.13655795 151.78562917 49.0625 167.1875 C63.23859472 179.10776725 81.9665923 180.90777188 99.75268555 181.55419922 C100.88883899 181.59630964 102.02499243 181.63842007 103.19557476 181.68180656 C116.11552587 182.12343884 129.03093648 182.14500308 141.95703125 182.1328125 C144.5310619 182.13348846 147.10509249 182.13446091 149.67912292 182.13571167 C155.0109424 182.13716934 160.34274435 182.13519285 165.67456055 182.13037109 C171.82344979 182.12487443 177.97230614 182.12674047 184.12119466 182.1321975 C190.09170608 182.13728144 196.0622073 182.13674684 202.03272057 182.13381577 C204.55452161 182.13314985 207.0763235 182.1339632 209.59812355 182.13629532 C213.10035082 182.13882962 216.60251386 182.13497295 220.10473633 182.12939453 C221.13994919 182.13141876 222.17516205 182.13344299 223.241745 182.13552856 C224.19550018 182.13270874 225.14925537 182.12988892 226.13191223 182.12698364 C226.95633222 182.12660662 227.7807522 182.12622959 228.63015461 182.12584114 C231.16548198 181.99121274 233.52531379 181.554574 236 181 C235.01 181.33 234.02 181.66 233 182 C234.22667763 185.14314692 234.22667763 185.14314692 237 186.875 C239.96149467 188.54084075 240.06214039 190.85147131 241 194 C241.66 194.33 242.32 194.66 243 195 C243.66666667 196.33333333 244.33333333 197.66666667 245 199 C245.66 199.33 246.32 199.66 247 200 C247 201.65 247 203.3 247 205 C244.69 205.33 242.38 205.66 240 206 C240 206.99 240 207.98 240 209 C230.18574001 210.51002622 220.70780366 211.294791 210.76293945 211.2746582 C209.41388166 211.27902241 208.06482633 211.28421112 206.71577454 211.29014587 C203.09970407 211.3033668 199.48373918 211.30413351 195.86764932 211.30158257 C192.82424648 211.30050078 189.78086397 211.30542689 186.73746556 211.310188 C179.54249037 211.32122577 172.34756741 211.32175376 165.15258789 211.31567383 C157.7879954 211.30964513 150.42359449 211.32193019 143.05903465 211.3432439 C136.68478714 211.36099722 130.31059984 211.36683969 123.93632859 211.36360615 C120.15201637 211.36181412 116.36784069 211.36421628 112.58355141 211.37832069 C71.63679162 211.5179437 71.63679162 211.5179437 54.9375 204.75 C54.15640869 204.44626465 53.37531738 204.1425293 52.57055664 203.82958984 C41.77997398 199.4855766 33.26669159 193.12868338 25 185 C23.95005859 183.96939453 23.95005859 183.96939453 22.87890625 182.91796875 C11.05349224 170.49321602 5.1439419 154.73016289 2.25 138.0625 C2.13422607 137.39637695 2.01845215 136.73025391 1.89916992 136.04394531 C-0.62469803 119.76067861 -0.13385429 103.13885822 -0.09765625 86.71875 C-0.09578741 84.20813017 -0.09436571 81.69750997 -0.09336853 79.18688965 C-0.08958001 72.63086919 -0.0797817 66.07487145 -0.06866455 59.51885986 C-0.0578174 52.80815066 -0.053854 46.09743429 -0.04882812 39.38671875 C-0.03815557 26.2578029 -0.02132072 13.12890267 0 0 Z " fill="#FCA849" transform="translate(6,98)"/>
<path d="M0 0 C5.36742536 0.58445298 8.98838876 1.38234997 12.5625 5.625 C13.39730538 6.73354915 14.21824329 7.85342349 15 9 C15.66 7.68 16.32 6.36 17 5 C17.99 5.99 18.98 6.98 20 8 C19.01 8.66 18.02 9.32 17 10 C18.11375 10.309375 19.2275 10.61875 20.375 10.9375 C24 12 24 12 26 13 C26.4522474 15.64254362 26.79630497 18.21304966 27.0625 20.875 C27.62353578 26.51481924 27.62353578 26.51481924 29 32 C29.08681423 33.55944736 29.11465654 35.1224758 29.10864258 36.68432617 C29.10708664 37.68200516 29.1055307 38.67968414 29.10392761 39.70759583 C29.09670181 40.82889389 29.08947601 41.95019196 29.08203125 43.10546875 C29.07782669 44.31526901 29.07362213 45.52506927 29.06929016 46.77153015 C29.05604721 50.35716077 29.03527311 53.94272285 29.01386261 57.52831268 C28.99920577 60.14161074 28.98729104 62.75491034 28.97601318 65.3682251 C28.92652247 76.72505604 28.8573308 88.08156641 28.76426506 99.43812752 C28.71949274 104.93635846 28.68013487 110.43450968 28.65356445 115.93286133 C28.62721991 121.35347349 28.58667993 126.77382033 28.53681374 132.19426537 C28.5204407 134.22108846 28.50874649 136.24795634 28.50238609 138.27483559 C28.46497646 149.07506565 28.00030212 159.68090696 26.63989258 170.40307617 C26.52205508 171.343401 26.40421759 172.28372583 26.28280926 173.25254536 C23.35653251 194.33262043 10.60753149 212.12781944 -6 225 C-15.29921494 231.57647182 -28.34869323 238 -40 238 C-40 237.34 -40 236.68 -40 236 C-37.69 235.67 -35.38 235.34 -33 235 C-33 233.35 -33 231.7 -33 230 C-33.92039063 229.62875 -33.92039063 229.62875 -34.859375 229.25 C-37.39494109 227.76937747 -38.02968785 226.63432463 -39.25 224 C-39.58515625 223.29875 -39.9203125 222.5975 -40.265625 221.875 C-41 220 -41 220 -41 218 C-42.175625 217.6596875 -42.175625 217.6596875 -43.375 217.3125 C-46 216 -46 216 -47.3125 213.375 C-47.539375 212.59125 -47.76625 211.8075 -48 211 C-48.495 211.99 -48.495 211.99 -49 213 C-51.97 212.67 -54.94 212.34 -58 212 C-58 211.67 -58 211.34 -58 211 C-56.83984375 210.84144531 -55.6796875 210.68289063 -54.484375 210.51953125 C-38.24878154 208.15586852 -23.76977039 203.57202819 -12.8515625 190.609375 C-5.34768569 180.03429122 -2.43480014 167.67406788 -1 155 C-0.67 154.67 -0.34 154.34 0 154 C0.2456948 151.4351291 0.42401322 148.89735813 0.55419922 146.32568359 C0.59630964 145.52302252 0.63842007 144.72036144 0.68180656 143.8933773 C1.16152265 133.86158807 1.14441361 123.82996858 1.1328125 113.7890625 C1.13348909 111.6846821 1.13446205 109.58030177 1.13571167 107.47592163 C1.13717519 103.08729297 1.13508 98.69868484 1.13037109 94.31005859 C1.12470927 88.77239464 1.12803444 83.2347791 1.13380814 77.69711685 C1.92430372 41.46908073 1.92430372 41.46908073 -0.59716797 5.41259766 C-1 2 -1 2 0 0 Z " fill="#D72D86" transform="translate(286,68)"/>
<path d="M0 0 C0.99 0.66 1.98 1.32 3 2 C3.66 1.34 4.32 0.68 5 0 C7.61580479 0.3269756 9.64078137 0.82039068 12 2 C12 5.96 12 9.92 12 14 C12.66 14 13.32 14 14 14 C14.22042969 15.09054688 14.22042969 15.09054688 14.4453125 16.203125 C17.65804037 30.60500858 23.86367022 42.40048898 36.25 50.8125 C49.464587 58.67919475 63.10713861 60.5628855 78 57 C90.27031885 53.21512553 100.14952497 45.91903127 107 35 C108.83853373 31.3975938 110.48010636 27.7472032 112 24 C112.66 24 113.32 24 114 24 C114.33 20.7 114.66 17.4 115 14 C115.33 14 115.66 14 116 14 C116.061875 14.94875 116.12375 15.8975 116.1875 16.875 C116.5896875 18.421875 116.5896875 18.421875 117 20 C119.3140387 21.27587495 119.3140387 21.27587495 122 22 C122.61875 22.474375 123.2375 22.94875 123.875 23.4375 C126.73784665 25.54253431 129.7069114 26.67009883 133 28 C132.67 29.32 132.34 30.64 132 32 C133.65 32.66 135.3 33.32 137 34 C136.855625 34.845625 136.71125 35.69125 136.5625 36.5625 C135.96164878 39.97134005 135.96164878 39.97134005 135.703125 43.328125 C133.38593586 55.42900164 120.47526522 67.25946633 110.8359375 74.31640625 C100.89993113 80.68657092 89.78100922 86.28841941 78 88 C76.91332031 88.16435547 76.91332031 88.16435547 75.8046875 88.33203125 C55.13121473 91.03326898 33.09154728 86.46007625 16.29345703 73.70410156 C12.64186302 70.68021055 9.30654338 67.39432771 6 64 C5.24976562 63.2471875 4.49953125 62.494375 3.7265625 61.71875 C-6.81549428 50.57082789 -15.19348644 34.53828943 -15.09765625 18.91796875 C-15.09443359 17.98662109 -15.09121094 17.05527344 -15.08789062 16.09570312 C-15.07951172 15.13599609 -15.07113281 14.17628906 -15.0625 13.1875 C-15.05798828 12.20845703 -15.05347656 11.22941406 -15.04882812 10.22070312 C-15.03708684 7.81373889 -15.02066419 5.40690143 -15 3 C-13.75283203 2.92652344 -13.75283203 2.92652344 -12.48046875 2.8515625 C-11.39378906 2.77679688 -10.30710937 2.70203125 -9.1875 2.625 C-8.10855469 2.55539063 -7.02960938 2.48578125 -5.91796875 2.4140625 C-2.81373814 2.18804267 -2.81373814 2.18804267 0 0 Z " fill="#F06147" transform="translate(97,146)"/>
<path d="M0 0 C31.6234863 -0.58420537 62.27153263 1.96519672 86.64697266 24.53417969 C107.64539873 44.92166758 112.45430691 73.76359546 113.05996323 101.77309036 C113.16344491 109.28722734 113.16559664 116.80168178 113.16796875 124.31640625 C113.17119232 126.74568195 113.17455717 129.17495747 113.17805481 131.60423279 C113.18400768 136.6747177 113.18589872 141.74518567 113.18530273 146.81567383 C113.18520139 153.24405958 113.19884229 159.67233419 113.21607494 166.1006937 C113.22731208 171.11397275 113.22921838 176.12722594 113.22869301 181.14051628 C113.22985601 183.50706298 113.23418049 185.87361074 113.24202538 188.24014473 C113.27797589 200.20510276 113.08091746 212.08495216 112.1105957 224.01538086 C112.03301875 224.97527955 111.9554418 225.93517824 111.87551403 226.92416477 C111.32119157 233.0507615 110.32841704 238.99454619 109 245 C108.67 245 108.34 245 108 245 C108.1440088 243.33317469 108.29031844 241.66654815 108.4375 240 C108.55931641 238.6078125 108.55931641 238.6078125 108.68359375 237.1875 C108.9089806 234.91693621 109.18946479 232.65155683 109.50694275 230.39202881 C110.08630654 225.76998419 110.17357253 221.193834 110.20532227 216.54003906 C110.21522186 215.62799713 110.22512146 214.7159552 110.23532104 213.77627563 C110.26678287 210.77275116 110.29167985 207.76921187 110.31640625 204.765625 C110.33703511 202.64694875 110.35803285 200.52827607 110.37937927 198.40960693 C110.42327078 193.96124343 110.46417547 189.51286643 110.50268555 185.06445312 C110.55133027 179.44799821 110.60503265 173.83160758 110.66062355 168.21521759 C110.76573168 157.59079061 110.85923729 146.96635205 110.93619728 136.34168243 C110.97338458 131.24519447 111.01780456 126.14893239 111.0751009 121.05263138 C111.1088427 117.86327176 111.12980715 114.67383054 111.15234375 111.484375 C111.1750106 109.89595795 111.1750106 109.89595795 111.19813538 108.27545166 C111.22207903 102.66897201 110.71056118 97.54048784 109.45121765 92.07138062 C108.63972697 88.34611396 108.87773578 84.7901907 109 81 C106.03 80.01 103.06 79.02 100 78 C100.33 77.34 100.66 76.68 101 76 C101 75.34 101 74.68 101 74 C98.94729537 75.84188612 98.94729537 75.84188612 98 78 C93.125 73.25 93.125 73.25 92 71 C88.98003217 70.45091494 86.07380605 70 83 70 C83.15355957 71.08490723 83.30711914 72.16981445 83.46533203 73.28759766 C86.54121326 98.15837194 85.15644574 123.98494253 85.13037109 148.99365234 C85.12463945 154.54229678 85.12798997 160.09089317 85.13394356 165.6395359 C85.13758523 169.98257804 85.13639475 174.32560908 85.13381577 178.66865158 C85.13315828 180.71359641 85.13393262 182.75854231 85.13629532 184.80348587 C85.14753346 197.23915553 84.84152879 209.59155898 84 222 C83.67 222 83.34 222 83 222 C83.00092179 221.4379077 83.00184359 220.87581539 83.00279331 220.29668999 C83.02504316 206.51104912 83.04144104 192.72541147 83.05181217 178.93975639 C83.05693118 172.27265597 83.06401773 165.60557011 83.07543945 158.93847656 C83.08642089 152.48693847 83.09230866 146.03541285 83.09487724 139.58386612 C83.09670432 137.14030893 83.10027105 134.69675231 83.10573006 132.25320053 C84.7055431 89.72553702 84.7055431 89.72553702 70 51 C69.44441406 50.45472656 68.88882813 49.90945312 68.31640625 49.34765625 C67 48 67 48 67 46 C66.42636719 45.72929688 65.85273438 45.45859375 65.26171875 45.1796875 C62.96309895 43.98075282 60.93209796 42.61528199 58.8125 41.125 C43.19759127 30.70661122 25.00531353 29.84698897 6.72412109 29.85473633 C5.56134644 29.85137772 4.39857178 29.8480191 3.20056152 29.84455872 C-0.60849097 29.83513169 -4.4174991 29.83310969 -8.2265625 29.83203125 C-10.22404725 29.82962784 -12.221532 29.82722223 -14.21901643 29.82457083 C-20.49285663 29.81646626 -26.76668251 29.81398285 -33.04052734 29.81469727 C-39.46154769 29.81529655 -45.88248362 29.80476529 -52.30348265 29.7889536 C-57.85980255 29.77577068 -63.41609522 29.77051785 -68.97243059 29.77115268 C-72.27156793 29.77140461 -75.5706145 29.76776785 -78.86973953 29.75797462 C-93.05825943 29.71980253 -106.94547975 29.9626779 -121 32 C-122.3267639 32.18870248 -123.65355521 32.3772124 -124.9803772 32.56550598 C-126.47509048 32.78058052 -126.47509048 32.78058052 -128 33 C-128 32.34 -128 31.68 -128 31 C-122.68468311 29.22589949 -118.14381195 28.7422332 -112.5625 28.875 C-111.46518555 28.88853516 -111.46518555 28.88853516 -110.34570312 28.90234375 C-108.56365702 28.92563847 -106.78178241 28.9614981 -105 29 C-104.67 28.01 -104.34 27.02 -104 26 C-102.0625 25.4375 -102.0625 25.4375 -100 25 C-99.34 24.34 -98.68 23.68 -98 23 C-94.9375 23.25 -94.9375 23.25 -92 24 C-91.505 24.99 -91.505 24.99 -91 26 C-85.78483589 26.66590221 -85.78483589 26.66590221 -81.12109375 24.734375 C-79.95487241 23.65946853 -78.803665 22.56804643 -77.66796875 21.4609375 C-75.36646775 19.4451029 -72.91153571 18.81252159 -70 18 C-69.34 17.34 -68.68 16.68 -68 16 C-67.01 16.33 -66.02 16.66 -65 17 C-60.8754113 16.17508226 -57.1519299 15.1429798 -53.3125 13.4375 C-48.9543853 11.54624268 -45.74049143 11 -41 11 C-39.65835921 10.7018576 -38.32148827 10.37756808 -37 10 C-36.01 11.485 -36.01 11.485 -35 13 C-34.20335937 12.65775391 -34.20335937 12.65775391 -33.390625 12.30859375 C-32.68421875 12.02113281 -31.9778125 11.73367188 -31.25 11.4375 C-30.20585937 11.00244141 -30.20585937 11.00244141 -29.140625 10.55859375 C-26.66723001 9.91316404 -25.41447834 10.28753098 -23 11 C-20.31850007 10.61432869 -20.31850007 10.61432869 -18 10 C-17.67 9.01 -17.34 8.02 -17 7 C-14.75 5.5 -14.75 5.5 -12 4 C-10.948125 3.13375 -10.948125 3.13375 -9.875 2.25 C-5.29995138 0.26084843 -0.840992 1.29631815 4 2 C2.02 1.01 2.02 1.01 0 0 Z " fill="#B540A9" transform="translate(203,0)"/>
<path d="M0 0 C0.33 0 0.66 0 1 0 C1.33 7.92 1.66 15.84 2 24 C11.5 20.5 11.5 20.5 13 17 C13.99 17.33 14.98 17.66 16 18 C16.61875 17.38125 17.2375 16.7625 17.875 16.125 C20.91168602 13.08831398 22.95355637 11.49079502 27 10 C28.59040859 13.18081717 28.17110218 16.62333602 28.18945312 20.11816406 C28.19774643 20.957379 28.20603973 21.79659393 28.21458435 22.66123962 C28.23200638 24.48751167 28.24716728 26.31380634 28.26036072 28.14011383 C28.281369 31.03200636 28.30839633 33.92378643 28.33703613 36.81561279 C28.39679337 42.96036526 28.4488759 49.10517047 28.5 55.25 C28.55927131 62.35631082 28.62168376 69.462567 28.69187927 76.56877899 C28.71839327 79.41483308 28.73924906 82.26089275 28.7598877 85.10699463 C28.7764999 86.85941831 28.79337254 88.61183955 28.81054688 90.36425781 C28.8168235 91.54745857 28.8168235 91.54745857 28.82322693 92.75456238 C28.87063462 96.94432045 29.21103238 100.86922099 30 105 C30.10294909 106.53722435 30.17470043 108.07694593 30.2109375 109.6171875 C30.79226704 128.46554202 32.35684398 147.87889803 45 163 C47.31434882 165.16031562 49.67131216 167.19969162 52.14453125 169.17578125 C54.1466141 171.14414481 54.63085997 172.2586814 55 175 C52.92446352 175.5534764 51.15634036 176 49 176 C49 176.66 49 177.32 49 178 C48.34 178 47.68 178 47 178 C46.67 178.66 46.34 179.32 46 180 C45.67 178.68 45.34 177.36 45 176 C44.55269531 176.37253906 44.10539062 176.74507812 43.64453125 177.12890625 C38.67869287 181.01475419 38.67869287 181.01475419 35.125 180.9375 C33 180 33 180 32 178 C31.01 178.33 30.02 178.66 29 179 C28.01 178.67 27.02 178.34 26 178 C25.01 178.33 24.02 178.66 23 179 C17.35208141 177.52779373 15.63641856 174.10470396 12.76953125 169.3203125 C-0.95514154 143.56761521 -0.32299542 114.38644913 -0.1953125 85.9375 C-0.19156956 83.43831497 -0.18872867 80.93912845 -0.18673706 78.43994141 C-0.17920128 71.94976552 -0.15964269 65.45968311 -0.1373291 58.96954346 C-0.11665046 52.31173897 -0.10768889 45.65392131 -0.09765625 38.99609375 C-0.07638445 25.99735659 -0.0427742 12.99868333 0 0 Z " fill="#F69043" transform="translate(6,98)"/>
<path d="M0 0 C2 2 2 2 2.24723816 5.00704956 C2.24581314 6.29878082 2.24438812 7.59051208 2.24291992 8.92138672 C2.24481827 9.63392105 2.24671661 10.34645538 2.24867249 11.08058167 C2.25238964 13.44706076 2.24165266 15.81323541 2.23046875 18.1796875 C2.22927605 19.82959965 2.22882398 21.47951249 2.2290802 23.12942505 C2.22751307 26.59804504 2.21921388 30.06656217 2.20581055 33.53515625 C2.1889531 37.9506964 2.18499244 42.36612205 2.18575573 46.7816906 C2.18548155 50.19637111 2.17995883 53.61102728 2.17275429 57.02569962 C2.16960015 58.65135641 2.16760794 60.27701594 2.16686058 61.90267563 C2.15813285 70.97776152 1.9570488 79.96439999 1 89 C0.34 89 -0.32 89 -1 89 C-1.37125 89.474375 -1.7425 89.94875 -2.125 90.4375 C-4.31589151 92.26324293 -5.34002515 92.29394885 -8.125 92.5625 C-10.043125 92.7790625 -10.043125 92.7790625 -12 93 C-12.495 93.99 -12.495 93.99 -13 95 C-14.66128463 95.35919668 -16.32900023 95.68911632 -18 96 C-19.3479743 96.63654342 -20.68596724 97.29605388 -22 98 C-22.33 98 -22.66 98 -23 98 C-23.99 98.495 -23.99 98.495 -25 99 C-25.02319031 88.80330831 -25.0409492 78.60662291 -25.05181217 68.4099102 C-25.05702636 63.67495669 -25.06409742 58.94002124 -25.07543945 54.20507812 C-25.08632037 49.63393095 -25.09228788 45.06280113 -25.09487724 40.491642 C-25.09672211 38.74937797 -25.10032465 37.00711487 -25.10573006 35.26485825 C-25.11300955 32.82091991 -25.11398803 30.37705294 -25.11352539 27.93310547 C-25.11712067 27.21596878 -25.12071594 26.49883209 -25.12442017 25.75996399 C-25.11621119 21.74126285 -24.95186875 17.91362284 -24 14 C-21.75 12.390625 -21.75 12.390625 -19 11.25 C-15.27547767 9.91910301 -15.27547767 9.91910301 -13 7 C-12.01 7.33 -11.02 7.66 -10 8 C-9.38125 7.38125 -8.7625 6.7625 -8.125 6.125 C-5.45968067 3.45968067 -3.41631668 1.59428112 0 0 Z " fill="#CA3F74" transform="translate(32,108)"/>
<path d="M0 0 C0.2475 0.88558594 0.495 1.77117187 0.75 2.68359375 C2.06436005 6.17075526 3.58023723 8.25575311 6 11.0625 C9.52743583 15.1670347 12 18.44683961 12 24 C12.04125 25.0725 12.0825 26.145 12.125 27.25 C11.88667873 34.39963816 9.83441367 38.94510024 4.875 44 C4.3792749 44.51908936 3.8835498 45.03817871 3.37280273 45.57299805 C1.9315505 47.0659983 0.47150073 48.53686899 -1 50 C-1.68707031 50.68707031 -2.37414062 51.37414062 -3.08203125 52.08203125 C-13.09868668 61.42388042 -28.96065242 70 -43 70 C-43 69.34 -43 68.68 -43 68 C-39.535 67.505 -39.535 67.505 -36 67 C-36 65.35 -36 63.7 -36 62 C-36.61359375 61.7525 -37.2271875 61.505 -37.859375 61.25 C-40.39494109 59.76937747 -41.02968785 58.63432463 -42.25 56 C-42.58515625 55.29875 -42.9203125 54.5975 -43.265625 53.875 C-44 52 -44 52 -44 50 C-44.78375 49.773125 -45.5675 49.54625 -46.375 49.3125 C-49 48 -49 48 -50.3125 45.375 C-50.539375 44.59125 -50.76625 43.8075 -51 43 C-51.33 43.66 -51.66 44.32 -52 45 C-54.97 44.67 -57.94 44.34 -61 44 C-61 43.67 -61 43.34 -61 43 C-59.83984375 42.84144531 -58.6796875 42.68289063 -57.484375 42.51953125 C-41.22191946 40.1519578 -26.85240758 35.5503515 -15.859375 22.64453125 C-11.88404509 16.99054312 -9.17952308 10.53856924 -7 4 C-6.34 4 -5.68 4 -5 4 C-4.67 3.01 -4.34 2.02 -4 1 C-2 0 -2 0 0 0 Z " fill="#E94C5F" transform="translate(289,236)"/>
<path d="M0 0 C1.90234375 0.35546875 1.90234375 0.35546875 4 1 C5.5625 3.3125 5.5625 3.3125 7 6 C7.98244845 7.34631825 8.97676564 8.68441297 10 10 C11.65 9.67 13.3 9.34 15 9 C15.28875 9.928125 15.5775 10.85625 15.875 11.8125 C16.8875 15.09791667 16.8875 15.09791667 19 18 C19.66 18 20.32 18 21 18 C24.29286321 21.29286321 25.23410499 22.36903325 25.30308533 27.12789917 C25.30232498 27.83205963 25.30156464 28.53622009 25.30078125 29.26171875 C25.30642593 29.99601105 25.31207062 30.73030334 25.31788635 31.48684692 C25.32998011 33.88727554 25.32361929 36.28707179 25.3125 38.6875 C25.31034485 39.50278168 25.3081897 40.31806335 25.30596924 41.15805054 C25.21005879 63.67898814 23.55108692 83.24090531 12 103 C10.82223763 99.31949259 10.93021138 95.83837399 11 92 C11 87.70116948 9.27123368 84.60038008 7 81 C4.46557594 78.77183014 4.46557594 78.77183014 2 77 C-0.05556739 73.965591 -0.20129748 71.62335457 0 68 C-2.46800047 69.15173355 -4.04783565 70.04783565 -6 72 C-5.69272975 69.18683642 -5.37944848 66.37457481 -5.0625 63.5625 C-4.93198242 62.35883789 -4.93198242 62.35883789 -4.79882812 61.13085938 C-4.11328125 55.11328125 -4.11328125 55.11328125 -3 54 C-2.78142662 52.15123352 -2.62761562 50.29476306 -2.5 48.4375 C-2.3769751 46.66959106 -2.3769751 46.66959106 -2.25146484 44.8659668 C-2.12698975 42.95231323 -2.12698975 42.95231323 -2 41 C-1.86972412 39.06024292 -1.86972412 39.06024292 -1.73681641 37.08129883 C-0.92383984 24.73070201 -0.40493935 12.37040328 0 0 Z " fill="#DF3275" transform="translate(289,168)"/>
<path d="M0 0 C2.0625 0.4375 2.0625 0.4375 4 1 C3.01 1 2.02 1 1 1 C2.22667763 4.14314692 2.22667763 4.14314692 5 5.875 C7.96149467 7.54084075 8.06214039 9.85147131 9 13 C9.99 13.495 9.99 13.495 11 14 C11.66666667 15.33333333 12.33333333 16.66666667 13 18 C13.66 18.33 14.32 18.66 15 19 C15 20.65 15 22.3 15 24 C12.69 24.33 10.38 24.66 8 25 C8 25.99 8 26.98 8 28 C2.43304991 29.1777808 -2.98914563 29.12760748 -8.6484375 29.09765625 C-9.66096588 29.0962413 -10.67349426 29.09482635 -11.71670532 29.09336853 C-14.93616751 29.08779143 -18.15555899 29.07524312 -21.375 29.0625 C-23.56380108 29.05748204 -25.75260325 29.05291965 -27.94140625 29.04882812 C-33.29429477 29.0378295 -38.64714233 29.0211142 -44 29 C-44.28875 28.19820313 -44.5775 27.39640625 -44.875 26.5703125 C-46.20808946 23.52457338 -47.06079476 23.28590229 -50 22 C-50.66 21.01 -51.32 20.02 -52 19 C-52.99 19.33 -53.98 19.66 -55 20 C-55.33 18.68 -55.66 17.36 -56 16 C-57.093125 15.855625 -58.18625 15.71125 -59.3125 15.5625 C-65.36 14.64 -65.36 14.64 -68 12 C-68.33 11.34 -68.66 10.68 -69 10 C-69.721875 10.061875 -70.44375 10.12375 -71.1875 10.1875 C-74.57992434 9.96133838 -76.19661201 8.86892533 -79 7 C-80.32608822 6.31903578 -81.65686601 5.64669414 -83 5 C-83 4.67 -83 4.34 -83 4 C-77.66782142 3.12590137 -72.48418418 2.81079396 -67.0859375 2.71875 C-66.24195404 2.70065781 -65.39797058 2.68256561 -64.52841187 2.66392517 C-62.73459375 2.62563198 -60.94073757 2.58908714 -59.14685059 2.5541687 C-54.5065441 2.46348583 -49.86654725 2.35965218 -45.2265625 2.25390625 C-44.32486328 2.23344742 -43.42316406 2.21298859 -42.49414062 2.19190979 C-35.10355832 2.017265 -27.7256082 1.71218346 -20.34423828 1.3046875 C-14.61913201 0.99663231 -8.93743762 0.94487307 -3.203125 1.0625 C-1.02413776 1.25306133 -1.02413776 1.25306133 0 0 Z " fill="#FA883F" transform="translate(238,279)"/>
<path d="M0 0 C0.33 0 0.66 0 1 0 C1.061875 0.94875 1.12375 1.8975 1.1875 2.875 C1.455625 3.90625 1.72375 4.9375 2 6 C4.3140387 7.27587495 4.3140387 7.27587495 7 8 C7.61875 8.474375 8.2375 8.94875 8.875 9.4375 C11.73784665 11.54253431 14.7069114 12.67009883 18 14 C17.67 15.32 17.34 16.64 17 18 C18.65 18.66 20.3 19.32 22 20 C21.855625 20.845625 21.71125 21.69125 21.5625 22.5625 C20.96164878 25.97134005 20.96164878 25.97134005 20.703125 29.328125 C18.38159467 41.45167226 5.45440303 53.19130919 -4.140625 60.33984375 C-9.28278058 63.73878167 -9.28278058 63.73878167 -12 65 C-14 64 -14 64 -16 61 C-16 59.68 -16 58.36 -16 57 C-17.11375 56.814375 -17.11375 56.814375 -18.25 56.625 C-20.8446827 56.03529939 -22.66912074 55.23827961 -25 54 C-25.845625 53.690625 -26.69125 53.38125 -27.5625 53.0625 C-30.03981616 51.98264424 -31.20119227 50.96233571 -33 49 C-36.74551161 46.50299226 -39.09632077 46.99091272 -43.49609375 47.03515625 C-44.79675781 47.04417969 -46.09742188 47.05320313 -47.4375 47.0625 C-49.38462891 47.07990234 -49.38462891 47.07990234 -51.37109375 47.09765625 C-54.41543621 47.015731 -57.05464645 46.72073199 -60 46 C-60 45.67 -60 45.34 -60 45 C-59.14341797 45.03480469 -59.14341797 45.03480469 -58.26953125 45.0703125 C-42.94999898 45.41128778 -29.07848559 42.30156617 -17.25 32.16015625 C-10.497097 25.67690042 -6.50226571 18.63461821 -3 10 C-2.34 10 -1.68 10 -1 10 C-0.67 6.7 -0.34 3.4 0 0 Z " fill="#E8475F" transform="translate(212,160)"/>
<path d="M0 0 C-0.31815563 4.66628256 -1.43766112 8.17302733 -3.375 12.4375 C-7.88713932 22.98755985 -9.10157845 33.82677046 -9.55834961 45.17431641 C-9.59904288 46.130245 -9.63973616 47.08617359 -9.68166256 48.07106972 C-10.09313769 58.32393983 -10.22442835 68.57609517 -10.31640625 78.8359375 C-10.33706225 80.82232 -10.35806035 82.80869897 -10.37937927 84.79507446 C-10.43371008 89.9404203 -10.48349888 95.08579963 -10.53222656 100.23120117 C-10.58310575 105.51484033 -10.63843952 110.79843282 -10.69335938 116.08203125 C-10.79984663 126.38798067 -10.90151882 136.69397118 -11 147 C-11.33 147 -11.66 147 -12 147 C-12.01030746 145.91227798 -12.02061493 144.82455597 -12.03123474 143.70387268 C-12.1287936 133.47640569 -12.23151059 123.24900194 -12.33933926 113.02163792 C-12.39461375 107.76306363 -12.44804084 102.50448382 -12.49731445 97.24584961 C-12.54489142 92.17541936 -12.59723154 87.10505903 -12.65294075 82.03471184 C-12.67339462 80.09575061 -12.69210257 78.15677018 -12.70907402 76.21777534 C-12.73305117 73.51173046 -12.76311445 70.80581901 -12.79467773 68.09985352 C-12.80331093 66.88497505 -12.80331093 66.88497505 -12.81211853 65.64555359 C-12.52349669 62.02335774 -12.52349669 62.02335774 -14 59 C-14.66 59.66 -15.32 60.32 -16 61 C-17.485 61.495 -17.485 61.495 -19 62 C-19.99 62.495 -19.99 62.495 -21 63 C-21.33 63.99 -21.66 64.98 -22 66 C-23.485 66.495 -23.485 66.495 -25 67 C-25 66.34 -25 65.68 -25 65 C-25.66 65 -26.32 65 -27 65 C-27.33 65.99 -27.66 66.98 -28 68 C-28.66 68 -29.32 68 -30 68 C-30.495 68.99 -30.495 68.99 -31 70 C-33.3140622 70.73075648 -35.64828869 71.40138258 -38 72 C-38 73.98 -38 75.96 -38 78 C-38.33 78 -38.66 78 -39 78 C-39.07523197 71.77850871 -39.12910284 65.55729321 -39.16479492 59.33544922 C-39.17970406 57.22732927 -39.20003849 55.11923933 -39.22631836 53.01123047 C-39.63364789 19.45047184 -39.63364789 19.45047184 -34 11 C-34.33 13.31 -34.66 15.62 -35 18 C-25.01561572 15.2383618 -16.89478085 12.26015678 -8.55078125 5.98828125 C-7 5 -7 5 -5 5 C-5 4.34 -5 3.68 -5 3 C-1.42307692 0 -1.42307692 0 0 0 Z " fill="#B14693" transform="translate(46,50)"/>
<path d="M0 0 C0.66 0.99 1.32 1.98 2 3 C5.18490007 3.2773501 5.18490007 3.2773501 8 1 C9.34262065 1.29369827 10.67696283 1.6278958 12 2 C12.99 1.67 13.98 1.34 15 1 C15.99 1.66 16.98 2.32 18 3 C18.763125 2.835 19.52625 2.67 20.3125 2.5 C23.74162699 1.86202288 25.76965797 2.80617794 29 4 C29.99 4 30.98 4 32 4 C34.66666667 4 37.33333333 4 40 4 C40 4.66 40 5.32 40 6 C39.34 6 38.68 6 38 6 C38 6.99 38 7.98 38 9 C35.98828125 10.46484375 35.98828125 10.46484375 33.3125 11.9375 C22.0214214 18.4326493 15.07960189 27.45451197 11.05859375 39.91796875 C9.27781289 46.56793787 8.39193674 53.13434953 8 60 C7.67 60 7.34 60 7 60 C6.67 56.04 6.34 52.08 6 48 C4.515 47.505 4.515 47.505 3 47 C2.34 47.66 1.68 48.32 1 49 C0.67 48.34 0.34 47.68 0 47 C-0.99 47.66 -1.98 48.32 -3 49 C-4.485 48.505 -4.485 48.505 -6 48 C-7.6752357 48.28718326 -9.34080104 48.63128912 -11 49 C-13.66292726 49.37122592 -16.32981352 49.68319821 -19 50 C-19.33 54.62 -19.66 59.24 -20 64 C-20.33 64 -20.66 64 -21 64 C-21.74033546 40.06248676 -16.84944969 18.08233625 0 0 Z " fill="#D3427A" transform="translate(102,100)"/>
<path d="M0 0 C4.02007799 2.83512051 6.2600035 5.98716752 8.1640625 10.57421875 C9.16455767 16.47714023 8.88072721 21.15925338 6.1015625 26.51171875 C2.1752146 31.18088923 -1.55918231 34.94027998 -7.91796875 35.5 C-14.20757991 35.65031775 -18.37652964 35.74238945 -23.2109375 31.26171875 C-27.67843956 26.6941046 -29.95737721 22.83958165 -30.5859375 16.44921875 C-30.42430396 11.09510787 -28.41423299 6.64610702 -24.78515625 2.71875 C-17.37699312 -3.80885627 -8.60101272 -4.88304507 0 0 Z " fill="#C63296" transform="translate(254.2109375,55.73828125)"/>
<path d="M0 0 C0.99 0.66 1.98 1.32 3 2 C3.66 1.34 4.32 0.68 5 0 C7.61580479 0.3269756 9.64078137 0.82039068 12 2 C12 5.96 12 9.92 12 14 C12.66 14 13.32 14 14 14 C14.22042969 15.09054688 14.22042969 15.09054688 14.4453125 16.203125 C16.22083831 24.16237862 19.13338702 30.84838157 23 38 C23.671984 39.33066139 24.34091254 40.66290391 25 42 C24.01 42.66 23.02 43.32 22 44 C21.01 43.34 20.02 42.68 19 42 C18.01 42 17.02 42 16 42 C14.09822159 41.50131144 12.20301963 40.97730266 10.3125 40.4375 C5.0013506 39.04694452 1.34784993 39.10869168 -4 40 C-4.66 39.34 -5.32 38.68 -6 38 C-6.66 38 -7.32 38 -8 38 C-8 39.65 -8 41.3 -8 43 C-9.88209855 40.17685218 -10.92011435 37.79588032 -12.0625 34.625 C-12.40410156 33.68914062 -12.74570313 32.75328125 -13.09765625 31.7890625 C-14.50224578 27.44760394 -15.12563635 23.47872479 -15.09765625 18.91796875 C-15.09443359 17.98662109 -15.09121094 17.05527344 -15.08789062 16.09570312 C-15.07951172 15.13599609 -15.07113281 14.17628906 -15.0625 13.1875 C-15.05798828 12.20845703 -15.05347656 11.22941406 -15.04882812 10.22070312 C-15.03708684 7.81373889 -15.02066419 5.40690143 -15 3 C-13.75283203 2.92652344 -13.75283203 2.92652344 -12.48046875 2.8515625 C-11.39378906 2.77679688 -10.30710937 2.70203125 -9.1875 2.625 C-8.10855469 2.55539063 -7.02960938 2.48578125 -5.91796875 2.4140625 C-2.81373814 2.18804267 -2.81373814 2.18804267 0 0 Z " fill="#E54D5A" transform="translate(97,146)"/>
<path d="M0 0 C5.36742536 0.58445298 8.98838876 1.38234997 12.5625 5.625 C13.39730538 6.73354915 14.21824329 7.85342349 15 9 C15.66 7.68 16.32 6.36 17 5 C17.99 5.99 18.98 6.98 20 8 C19.01 8.66 18.02 9.32 17 10 C18.11375 10.309375 19.2275 10.61875 20.375 10.9375 C24 12 24 12 26 13 C26.4522474 15.64254362 26.79630497 18.21304966 27.0625 20.875 C27.62353578 26.51481924 27.62353578 26.51481924 29 32 C29.0918277 33.44567986 29.13066598 34.89515828 29.1328125 36.34375 C29.13474609 37.59478516 29.13474609 37.59478516 29.13671875 38.87109375 C29.13285156 39.73863281 29.12898438 40.60617188 29.125 41.5 C29.13080078 42.80130859 29.13080078 42.80130859 29.13671875 44.12890625 C29.13542969 44.96292969 29.13414062 45.79695313 29.1328125 46.65625 C29.13168457 47.41744141 29.13055664 48.17863281 29.12939453 48.96289062 C29 51 29 51 28 54 C24.4375 55.6875 24.4375 55.6875 21 57 C21 56.01 21 55.02 21 54 C20.34 53.67 19.68 53.34 19 53 C18.34 52.01 17.68 51.02 17 50 C16.01 50.495 16.01 50.495 15 51 C15 50.34 15 49.68 15 49 C14.071875 48.9071875 14.071875 48.9071875 13.125 48.8125 C11 48 11 48 9.875 45.5 C9.58625 44.675 9.2975 43.85 9 43 C6.99967627 41.99983813 5.16874252 41.50603992 3 41 C3 40.01 3 39.02 3 38 C2.34 38 1.68 38 1 38 C0.97494385 37.19369141 0.9498877 36.38738281 0.92407227 35.55664062 C0.8073732 31.87096125 0.68498409 28.18549148 0.5625 24.5 C0.52318359 23.2315625 0.48386719 21.963125 0.44335938 20.65625 C0.19667039 12.91576858 0.19667039 12.91576858 -0.59765625 5.21875 C-1 2 -1 2 0 0 Z " fill="#CA2E94" transform="translate(286,68)"/>
<path d="M0 0 C0.33 0 0.66 0 1 0 C1.02498397 5.19205385 1.04299248 10.38407161 1.05493164 15.57617188 C1.05991642 17.3372458 1.06670666 19.09831568 1.07543945 20.859375 C1.12259579 30.62351145 1.09018514 40.28051396 0 50 C-0.66 50 -1.32 50 -2 50 C-2.37125 50.474375 -2.7425 50.94875 -3.125 51.4375 C-5.31589151 53.26324293 -6.34002515 53.29394885 -9.125 53.5625 C-10.40375 53.706875 -11.6825 53.85125 -13 54 C-13.33 54.66 -13.66 55.32 -14 56 C-15.66128463 56.35919668 -17.32900023 56.68911632 -19 57 C-20.3479743 57.63654342 -21.68596724 58.29605388 -23 59 C-23.33 59 -23.66 59 -24 59 C-24.99 59.495 -24.99 59.495 -26 60 C-26 45.15 -26 30.3 -26 15 C-25.34 16.32 -24.68 17.64 -24 19 C-22.948125 18.67 -21.89625 18.34 -20.8125 18 C-17.53211506 17.13957116 -15.30888823 17 -12 17 C-9.98777953 16.3711811 -7.98723268 15.70381157 -6 15 C-4.35 14.67 -2.7 14.34 -1 14 C-0.67 9.38 -0.34 4.76 0 0 Z " fill="#E55C4B" transform="translate(33,147)"/>
<path d="M0 0 C-0.31815563 4.66628256 -1.43766112 8.17302733 -3.375 12.4375 C-9.4522889 26.64711479 -9.61904122 41.77848665 -10 57 C-10.33 57 -10.66 57 -11 57 C-11.01458252 56.34402832 -11.02916504 55.68805664 -11.04418945 55.01220703 C-11.11851414 52.04919969 -11.21522369 49.08733883 -11.3125 46.125 C-11.33505859 45.09246094 -11.35761719 44.05992188 -11.38085938 42.99609375 C-11.41630859 42.00996094 -11.45175781 41.02382812 -11.48828125 40.0078125 C-11.51446533 39.09660645 -11.54064941 38.18540039 -11.56762695 37.24658203 C-11.71031006 36.50520996 -11.85299316 35.76383789 -12 35 C-12.99 34.34 -13.98 33.68 -15 33 C-19.0369867 34.79421631 -21.64480474 36.20551875 -24 40 C-24.99 39.67 -25.98 39.34 -27 39 C-28.91874836 40.42459275 -30.49700745 42.05964058 -32.18359375 43.75 C-34 45 -34 45 -36.22265625 44.6875 C-36.80917969 44.460625 -37.39570312 44.23375 -38 44 C-38 45.98 -38 47.96 -38 50 C-38.33 50 -38.66 50 -39 50 C-39.30159975 40.54987449 -39.19412001 31.40820561 -37.625 22.0625 C-37.49891357 21.30018066 -37.37282715 20.53786133 -37.24291992 19.75244141 C-36.60803848 16.25683091 -35.99553346 13.99330019 -34 11 C-34.33 13.31 -34.66 15.62 -35 18 C-25.01561572 15.2383618 -16.89478085 12.26015678 -8.55078125 5.98828125 C-7 5 -7 5 -5 5 C-5 4.34 -5 3.68 -5 3 C-1.42307692 0 -1.42307692 0 0 0 Z " fill="#A743A0" transform="translate(46,50)"/>
<path d="M0 0 C2.0625 0.4375 2.0625 0.4375 4 1 C3.01 1 2.02 1 1 1 C2.22667763 4.14314692 2.22667763 4.14314692 5 5.875 C7.96149467 7.54084075 8.06214039 9.85147131 9 13 C9.66 13.33 10.32 13.66 11 14 C11.66666667 15.33333333 12.33333333 16.66666667 13 18 C13.66 18.33 14.32 18.66 15 19 C15 20.65 15 22.3 15 24 C12.69 24.33 10.38 24.66 8 25 C8 25.66 8 26.32 8 27 C1.30324864 28.03026944 -5.2314676 28.10152799 -12 28 C-12.556875 26.948125 -13.11375 25.89625 -13.6875 24.8125 C-16.53765405 19.83731942 -19.83303875 16.49439509 -25 14 C-27 11 -27 11 -27 8 C-28.32 7.34 -29.64 6.68 -31 6 C-31 5.01 -31 4.02 -31 3 C-22.44937602 0.14979201 -12.37186028 0.89028979 -3.44921875 1.0625 C-1.05311161 1.28272439 -1.05311161 1.28272439 0 0 Z " fill="#F56E44" transform="translate(238,279)"/>
<path d="M0 0 C0.66 0 1.32 0 2 0 C1.96519531 1.25554687 1.93039063 2.51109375 1.89453125 3.8046875 C1.58139691 16.67831806 1.58139691 16.67831806 5 29 C3.1875 30.0625 3.1875 30.0625 1 31 C0.01 30.67 -0.98 30.34 -2 30 C-2.33 30.66 -2.66 31.32 -3 32 C-3.99 32.495 -3.99 32.495 -5 33 C-5 32.34 -5 31.68 -5 31 C-5.598125 31.495 -6.19625 31.99 -6.8125 32.5 C-9 34 -9 34 -12 34 C-12.33 34.66 -12.66 35.32 -13 36 C-15.76276177 35.47731534 -18.3260876 34.89130413 -21 34 C-23.35658397 30.46512404 -23.37577643 28.56765697 -23.6328125 24.36328125 C-23.71660156 23.06455078 -23.80039062 21.76582031 -23.88671875 20.42773438 C-23.96633926 19.0560008 -24.04576384 17.68425583 -24.125 16.3125 C-24.21141912 14.92898496 -24.29864928 13.54552034 -24.38671875 12.16210938 C-24.5991412 8.77515148 -24.8032242 5.3878971 -25 2 C-24.67 3.32 -24.34 4.64 -24 6 C-19.12158197 7.56806294 -16.05497065 6.0977572 -11.625 3.875 C-7.69826111 2.07064725 -5.24697451 1.69323861 -1 3 C-0.67 2.01 -0.34 1.02 0 0 Z " fill="#F06E3D" transform="translate(33,209)"/>
<path d="M0 0 C0 0.33 0 0.66 0 1 C-10.43300922 1.60762259 -20.86469277 2.01696106 -31.3125 2.25390625 C-32.22173721 2.27464706 -33.13097443 2.29538788 -34.06776428 2.3167572 C-38.69666985 2.42064139 -43.3256324 2.51749234 -47.95483398 2.60717773 C-49.69775561 2.64428856 -51.4406756 2.68147615 -53.18359375 2.71875 C-53.98293335 2.73229019 -54.78227295 2.74583038 -55.60583496 2.75978088 C-59.83162027 2.85376444 -63.83708803 3.17995075 -68 4 C-66.88625 4.28875 -65.7725 4.5775 -64.625 4.875 C-61 6 -61 6 -59 8 C-58.01 8.165 -57.02 8.33 -56 8.5 C-52.33235475 9.11127421 -51.56473815 10.43526185 -49 13 C-46.89179203 12.6814823 -46.89179203 12.6814823 -45 12 C-45 12.66 -45 13.32 -45 14 C-44.443125 14.103125 -43.88625 14.20625 -43.3125 14.3125 C-40.48503237 15.15309848 -38.40519981 16.29104224 -36 18 C-35.30251417 19.31747324 -34.63040043 20.64914193 -34 22 C-32.515 22.495 -32.515 22.495 -31 23 C-29.3125 24.4375 -29.3125 24.4375 -28 26 C-28 26.66 -28 27.32 -28 28 C-16.45 28 -4.9 28 7 28 C7 28.33 7 28.66 7 29 C0.37975331 29.05069859 -6.24044334 29.08573295 -12.86083984 29.10986328 C-15.11313752 29.11992253 -17.36542214 29.13357146 -19.61767578 29.15087891 C-22.85452498 29.17513031 -26.09120155 29.1864839 -29.328125 29.1953125 C-30.83925873 29.21079636 -30.83925873 29.21079636 -32.38092041 29.22659302 C-33.79193024 29.22681961 -33.79193024 29.22681961 -35.23144531 29.22705078 C-36.05751282 29.231492 -36.88358032 29.23593323 -37.73468018 29.24050903 C-40.22197764 28.97643263 -41.84933375 28.24570507 -44 27 C-44 26.01 -44 25.02 -44 24 C-44.99 24 -45.98 24 -47 24 C-47.33 24.66 -47.66 25.32 -48 26 C-48.495 25.01 -48.495 25.01 -49 24 C-49.99 24.495 -49.99 24.495 -51 25 C-53 23 -53 23 -53.8125 20.4375 C-54.4003125 19.2309375 -54.4003125 19.2309375 -55 18 C-57.31850007 17.38567131 -57.31850007 17.38567131 -60 17 C-62.03833424 15.7260411 -64.03852126 14.38938077 -66 13 C-70.98656834 9.76546919 -76.94852842 6 -83 6 C-83.33 4.68 -83.66 3.36 -84 2 C-90.6 2 -97.2 2 -104 2 C-104 1.67 -104 1.34 -104 1 C-93.68850397 0.86797142 -83.3769896 0.73748522 -73.06545067 0.60884857 C-68.27490678 0.54904053 -63.48437016 0.48874521 -58.69384766 0.42724609 C-17.96050577 -0.09501517 -17.96050577 -0.09501517 0 0 Z " fill="#F29750" transform="translate(224,280)"/>
<path d="M0 0 C0.33 0 0.66 0 1 0 C1.33 34.98 1.66 69.96 2 106 C4.475 105.505 4.475 105.505 7 105 C7.66 105 8.32 105 9 105 C9.99 104.01 9.99 104.01 11 103 C12.65614657 102.61781233 14.32457024 102.28604898 16 102 C19.0745356 101.2236068 19.0745356 101.2236068 21 99 C21.495 99.99 21.495 99.99 22 101 C22.66 101 23.32 101 24 101 C24.495 99.515 24.495 99.515 25 98 C25.33 98 25.66 98 26 98 C26.33 94.37 26.66 90.74 27 87 C27.33 87 27.66 87 28 87 C28.61142567 93.15792995 29.09759125 99.31220473 29.25 105.5 C29.27578125 106.4590625 29.3015625 107.418125 29.328125 108.40625 C28.94062172 111.4693712 28.17191015 112.82808985 26 115 C23.125 115.125 23.125 115.125 20 115 C18.31050386 115.60648579 16.64363134 116.27840576 15 117 C13.1746875 117.495 13.1746875 117.495 11.3125 118 C7.95649429 118.72845517 7.95649429 118.72845517 6 121 C6 120.01 6 119.02 6 118 C5.01 118 4.02 118 3 118 C3 121.3 3 124.6 3 128 C2.67 128 2.34 128 2 128 C-0.49609758 114.31639341 -0.25630087 100.67963351 -0.1953125 86.81640625 C-0.19157548 84.30435805 -0.18873177 81.79230837 -0.18673706 79.28025818 C-0.17992642 73.38396254 -0.16422473 67.48774503 -0.14403808 61.59148115 C-0.11931309 54.20618333 -0.1087102 46.82087561 -0.09765625 39.43554688 C-0.07630199 26.29032627 -0.04262504 13.14516799 0 0 Z " fill="#ED836D" transform="translate(6,98)"/>
<path d="M0 0 C0.33 0 0.66 0 1 0 C1.04939662 3.95096978 1.08571755 7.9018203 1.10986328 11.85302734 C1.12488107 13.8591136 1.15028981 15.86511324 1.17578125 17.87109375 C1.18222656 19.12792969 1.18867187 20.38476562 1.1953125 21.6796875 C1.20578613 22.84226074 1.21625977 24.00483398 1.22705078 25.20263672 C1 28 1 28 -1 30 C-3 30.6875 -3 30.6875 -5 31 C-5.66 30.67 -6.32 30.34 -7 30 C-7.66 30.99 -8.32 31.98 -9 33 C-12.25369313 34.34635578 -14.63882691 33.72674013 -18 33 C-19.15811388 34.05270463 -19.15811388 34.05270463 -20 36 C-20.99 36 -21.98 36 -23 36 C-23.99 36.66 -24.98 37.32 -26 38 C-26 30.41 -26 22.82 -26 15 C-25.34 16.32 -24.68 17.64 -24 19 C-22.948125 18.67 -21.89625 18.34 -20.8125 18 C-17.53211506 17.13957116 -15.30888823 17 -12 17 C-9.98777953 16.3711811 -7.98723268 15.70381157 -6 15 C-4.35 14.67 -2.7 14.34 -1 14 C-0.67 9.38 -0.34 4.76 0 0 Z " fill="#DC4C5C" transform="translate(33,147)"/>
<path d="M0 0 C-0.99 0.33 -1.98 0.66 -3 1 C-1.58654524 4.41584899 0.03347106 5.86780732 3 8 C3.99 9.485 3.99 9.485 5 11 C6.1200042 11.78805115 7.26877416 12.53619755 8.4375 13.25 C13.29179576 16.58039002 14.17930862 20.53792585 16 26 C25.9 25.505 25.9 25.505 36 25 C36 25.33 36 25.66 36 26 C30.81977595 27.04947813 25.82333941 27.18338676 20.5625 27.1875 C19.74201172 27.19974609 18.92152344 27.21199219 18.07617188 27.22460938 C12.96269294 27.23685234 8.86198861 26.55509876 4 25 C3.01 25 2.02 25 1 25 C-1.50457351 22.49542649 -3.53468808 20.08572781 -4.9375 16.8125 C-5.288125 16.214375 -5.63875 15.61625 -6 15 C-6.66 14.855625 -7.32 14.71125 -8 14.5625 C-8.66 14.376875 -9.32 14.19125 -10 14 C-11.25 11.4375 -11.25 11.4375 -12 9 C-12.66 9 -13.32 9 -14 9 C-14 8.34 -14 7.68 -14 7 C-15.32 7 -16.64 7 -18 7 C-18.66 5.35 -19.32 3.7 -20 2 C-6.3667426 -0.29612756 -6.3667426 -0.29612756 0 0 Z " fill="#F77D44" transform="translate(210,281)"/>
<path d="M0 0 C1.175625 0.5259375 1.175625 0.5259375 2.375 1.0625 C3.674375 1.5265625 3.674375 1.5265625 5 2 C5.66 1.67 6.32 1.34 7 1 C8.83984375 1.55859375 8.83984375 1.55859375 10.9375 2.4375 C13.62355636 3.55710854 15.02331385 4 18 4 C18.66 4 19.32 4 20 4 C20.66 4.66 21.32 5.32 22 6 C26.62867915 7.74861212 31.04022786 9 36 9 C36.66 9.66 37.32 10.32 38 11 C38.66 10.34 39.32 9.68 40 9 C40.680625 10.175625 40.680625 10.175625 41.375 11.375 C42.88428742 14.03698031 42.88428742 14.03698031 45 16 C45.66 16 46.32 16 47 16 C47.66 16.99 48.32 17.98 49 19 C49.825 19.144375 50.65 19.28875 51.5 19.4375 C52.325 19.623125 53.15 19.80875 54 20 C55.15625 22.03515625 55.15625 22.03515625 56 24 C53.2697611 24.1083667 50.54385457 24.18746694 47.8125 24.25 C46.65911133 24.30027344 46.65911133 24.30027344 45.48242188 24.3515625 C41.44402077 24.42089127 39.53944799 24.36059745 36.08984375 22.0546875 C35.40019531 21.37664062 34.71054688 20.69859375 34 20 C33.2575 19.62875 32.515 19.2575 31.75 18.875 C30 18 30 18 29 16 C28.01 16 27.02 16 26 16 C25 15 24 14 23 13 C20.99427359 12.18553891 20.99427359 12.18553891 19 12 C18.01 12.495 18.01 12.495 17 13 C17 12.01 17 11.02 17 10 C16.34 10 15.68 10 15 10 C14.67 10.66 14.34 11.32 14 12 C13.38125 11.195625 12.7625 10.39125 12.125 9.5625 C10.25835959 6.96125481 10.25835959 6.96125481 8 6 C7.67 6.99 7.34 7.98 7 9 C6.34 8.01 5.68 7.02 5 6 C1.44327821 4.7811879 1.44327821 4.7811879 -2 4 C-1.34 2.68 -0.68 1.36 0 0 Z " fill="#FC9E43" transform="translate(128,285)"/>
<path d="M0 0 C6.875 0.875 6.875 0.875 8 2 C8.07226502 3.85287502 8.0838122 5.70833878 8.0625 7.5625 C8.05347656 8.57441406 8.04445313 9.58632812 8.03515625 10.62890625 C8.02355469 11.41136719 8.01195313 12.19382812 8 13 C7.34 12.67 6.68 12.34 6 12 C5.34 12.66 4.68 13.32 4 14 C3.01 14.33 2.02 14.66 1 15 C0.01 15.495 0.01 15.495 -1 16 C-1.33 16.99 -1.66 17.98 -2 19 C-2.99 19.33 -3.98 19.66 -5 20 C-5 19.34 -5 18.68 -5 18 C-5.66 18 -6.32 18 -7 18 C-7.33 18.99 -7.66 19.98 -8 21 C-8.66 21 -9.32 21 -10 21 C-10.33 21.66 -10.66 22.32 -11 23 C-13.3140622 23.73075648 -15.64828869 24.40138258 -18 25 C-18 26.98 -18 28.96 -18 31 C-18.33 31 -18.66 31 -19 31 C-19 22.42 -19 13.84 -19 5 C-18.67 5 -18.34 5 -18 5 C-17.67 6.65 -17.34 8.3 -17 10 C-14.56282742 9.72965366 -14.56282742 9.72965366 -12 9 C-11.34 8.01 -10.68 7.02 -10 6 C-8.68 6 -7.36 6 -6 6 C-2.78756524 4.29735213 -2.78756524 4.29735213 0 2 C0 1.34 0 0.68 0 0 Z " fill="#B73687" transform="translate(26,97)"/>
<path d="M0 0 C3.63 0 7.26 0 11 0 C11 0.66 11 1.32 11 2 C11.99 1.67 12.98 1.34 14 1 C17.016401 0.77249859 20.03834794 0.81018375 23.0625 0.8125 C23.92141846 0.81185547 24.78033691 0.81121094 25.6652832 0.81054688 C30.93903596 0.85451563 35.80016528 1.28193241 40.93359375 2.55859375 C43.10347488 3.02210333 45.03500014 3.09976168 47.25 3.0625 C50.66891161 3.00551814 53.65816642 3.33163328 57 4 C57 4.66 57 5.32 57 6 C57.598125 5.67 58.19625 5.34 58.8125 5 C61 4 61 4 64 4 C64.495 4.99 64.495 4.99 65 6 C66.32 6 67.64 6 69 6 C69.495 6.495 69.495 6.495 70 7 C72.32817964 7.36760731 74.6618385 7.70241581 77 8 C77 8.33 77 8.66 77 9 C71.24237776 9.07551361 65.48505861 9.12922825 59.72705078 9.16479492 C57.77810634 9.17965894 55.82919392 9.19995603 53.88037109 9.22631836 C35.15759716 9.47279783 17.43918567 8.30482446 0 1 C0 0.67 0 0.34 0 0 Z " fill="#FAB657" transform="translate(57,300)"/>
<path d="M0 0 C0.18451025 10.55808656 0.18451025 10.55808656 -1 15 C-1.5775 14.649375 -2.155 14.29875 -2.75 13.9375 C-5.40158116 12.83267452 -6.32733014 13.19819904 -9 14 C-9.66 13.67 -10.32 13.34 -11 13 C-11.33 13.99 -11.66 14.98 -12 16 C-13.32 15.01 -14.64 14.02 -16 13 C-16.33 14.32 -16.66 15.64 -17 17 C-19.3260857 17.38063221 -21.66055264 17.71269945 -24 18 C-24.33 17.67 -24.66 17.34 -25 17 C-25.33 18.65 -25.66 20.3 -26 22 C-26.33 22 -26.66 22 -27 22 C-27.05423638 20.08364783 -27.09289963 18.16685075 -27.125 16.25 C-27.14820313 15.18265625 -27.17140625 14.1153125 -27.1953125 13.015625 C-27.00487687 10.07529894 -26.52670104 8.47638122 -25 6 C-23.68 6.33 -22.36 6.66 -21 7 C-21.33 6.67 -21.66 6.34 -22 6 C-20 4 -20 4 -17.72265625 3.91015625 C-15.95166363 4.01157873 -14.18082558 4.11573807 -12.41015625 4.22265625 C-9.45351741 3.94951457 -8.98743847 3.07408429 -7 1 C-5.68 1 -4.36 1 -3 1 C-1 0 -1 0 0 0 Z " fill="#E25653" transform="translate(34,175)"/>
<path d="M0 0 C0.99 0.33 1.98 0.66 3 1 C5.63804589 0.60602665 5.63804589 0.60602665 8 0 C8.99 2.97 9.98 5.94 11 9 C9.02 9.99 9.02 9.99 7 11 C6.01 10.67 5.02 10.34 4 10 C3.67 10.66 3.34 11.32 3 12 C2.01 12.495 2.01 12.495 1 13 C1 12.34 1 11.68 1 11 C0.401875 11.495 -0.19625 11.99 -0.8125 12.5 C-3 14 -3 14 -6 14 C-6.33 14.66 -6.66 15.32 -7 16 C-9.76276177 15.47731534 -12.3260876 14.89130413 -15 14 C-17.29013653 10.5647952 -17.17842973 9.014669 -17 5 C-16.01 5 -15.02 5 -14 5 C-13.030625 4.484375 -12.06125 3.96875 -11.0625 3.4375 C-7.6653407 1.84291502 -7.34679994 2.10752002 -4 3 C-2.65210653 2.01971384 -1.31787285 1.02028865 0 0 Z " fill="#F47938" transform="translate(27,229)"/>
<path d="M0 0 C2.0625 0.4375 2.0625 0.4375 4 1 C3.01 1 2.02 1 1 1 C2.22667763 4.14314692 2.22667763 4.14314692 5 5.875 C7.96149467 7.54084075 8.06214039 9.85147131 9 13 C9.66 13.33 10.32 13.66 11 14 C11.66666667 15.33333333 12.33333333 16.66666667 13 18 C13.66 18.33 14.32 18.66 15 19 C15 20.65 15 22.3 15 24 C12.69 24.33 10.38 24.66 8 25 C7.37465287 23.74930575 6.78464966 22.47957 6.25 21.1875 C4.56922196 18.24613842 2.53586054 16.23397238 0 14 C-0.680625 13.87625 -1.36125 13.7525 -2.0625 13.625 C-5.03090913 12.66744867 -5.68335444 10.35481774 -7.05078125 7.72265625 C-8.10836707 5.80333384 -9.332059 4.41774985 -11 3 C-7.57910017 0.89483087 -4.95715833 0.91206315 -1 1 C-0.67 0.67 -0.34 0.34 0 0 Z " fill="#F36147" transform="translate(238,279)"/>
<path d="M0 0 C4.56248659 -0.02906612 9.1249493 -0.04682113 13.6875 -0.0625 C14.98107422 -0.07087891 16.27464844 -0.07925781 17.60742188 -0.08789062 C19.47817383 -0.09272461 19.47817383 -0.09272461 21.38671875 -0.09765625 C22.53358154 -0.10289307 23.68044434 -0.10812988 24.86206055 -0.11352539 C27.70263777 -0.01075807 30.24043792 0.34683584 33 1 C32.67 1.66 32.34 2.32 32 3 C28.97253125 3.07040625 26.41615492 3.12484648 23.5 2.25 C19.70106603 1.8701066 17.9507433 3.73985619 15 6 C14.2575 6.53625 13.515 7.0725 12.75 7.625 C10.89161095 9.02895891 10.89161095 9.02895891 9 11 C4.88373998 11.66391291 1.17151171 12 -3 12 C-5.20067421 12.93283296 -5.20067421 12.93283296 -7 14 C-7.66 12.68 -8.32 11.36 -9 10 C-9.66 10 -10.32 10 -11 10 C-11.33 10.66 -11.66 11.32 -12 12 C-13.66666667 12 -15.33333333 12 -17 12 C-16.67 11.01 -16.34 10.02 -16 9 C-9.375 8 -9.375 8 -6 8 C-5.030625 7.46375 -4.06125 6.9275 -3.0625 6.375 C0 5 0 5 2.375 5.8125 C2.91125 6.204375 3.4475 6.59625 4 7 C5.65 5.35 7.3 3.7 9 2 C8.01 1.67 7.02 1.34 6 1 C5.67 1.66 5.34 2.32 5 3 C5 2.34 5 1.68 5 1 C3.35 1 1.7 1 0 1 C0 0.67 0 0.34 0 0 Z " fill="#A235AB" transform="translate(175,0)"/>
<path d="M0 0 C-0.33 0.99 -0.66 1.98 -1 3 C-3.47739354 3.90837763 -5.33579484 4 -8 4 C-9.33841672 4.31229724 -10.67139075 4.64830932 -12 5 C-12.845625 5.12375 -13.69125 5.2475 -14.5625 5.375 C-17.07326465 5.79100854 -17.07326465 5.79100854 -18.5625 7.625 C-19.036875 8.07875 -19.51125 8.5325 -20 9 C-22.0625 8.5625 -22.0625 8.5625 -24 8 C-24.66 8.66 -25.32 9.32 -26 10 C-28.58064129 10.14497985 -31.04943884 10.18677545 -33.625 10.125 C-34.33140625 10.11597656 -35.0378125 10.10695313 -35.765625 10.09765625 C-37.51056098 10.07407603 -39.25532295 10.03820461 -41 10 C-38 8 -38 8 -36 8 C-35.67 7.34 -35.34 6.68 -35 6 C-32.78515625 5.65625 -32.78515625 5.65625 -30.0625 5.5 C-26.05293771 5.40213614 -26.05293771 5.40213614 -23 3 C-23 3.66 -23 4.32 -23 5 C-22.01 4.34 -21.02 3.68 -20 3 C-18.34253767 2.6235594 -16.67371242 2.29593176 -15 2 C-11.90985788 1.18933934 -8.82503123 0.36141747 -5.7421875 -0.4765625 C-3 -1 -3 -1 0 0 Z " fill="#A832A5" transform="translate(182,17)"/>
<path d="M0 0 C0.33 0 0.66 0 1 0 C1.061875 1.051875 1.12375 2.10375 1.1875 3.1875 C2.1435758 7.67370183 3.34926013 9.28317033 7 12 C9.27523089 11.95502158 9.27523089 11.95502158 11 11 C11 12.65 11 14.3 11 16 C11.66 16 12.32 16 13 16 C13.33 15.01 13.66 14.02 14 13 C14.85329541 16.09319586 15 18.79336115 15 22 C17.97 21.67 20.94 21.34 24 21 C24 18.36 24 15.72 24 13 C24.33 13 24.66 13 25 13 C25 15.64 25 18.28 25 21 C25.33 20.34 25.66 19.68 26 19 C27.65 19 29.3 19 31 19 C28.31446345 21.94130194 26.33298357 22.88266667 22.29296875 23.23828125 C16.00335759 23.388599 11.83440786 23.4806707 7 19 C2.4342922 14.33197942 -0.09030511 10.26796404 -0.125 3.6875 C-0.08375 2.470625 -0.0425 1.25375 0 0 Z " fill="#CD529D" transform="translate(224,68)"/>
<path d="M0 0 C7.8978389 -0.13163065 7.8978389 -0.13163065 12 1 C14.52450339 1.12622517 16.52519014 1.15316447 18.9375 0.375 C21.97028147 -0.17641481 24.17884742 0.91000923 27 2 C27 2.99 27 3.98 27 5 C26.34 5 25.68 5 25 5 C24.67 5.66 24.34 6.32 24 7 C24 6.34 24 5.68 24 5 C23.40832031 5.08378906 22.81664062 5.16757813 22.20703125 5.25390625 C17.87418263 5.81229947 14.26663601 6.18517667 10 5 C8.6696875 4.7525 8.6696875 4.7525 7.3125 4.5 C5 4 5 4 3 3 C2.67 3.66 2.34 4.32 2 5 C1.01 4.01 0.02 3.02 -1 2 C-0.67 1.34 -0.34 0.68 0 0 Z " fill="#CC3181" transform="translate(118,99)"/>
<path d="M0 0 C0.66 0.33 1.32 0.66 2 1 C2 1.66 2 2.32 2 3 C2.66 3 3.32 3 4 3 C4.33 2.01 4.66 1.02 5 0 C5.4125 0.474375 5.825 0.94875 6.25 1.4375 C8.182185 3.16266518 9.48192275 3.56584875 12 4 C12.33 5.32 12.66 6.64 13 8 C11.8553125 8.1546875 11.8553125 8.1546875 10.6875 8.3125 C7.82940576 9.04364039 6.84257115 9.76951913 5 12 C4.38125 11.67 3.7625 11.34 3.125 11 C1.08981656 9.85806765 1.08981656 9.85806765 -1 10 C-1.33 7.03 -1.66 4.06 -2 1 C-1.34 0.67 -0.68 0.34 0 0 Z " fill="#DD3075" transform="translate(213,137)"/>
<path d="M0 0 C1.53125 1.0703125 1.53125 1.0703125 2.53125 3.0703125 C-4.21875 3.1953125 -4.21875 3.1953125 -6.46875 2.0703125 C-6.46875 3.0603125 -6.46875 4.0503125 -6.46875 5.0703125 C-8.11875 5.7303125 -9.76875 6.3903125 -11.46875 7.0703125 C-11.13875 5.0903125 -10.80875 3.1103125 -10.46875 1.0703125 C-12.5432856 -0.1532943 -12.5432856 -0.1532943 -15.46875 0.0703125 C-18.58660113 0.71675911 -18.58660113 0.71675911 -19.46875 3.0703125 C-22.53125 3.6953125 -22.53125 3.6953125 -25.46875 4.0703125 C-17.94922675 -4.09374131 -9.73025837 -5.21263841 0 0 Z " fill="#C5319B" transform="translate(254.46875,55.9296875)"/>
<path d="M0 0 C1.11375 0.185625 2.2275 0.37125 3.375 0.5625 C6.82568861 1.31680657 6.82568861 1.31680657 9 0 C9.33 2.97 9.66 5.94 10 9 C5.545 9.495 5.545 9.495 1 10 C1 9.34 1 8.68 1 8 C0.01 7.67 -0.98 7.34 -2 7 C-1.34 7 -0.68 7 0 7 C0 4.69 0 2.38 0 0 Z " fill="#CB2F8C" transform="translate(238,80)"/>
<path d="M0 0 C2.31 0.33 4.62 0.66 7 1 C7.495 2.485 7.495 2.485 8 4 C4.39736302 5.59528935 1.19909482 6.38063215 -2.7109375 6.81640625 C-3.79117188 6.94080078 -4.87140625 7.06519531 -5.984375 7.19335938 C-7.10328125 7.31517578 -8.2221875 7.43699219 -9.375 7.5625 C-11.59121694 7.81317419 -13.80736482 8.06445989 -16.0234375 8.31640625 C-17.05823242 8.43258301 -18.09302734 8.54875977 -19.15917969 8.66845703 C-22.45044162 9.05256959 -25.72389348 9.50433547 -29 10 C-29 9.34 -29 8.68 -29 8 C-23.68468311 6.22589949 -19.14381195 5.7422332 -13.5625 5.875 C-12.46518555 5.88853516 -12.46518555 5.88853516 -11.34570312 5.90234375 C-9.56365702 5.92563847 -7.78178241 5.9614981 -6 6 C-5.67 5.01 -5.34 4.02 -5 3 C-3.67696283 2.6278958 -2.34262065 2.29369827 -1 2 C-0.67 1.34 -0.34 0.68 0 0 Z " fill="#B26FB4" transform="translate(104,23)"/>
<path d="M0 0 C0.9075 0.0825 1.815 0.165 2.75 0.25 C2.42 1.24 2.09 2.23 1.75 3.25 C0.0864521 3.92441131 -1.58066942 4.5900321 -3.25 5.25 C-3.848125 5.95125 -4.44625 6.6525 -5.0625 7.375 C-7.53265361 9.49227453 -8.18316217 9.53394765 -11.3125 9.5625 C-15.25 9.25 -15.25 9.25 -18.25 8.25 C-18.9375 6.1875 -18.9375 6.1875 -19.25 4.25 C-18.02023438 4.31960937 -18.02023438 4.31960937 -16.765625 4.390625 C-15.68796875 4.42671875 -14.6103125 4.4628125 -13.5 4.5 C-11.89898437 4.56960937 -11.89898437 4.56960937 -10.265625 4.640625 C-5.50554585 4.02403444 -4.75926316 0.36609717 0 0 Z " fill="#A035A4" transform="translate(127.25,17.75)"/>
<path d="M0 0 C2.38875097 3.58312645 2.93657499 6.90027799 3.625 11.0625 C3.75688721 11.84802246 3.88877441 12.63354492 4.0246582 13.44287109 C5.33354575 21.96629268 5.27440574 30.40195348 5 39 C2.83784995 35.75677493 2.70841218 34.58997083 2.5 30.8125 C2.07440288 24.44401944 1.27161478 18.17903882 0.40234375 11.859375 C-0.01565207 7.8498617 -0.06710523 4.02631398 0 0 Z " fill="#C75FA8" transform="translate(310,61)"/>
<path d="M0 0 C0.33 0.99 0.66 1.98 1 3 C0.34 2.67 -0.32 2.34 -1 2 C-0.67 1.34 -0.34 0.68 0 0 Z M-5 2 C-2.875 2.375 -2.875 2.375 -1 3 C-1 3.66 -1 4.32 -1 5 C-5.38461538 8 -5.38461538 8 -8 8 C-7.42655063 5.13275314 -7.1385485 4.1385485 -5 2 Z M-10 5 C-9.34 6.32 -8.68 7.64 -8 9 C-10.77280706 12.08089673 -13.06326356 13.68775452 -17 15 C-17 14.01 -17 13.02 -17 12 C-16.01 11.67 -15.02 11.34 -14 11 C-13.26676204 8.98491642 -13.26676204 8.98491642 -13 7 C-12.34 7 -11.68 7 -11 7 C-10.67 6.34 -10.34 5.68 -10 5 Z " fill="#9C36A1" transform="translate(42,50)"/>
<path d="M0 0 C13.82862634 -0.25546702 27.2795411 0.22552956 41 2 C41 2.33 41 2.66 41 3 C39.52168779 3.19412181 38.04230684 3.38012131 36.5625 3.5625 C35.73878906 3.66691406 34.91507813 3.77132813 34.06640625 3.87890625 C33.04353516 3.93884766 33.04353516 3.93884766 32 4 C31.67 3.67 31.34 3.34 31 3 C28.71160855 2.77023576 26.41676164 2.60425678 24.12109375 2.46484375 C23.4344313 2.42186661 22.74776886 2.37888947 22.04029846 2.33460999 C19.8396088 2.19788088 17.63858913 2.06762427 15.4375 1.9375 C13.94854157 1.84612805 12.45960882 1.75433667 10.97070312 1.66210938 C7.3140879 1.43653229 3.65714968 1.21675971 0 1 C0 0.67 0 0.34 0 0 Z " fill="#B888B9" transform="translate(203,0)"/>
<path d="M0 0 C-3.25179812 2.21713508 -6.4213696 4.34832443 -10 6 C-10.33 5.67 -10.66 5.34 -11 5 C-14.09801155 4.93955099 -17.18007003 4.97938478 -20.27734375 5.0390625 C-23.99616104 5.08289925 -27.38559511 4.89659656 -31 4 C-31 3.67 -31 3.34 -31 3 C-30.42894531 3.02320313 -29.85789063 3.04640625 -29.26953125 3.0703125 C-20.99883097 3.25439804 -12.58885706 2.59182841 -4.734375 -0.1328125 C-2 -1 -2 -1 0 0 Z " fill="#DF908B" transform="translate(183,202)"/>
<path d="M0 0 C2.75 1.375 2.75 1.375 5 3 C3.63016497 6.16115776 3.0109362 6.9927092 0 9 C-0.99 8.67 -1.98 8.34 -3 8 C-3.33 6.02 -3.66 4.04 -4 2 C-2.3125 0.8125 -2.3125 0.8125 0 0 Z " fill="#C82E8F" transform="translate(230,70)"/>
<path d="M0 0 C0.33 0.66 0.66 1.32 1 2 C1.66 2 2.32 2 3 2 C3.33 1.34 3.66 0.68 4 0 C4.66 0.66 5.32 1.32 6 2 C9.59679066 1.67673447 9.59679066 1.67673447 13 1 C13 1.99 13 2.98 13 4 C10.49280976 5.95003686 8.9762116 7.08135097 5.75 6.8125 C4 6 4 6 3 4 C2.01 4.33 1.02 4.66 0 5 C0 3.35 0 1.7 0 0 Z " fill="#FB9A3B" transform="translate(35,272)"/>
<path d="M0 0 C3.90178666 3.25148888 5.10225189 6.02157866 6 11 C5.86930785 14.03980269 5.5032767 17.00074289 5 20 C4.67 20 4.34 20 4 20 C3.95101563 19.14535156 3.90203125 18.29070312 3.8515625 17.41015625 C3.77679688 16.30542969 3.70203125 15.20070313 3.625 14.0625 C3.52058594 12.40927734 3.52058594 12.40927734 3.4140625 10.72265625 C3.27742188 9.82417969 3.14078125 8.92570312 3 8 C2.34 7.67 1.68 7.34 1 7 C1 6.01 1 5.02 1 4 C0.01 3.67 -0.98 3.34 -2 3 C-2 2.34 -2 1.68 -2 1 C-1.34 0.67 -0.68 0.34 0 0 Z " fill="#CE7FB6" transform="translate(257,59)"/>
<path d="M0 0 C0.33 0 0.66 0 1 0 C1.03758423 0.86782104 1.03758423 0.86782104 1.07592773 1.75317383 C1.70624464 16.89947476 1.70624464 16.89947476 3 32 C-0.1342025 27.29869625 -1.27906771 23.91856611 -0.9765625 18.26171875 C-0.925 17.19501953 -0.8734375 16.12832031 -0.8203125 15.02929688 C-0.75585938 13.92650391 -0.69140625 12.82371094 -0.625 11.6875 C-0.56828125 10.56537109 -0.5115625 9.44324219 -0.453125 8.28710938 C-0.31203308 5.52405926 -0.16065719 2.76197015 0 0 Z " fill="#DFBBAB" transform="translate(35,203)"/>
<path d="M0 0 C8.13544686 -0.28545428 15.97649696 0.81603117 24 2 C24 2.33 24 2.66 24 3 C7.29157175 3.18451025 7.29157175 3.18451025 -1 2 C-0.67 1.34 -0.34 0.68 0 0 Z " fill="#E2C091" transform="translate(83,306)"/>
<path d="M0 0 C0.33 0 0.66 0 1 0 C1 2.64 1 5.28 1 8 C1.33 7.34 1.66 6.68 2 6 C3.65 6 5.3 6 7 6 C4.26238156 8.998344 2.28685845 9.92409477 -1.84765625 10.16796875 C-2.90855469 10.17441406 -3.96945313 10.18085937 -5.0625 10.1875 C-6.12597656 10.20167969 -7.18945312 10.21585938 -8.28515625 10.23046875 C-11 10 -11 10 -13 8 C-8.71 8 -4.42 8 0 8 C0 5.36 0 2.72 0 0 Z " fill="#CC73A9" transform="translate(248,81)"/>
<path d="M0 0 C0 0.66 0 1.32 0 2 C0.66 2.33 1.32 2.66 2 3 C1.01 3.66 0.02 4.32 -1 5 C-0.34 5.33 0.32 5.66 1 6 C1.33 6.66 1.66 7.32 2 8 C-0.76276177 7.47731534 -3.3260876 6.89130413 -6 6 C-6 4.35 -6 2.7 -6 1 C-3 0 -3 0 0 0 Z " fill="#F66A3E" transform="translate(137,222)"/>
<path d="M0 0 C0.66 0.66 1.32 1.32 2 2 C2.66 1.67 3.32 1.34 4 1 C4.33 1.99 4.66 2.98 5 4 C4.67 4.66 4.34 5.32 4 6 C4.70125 6.12375 5.4025 6.2475 6.125 6.375 C9.17656387 7.03838345 12.05340938 7.97211955 15 9 C12.18604713 10.12150295 11.00200428 10.00062999 8.0546875 9.07421875 C7.00539062 8.61660156 5.95609375 8.15898437 4.875 7.6875 C3.82054687 7.23761719 2.76609375 6.78773438 1.6796875 6.32421875 C-1 5 -1 5 -3 3 C-2.01 3 -1.02 3 0 3 C0 2.01 0 1.02 0 0 Z " fill="#E4987D" transform="translate(127,222)"/>
<path d="M0 0 C0.99 0 1.98 0 3 0 C3 0.66 3 1.32 3 2 C5.97 2 8.94 2 12 2 C12.33 2.66 12.66 3.32 13 4 C11.75 5.5 11.75 5.5 10 7 C6 7 6 7 4.4375 5.5625 C3.963125 5.046875 3.48875 4.53125 3 4 C2.01 3.67 1.02 3.34 0 3 C0 2.01 0 1.02 0 0 Z " fill="#EB534D" transform="translate(87,179)"/>
<path d="M0 0 C1.1484375 1.703125 1.1484375 1.703125 2 4 C1.1015625 6.359375 1.1015625 6.359375 -0.375 8.75 C-0.85710937 9.54921875 -1.33921875 10.3484375 -1.8359375 11.171875 C-2.22007812 11.77515625 -2.60421875 12.3784375 -3 13 C-4.04702186 9.2735915 -4.07442057 5.86986958 -4 2 C-2.68 2.33 -1.36 2.66 0 3 C0 2.01 0 1.02 0 0 Z " fill="#E0648A" transform="translate(304,258)"/>
<path d="M0 0 C3.11944532 2.26868751 3.83598349 5.06205884 4.66015625 8.7265625 C5.2222951 12.48707755 5.15794996 16.209201 5 20 C4.67 20 4.34 20 4 20 C0.74031891 6.3667426 0.74031891 6.3667426 0 0 Z " fill="#D983A6" transform="translate(207,130)"/>
<path d="M0 0 C3.89839291 5.84758937 4.29973431 13.10611082 4 20 C0.31068662 13.67546278 -0.25454902 7.12737257 0 0 Z " fill="#C981B5" transform="translate(310,61)"/>
<path d="M0 0 C0 0.33 0 0.66 0 1 C-1.2375 1.12375 -2.475 1.2475 -3.75 1.375 C-6.86247204 1.76612481 -9.35647058 2.20239999 -12 4 C-12.33 4.66 -12.66 5.32 -13 6 C-16.0625 6.625 -16.0625 6.625 -19 7 C-12.93907273 0.41956468 -8.60179724 -0.33732538 0 0 Z " fill="#CA83B4" transform="translate(248,53)"/>
<path d="M0 0 C3.95431169 4.39367965 6.86631108 9.49527743 9 15 C8.67 15.66 8.34 16.32 8 17 C5.49387834 15.74693917 5.11615658 14.66521628 3.875 12.1875 C3.52179688 11.50042969 3.16859375 10.81335937 2.8046875 10.10546875 C2 8 2 8 2 4 C1.34 4 0.68 4 0 4 C0 2.68 0 1.36 0 0 Z " fill="#C373B6" transform="translate(299,37)"/>
<path d="M0 0 C6.49142565 0.42335385 11.33492989 2.91099799 17 6 C15 7 15 7 11.5234375 6.00390625 C10.13802064 5.53099953 8.75528453 5.05018356 7.375 4.5625 C6.66859375 4.31951172 5.9621875 4.07652344 5.234375 3.82617188 C3.48726713 3.22412795 1.74332214 2.61291983 0 2 C0 1.34 0 0.68 0 0 Z " fill="#CF85B1" transform="translate(182,78)"/>
<path d="M0 0 C0.845625 0.598125 1.69125 1.19625 2.5625 1.8125 C5.88399232 4.0400402 9.29204553 5.51681821 13 7 C10.2465397 8.05902319 8.87061485 7.97095435 5.9375 7.3125 C2.81943743 5.91932311 1.6546866 4.94166507 0 2 C0 1.34 0 0.68 0 0 Z " fill="#E33469" transform="translate(217,167)"/>
<path d="M0 0 C0.33 0.99 0.66 1.98 1 3 C2.98 3 4.96 3 7 3 C2.52281208 5.98479194 -1.63824093 7 -7 7 C-7 6.34 -7 5.68 -7 5 C-3.535 4.505 -3.535 4.505 0 4 C0 2.68 0 1.36 0 0 Z " fill="#E38A7C" transform="translate(253,299)"/>
<path d="M0 0 C0.66 0.33 1.32 0.66 2 1 C-1.08993314 4.35478456 -3.53194683 6.79241806 -8 8 C-8.66 7.67 -9.32 7.34 -10 7 C-6.7 4.69 -3.4 2.38 0 0 Z " fill="#CC78A9" transform="translate(122,84)"/>
<path d="M0 0 C6.43681228 0.51085812 11.95942424 1.72942897 18 4 C18 4.33 18 4.66 18 5 C10.25 5.125 10.25 5.125 8 4 C8 3.34 8 2.68 8 2 C5.36 1.67 2.72 1.34 0 1 C0 0.67 0 0.34 0 0 Z " fill="#BB82BC" transform="translate(244,3)"/>
<path d="M0 0 C3.63 0 7.26 0 11 0 C11.33 0.99 11.66 1.98 12 3 C8.69564916 4.12377697 6.9493138 3.89554742 3.75 2.5625 C3.04359375 2.27503906 2.3371875 1.98757813 1.609375 1.69140625 C1.07828125 1.46324219 0.5471875 1.23507812 0 1 C0 0.67 0 0.34 0 0 Z " fill="#ECBB79" transform="translate(57,300)"/>
<path d="M0 0 C4.31392226 0.4793247 6.16569547 1.7457985 9 5 C5.625 5.125 5.625 5.125 2 5 C1.34 4.34 0.68 3.68 0 3 C0 2.01 0 1.02 0 0 Z " fill="#C761AC" transform="translate(248,54)"/>
<path d="M0 0 C1.96470837 3.50840781 2.9276928 7.13969407 4 11 C4.33 11.66 4.66 12.32 5 13 C4.0625 15.125 4.0625 15.125 3 17 C-0.44419134 5.47835991 -0.44419134 5.47835991 0 0 Z " fill="#D89A9B" transform="translate(82,164)"/>
<path d="M0 0 C2.475 0.99 2.475 0.99 5 2 C4.01 2.495 4.01 2.495 3 3 C3 3.66 3 4.32 3 5 C2.34 5 1.68 5 1 5 C0.67 5.66 0.34 6.32 0 7 C-0.38133299 5.0085944 -0.71325582 3.00720923 -1 1 C-0.67 0.67 -0.34 0.34 0 0 Z " fill="#FB993B" transform="translate(52,271)"/>
<path d="M0 0 C-0.33 1.32 -0.66 2.64 -1 4 C-3.02045442 3.39816251 -5.02111039 2.72693904 -7 2 C-7.33 1.34 -7.66 0.68 -8 0 C-4.71023192 -1.09658936 -3.28696233 -0.79953138 0 0 Z " fill="#EC8C6A" transform="translate(125,221)"/>
<path d="M0 0 C2.22825644 2.22825644 2.69239369 3.65761628 3.625 6.625 C4.01558594 7.85089844 4.01558594 7.85089844 4.4140625 9.1015625 C4.60742188 9.72804687 4.80078125 10.35453125 5 11 C4.01 10.67 3.02 10.34 2 10 C0.47839986 6.3962102 0 3.94779314 0 0 Z " fill="#E09190" transform="translate(112,170)"/>
<path d="M0 0 C2.64 0 5.28 0 8 0 C8 0.99 8 1.98 8 3 C5.03 3 2.06 3 -1 3 C-0.67 2.01 -0.34 1.02 0 0 Z " fill="#A349A6" transform="translate(99,26)"/>
<path d="M0 0 C3.93673644 1.31224548 6.22719294 2.91910327 9 6 C3.50847458 5.38983051 3.50847458 5.38983051 1.125 3.5625 C0 2 0 2 0 0 Z " fill="#C17EBF" transform="translate(273,13)"/>
<path d="M0 0 C3.91211733 1.15585285 6.8745041 2.35534962 10 5 C8.1875 5.625 8.1875 5.625 6 6 C5.01 5.34 4.02 4.68 3 4 C3 3.34 3 2.68 3 2 C1.68 1.67 0.36 1.34 -1 1 C-0.67 0.67 -0.34 0.34 0 0 Z " fill="#BF81C0" transform="translate(263,8)"/>
<path d="M0 0 C5.57142857 5.14285714 5.57142857 5.14285714 6 9 C5.34 9 4.68 9 4 9 C0.88002198 5.69649386 0 4.67590167 0 0 Z " fill="#E33469" transform="translate(293,242)"/>
<path d="M0 0 C0.33 0.66 0.66 1.32 1 2 C1.66 2.33 2.32 2.66 3 3 C3 3.99 3 4.98 3 6 C1.68 6 0.36 6 -1 6 C-1.625 4.125 -1.625 4.125 -2 2 C-1.34 1.34 -0.68 0.68 0 0 Z " fill="#DC4065" transform="translate(91,143)"/>
<path d="M0 0 C2.875 -0.1875 2.875 -0.1875 6 0 C6.66 0.99 7.32 1.98 8 3 C7.67 3.66 7.34 4.32 7 5 C4.11562221 3.70700306 2.12780579 2.34058637 0 0 Z " fill="#E9967B" transform="translate(110,216)"/>
</svg>
