<?xml version="1.0" encoding="UTF-8"?>
<svg version="1.1" xmlns="http://www.w3.org/2000/svg" width="195" height="195">
<path d="M0 0 C1.49133568 1.21437334 2.97011167 2.44429599 4.4375 3.6875 C5.2625 4.3784375 6.0875 5.069375 6.9375 5.78125 C24.98020007 21.40358786 37.88788779 44.78567801 39.66943359 68.81591797 C40.9155419 95.92761829 35.35821223 120.53518392 17.4375 141.6875 C16.7465625 142.5125 16.055625 143.3375 15.34375 144.1875 C-0.27858786 162.23020007 -23.66067801 175.13788779 -47.69091797 176.91943359 C-74.80261829 178.1655419 -99.41018392 172.60821223 -120.5625 154.6875 C-121.3875 153.9965625 -122.2125 153.305625 -123.0625 152.59375 C-141.10520007 136.97141214 -154.01288779 113.58932199 -155.79443359 89.55908203 C-157.0405419 62.44738171 -151.48321223 37.83981608 -133.5625 16.6875 C-132.8715625 15.8625 -132.180625 15.0375 -131.46875 14.1875 C-98.95969897 -23.35816457 -39.83631895 -30.26162474 0 0 Z " fill="#FA5823" transform="translate(155.5625,18.3125)"/>
<path d="M0 0 C7.98198051 5.66256734 11.94938287 13.99061202 13.94921875 23.3828125 C14.01470367 24.96492823 14.03500256 26.54951331 14.01171875 28.1328125 C14.00269531 28.93203125 13.99367188 29.73125 13.984375 30.5546875 C13.97277344 31.15796875 13.96117188 31.76125 13.94921875 32.3828125 C15.25125244 32.36710205 15.25125244 32.36710205 16.57958984 32.35107422 C19.79621403 32.31701534 23.01274642 32.29192483 26.22949219 32.27294922 C27.62242656 32.26288373 29.01533977 32.24923016 30.40820312 32.23193359 C32.40876235 32.2077103 34.4094749 32.19740436 36.41015625 32.1875 C38.21685791 32.17178955 38.21685791 32.17178955 40.06005859 32.15576172 C42.94921875 32.3828125 42.94921875 32.3828125 44.94921875 34.3828125 C46.19328794 48.27394131 44.3775928 62.71828168 43.4050293 76.57885742 C43.13515655 80.46782444 42.8846728 84.35775193 42.63476562 88.24804688 C42.46341771 90.74226871 42.29093245 93.23641274 42.1171875 95.73046875 C42.00917061 97.45874657 42.00917061 97.45874657 41.89897156 99.22193909 C41.36716937 106.45218873 40.70165247 113.02828391 35.94921875 118.8203125 C31.99154977 121.91224139 27.85383879 121.54282846 23.06884766 121.55981445 C22.26689468 121.56638565 21.46494171 121.57295685 20.63868713 121.57972717 C17.98438422 121.59944091 15.33013778 121.61111727 12.67578125 121.62109375 C11.3157152 121.62720704 11.3157152 121.62720704 9.92817307 121.63344383 C5.13082863 121.65429443 0.33351274 121.66860161 -4.46386719 121.67797852 C-9.41944433 121.68905254 -14.37457364 121.72346668 -19.32999229 121.76315022 C-23.14070474 121.789285 -26.95130984 121.79766746 -30.76210403 121.80125999 C-32.58895524 121.80613256 -34.41580145 121.8177656 -36.24256516 121.83629799 C-38.7992796 121.86062744 -41.35482651 121.85973627 -43.91162109 121.8527832 C-44.66504288 121.86559326 -45.41846466 121.87840332 -46.19471741 121.89160156 C-51.11249767 121.84288199 -53.6017139 120.88327656 -57.05078125 117.3828125 C-60.60710806 112.12858141 -60.76090931 106.70632861 -61.18359375 100.5546875 C-61.26567078 99.50004807 -61.3477478 98.44540863 -61.43231201 97.35881042 C-61.69344228 93.95099158 -61.93556015 90.54216406 -62.17578125 87.1328125 C-62.34739325 84.80669056 -62.51943113 82.48059999 -62.69189453 80.15454102 C-63.56338915 68.21834027 -64.39842319 56.27731317 -64.92578125 44.3203125 C-64.97492676 43.29583008 -65.02407227 42.27134766 -65.07470703 41.21582031 C-65.12087158 39.8579541 -65.12087158 39.8579541 -65.16796875 38.47265625 C-65.19487793 37.71847412 -65.22178711 36.96429199 -65.24951172 36.18725586 C-65.05078125 34.3828125 -65.05078125 34.3828125 -63.05078125 32.3828125 C-60.16162109 32.15576172 -60.16162109 32.15576172 -56.51171875 32.1875 C-54.55878906 32.19716797 -54.55878906 32.19716797 -52.56640625 32.20703125 C-51.1861953 32.22374321 -49.80598696 32.24067311 -48.42578125 32.2578125 C-47.03776673 32.26784244 -45.64974536 32.27696827 -44.26171875 32.28515625 C-40.85790099 32.30879387 -37.45442619 32.34174383 -34.05078125 32.3828125 C-33.99672119 31.58254639 -33.94266113 30.78228027 -33.88696289 29.95776367 C-33.76889282 28.36411987 -33.76889282 28.36411987 -33.6484375 26.73828125 C-33.53640991 25.16663208 -33.53640991 25.16663208 -33.42211914 23.56323242 C-32.30643352 14.00765285 -28.27177754 6.70628383 -21.05078125 0.3828125 C-14.38797341 -4.16067084 -6.80298254 -3.82250099 0 0 Z " fill="#FDFCFB" transform="translate(107.05078125,37.6171875)"/>
<path d="M0 0 C5.11894121 2.16133073 7.66670329 5.94877429 10.625 10.5 C12 14 12 14 14 27 C2.45 27 -9.1 27 -21 27 C-21 16.72775606 -18.86975505 9.28716263 -11.8125 1.625 C-7.84017594 -0.67012057 -4.48488713 -0.66987385 0 0 Z " fill="#FA5620" transform="translate(101,42)"/>
<path d="M0 0 C1.485 0.99 1.485 0.99 3 2 C2.67 2.99 2.34 3.98 2 5 C-0.23181756 4.50404054 -2.12226338 3.94061493 -4.1875 2.9375 C-9.22655567 1.25781478 -14.09779961 1.10960833 -18.9375 3.375 C-22.16992864 5.92176196 -22.91327183 6.52693725 -23.6875 10.75 C-23.60176903 13.53877814 -23.34433197 14.63536344 -21.41015625 16.68359375 C-16.24592145 20.27894709 -10.56411988 22.46886255 -4.74609375 24.78125 C0.25000827 26.99858119 3.89034137 29.83368043 6 35 C6.63100552 39.02515103 6.87495081 43.12119938 5.125 46.87890625 C1.46061981 51.68840525 -2.94807588 53.56211524 -8.6953125 54.38671875 C-17.06755173 54.87856048 -22.89537773 52.23254093 -30 48 C-30 46.68 -30 45.36 -30 44 C-26.00465792 44.57076315 -23.411827 45.90041415 -20 48 C-14.44329343 49.70975587 -8.95752619 49.78301048 -3.5625 47.625 C-0.95949159 46.10513982 -0.95949159 46.10513982 1 44 C1.68355648 38.20302303 1.68355648 38.20302303 -1 33.25 C-4.51272233 30.61545825 -8.0220214 28.82296892 -12 27 C-14.08961986 26.03432201 -16.17267629 25.05435249 -18.25 24.0625 C-19.74273437 23.36833984 -19.74273437 23.36833984 -21.265625 22.66015625 C-25.06487718 20.35346743 -27.51498545 17.95895488 -28.6015625 13.5703125 C-28.64678503 8.85209477 -28.34445365 5.74489365 -25.3125 2 C-17.92255678 -5.32103932 -8.86838694 -3.81323147 0 0 Z " fill="#FA5821" transform="translate(110,88)"/>
<path d="M0 0 C1 3 1 3 1 5 C-2.96 5 -6.92 5 -11 5 C-11.33 4.34 -11.66 3.68 -12 3 C-10.82630859 2.80083984 -10.82630859 2.80083984 -9.62890625 2.59765625 C-8.61699219 2.42105469 -7.60507813 2.24445313 -6.5625 2.0625 C-5.55316406 1.88847656 -4.54382813 1.71445313 -3.50390625 1.53515625 C-1.0712562 1.25248903 -1.0712562 1.25248903 0 0 Z " fill="#FA5F2D" transform="translate(103,137)"/>
<path d="M0 0 C-0.66 2.64 -1.32 5.28 -2 8 C-2.66 8 -3.32 8 -4 8 C-4.33 8.66 -4.66 9.32 -5 10 C-5.29296875 3.9453125 -5.29296875 3.9453125 -5 2 C-2 0 -2 0 0 0 Z " fill="#FA5116" transform="translate(87,93)"/>
<path d="M0 0 C0.495 0.144375 0.99 0.28875 1.5 0.4375 C4.97752922 1.21994407 8.45955123 1.58694764 12 2 C12 2.33 12 2.66 12 3 C6.06 3.495 6.06 3.495 0 4 C0 2.68 0 1.36 0 0 Z " fill="#FA4F0F" transform="translate(91,86)"/>
</svg>
