<?xml version="1.0" encoding="UTF-8"?>
<svg version="1.1" xmlns="http://www.w3.org/2000/svg" width="320" height="320">
<path d="M0 0 C0.88059586 -0.00570007 1.76119171 -0.01140015 2.66847229 -0.01727295 C4.52660949 -0.02667204 6.38476298 -0.03323653 8.24291992 -0.03710938 C11.02749369 -0.04674041 13.81130431 -0.07778179 16.59570312 -0.109375 C41.30137183 -0.25632781 67.30055807 5.31882296 88.3828125 18.78515625 C90.52272977 20.13609533 92.69323535 21.29448358 94.94140625 22.453125 C115.79408004 34.02982831 134.59535137 53.79296568 146.62890625 74.203125 C147.11488281 74.95207031 147.60085938 75.70101562 148.1015625 76.47265625 C156.03835927 88.8963888 161.4644663 102.84576659 165.07763672 117.09179688 C165.61004484 119.13088696 166.21032622 121.1392553 166.8203125 123.15625 C173.48589528 147.10370651 171.67508666 176.64144186 164.62890625 200.203125 C164.39896973 200.98333008 164.1690332 201.76353516 163.93212891 202.56738281 C162.41519023 207.55513731 160.63447538 212.39232734 158.62890625 217.203125 C158.34176758 217.89422363 158.05462891 218.58532227 157.75878906 219.29736328 C150.682056 235.97167647 140.93829337 250.92892635 128.62890625 264.203125 C128.10458008 264.7712793 127.58025391 265.33943359 127.04003906 265.92480469 C103.76200865 290.8527841 74.0199032 306.53771637 40.62890625 313.203125 C39.33267334 313.47237793 39.33267334 313.47237793 38.01025391 313.74707031 C29.42646376 315.37335016 20.9558321 315.60098851 12.25390625 315.578125 C11.5090094 315.57791351 10.76411255 315.57770203 9.99664307 315.57748413 C-2.79249378 315.54138562 -14.95204348 314.43714276 -27.37109375 311.203125 C-28.09876953 311.01588867 -28.82644531 310.82865234 -29.57617188 310.63574219 C-55.97440658 303.60511758 -79.45486554 289.46588696 -98.98583984 270.54150391 C-100.18035519 269.38740924 -101.39321457 268.25235642 -102.609375 267.12109375 C-109.41323825 260.64447041 -115.16851081 253.00699941 -120.37109375 245.203125 C-123.67962261 244.72705044 -123.67962261 244.72705044 -127.49609375 244.703125 C-135.16177926 244.36398365 -141.02703622 243.67253271 -146.80859375 238.203125 C-151.61210589 232.57950103 -151.19399858 225.61059774 -150.71435547 218.51708984 C-149.70118934 211.687226 -146.29130752 205.38669517 -143.37109375 199.203125 C-142.30604083 196.00796624 -142.41603712 195.15783741 -143.1484375 192.00390625 C-150.57181835 157.24898684 -147.21849759 121.18871074 -131.37109375 89.203125 C-130.89800781 88.20796875 -130.42492187 87.2128125 -129.9375 86.1875 C-124.85605873 75.68145519 -118.28861657 66.56906741 -111.37109375 57.203125 C-110.83871094 56.43613281 -110.30632812 55.66914062 -109.7578125 54.87890625 C-109.30019531 54.32589844 -108.84257813 53.77289063 -108.37109375 53.203125 C-107.71109375 53.203125 -107.05109375 53.203125 -106.37109375 53.203125 C-105.98824219 52.33107422 -105.98824219 52.33107422 -105.59765625 51.44140625 C-103.34983924 47.33949814 -99.7445729 44.38985799 -96.37109375 41.203125 C-95.47390625 40.35041016 -95.47390625 40.35041016 -94.55859375 39.48046875 C-69.35483457 16.50376588 -34.38820935 0.17734438 0 0 Z M5.50390625 122.265625 C-1.82308193 133.74457315 -2.81428278 145.9460339 -2.80859375 159.203125 C-2.80932892 159.94134491 -2.81006409 160.67956482 -2.81082153 161.44015503 C-2.77442854 175.30060732 -2.24896044 188.38767399 7.98046875 198.91796875 C13.00839525 202.83784509 20.65206597 201.6309152 26.62890625 201.203125 C40.72813413 198.44962873 53.52593893 191.09577938 64.62890625 182.203125 C65.44359375 181.56503906 66.25828125 180.92695313 67.09765625 180.26953125 C73.18189097 175.22975682 78.41811261 169.56521112 80.203125 161.66015625 C80.68765284 154.71525714 78.01224987 150.37181768 73.62890625 145.203125 C73.01015625 144.47351563 72.39140625 143.74390625 71.75390625 142.9921875 C59.42968882 129.68763459 40.13129711 118.38218008 21.85546875 116.9921875 C15.09658577 116.75662321 10.52791942 117.38937692 5.50390625 122.265625 Z " fill="#010101" transform="translate(150.37109375,2.796875)"/>
<path d="M0 0 C4.17162402 4.561091 7.36239448 9.85520466 10.63476562 15.07763672 C20.69739403 31.10253641 20.69739403 31.10253641 37.03613281 39.63769531 C40.98181629 40.22108796 44.82497361 40.08153124 48.8046875 39.98046875 C50.57029397 39.9531999 52.33592039 39.92719842 54.1015625 39.90234375 C56.86448419 39.85923433 59.62635332 39.80876313 62.38867188 39.73632812 C82.58820698 39.23025531 82.58820698 39.23025531 91.30859375 47.3046875 C91.93121094 48.02785156 92.55382812 48.75101562 93.1953125 49.49609375 C99.79131261 56.28509214 106.68096534 60.23559211 116.22998047 60.61401367 C123.82418693 60.63828433 130.706757 59.63176975 137.8828125 57.05859375 C138.74777344 56.78015625 139.61273438 56.50171875 140.50390625 56.21484375 C147.32287202 53.91876239 153.56383516 50.79292253 159.9140625 47.44921875 C162.8828125 46.05859375 162.8828125 46.05859375 165.8828125 46.05859375 C146.67813663 62.1618934 123.25170355 71.26427932 98.8828125 76.05859375 C97.59310547 76.32567139 97.59310547 76.32567139 96.27734375 76.59814453 C87.68826364 78.22605453 79.21513826 78.45647145 70.5078125 78.43359375 C69.76291565 78.43338226 69.0180188 78.43317078 68.25054932 78.43295288 C55.46141247 78.39685437 43.30186277 77.29261151 30.8828125 74.05859375 C30.15513672 73.87135742 29.42746094 73.68412109 28.67773438 73.49121094 C2.27949967 66.46058633 -21.20095929 52.32135571 -40.73193359 33.39697266 C-41.92644894 32.24287799 -43.13930832 31.10782517 -44.35546875 29.9765625 C-51.159332 23.49993916 -56.91460456 15.86246816 -62.1171875 8.05859375 C-63.1071875 7.39859375 -64.0971875 6.73859375 -65.1171875 6.05859375 C-63.36422173 4.30562798 -60.75633986 4.58901069 -58.3671875 4.30859375 C-50.96730603 3.31333248 -43.81452199 1.65133338 -36.57910156 -0.17675781 C-9.17941714 -7.0137105 -9.17941714 -7.0137105 0 0 Z " fill="#F8D404" transform="translate(92.1171875,239.94140625)"/>
<path d="M0 0 C3.33013433 1.65336592 6.57017076 3.44252566 9.79272461 5.2956543 C10.80012695 5.87041504 10.80012695 5.87041504 11.82788086 6.45678711 C21.67022801 12.14835313 30.39865421 18.6405392 38.79272461 26.2956543 C39.57518555 26.99561523 40.35764648 27.69557617 41.16381836 28.41674805 C46.67673421 33.59617938 53.27353623 41.19277425 54.06616211 48.9831543 C54.41921736 60.49818723 51.27118889 66.92134799 43.60522461 75.3581543 C41.69941664 77.36998198 39.75456595 79.33859461 37.79272461 81.2956543 C37.00897461 82.09100586 36.22522461 82.88635742 35.41772461 83.70581055 C30.45721908 88.45683526 25.07419219 92.25316636 19.29272461 95.9206543 C18.58543213 96.37134277 17.87813965 96.82203125 17.14941406 97.28637695 C15.40407324 98.35792519 13.6020292 99.33604649 11.79272461 100.2956543 C11.13272461 99.9656543 10.47272461 99.6356543 9.79272461 99.2956543 C10.84459961 98.5512207 10.84459961 98.5512207 11.91772461 97.79174805 C27.05079407 87.4946675 27.05079407 87.4946675 35.37084961 71.7487793 C35.84479698 64.81191329 33.15713633 60.47073428 28.79272461 55.2956543 C28.24745117 54.63952148 27.70217773 53.98338867 27.14038086 53.30737305 C15.21192263 40.28264513 -4.29093911 29.43013621 -21.98071289 28.0847168 C-27.4079419 27.89556404 -31.73765082 27.89022605 -36.20727539 31.2956543 C-45.35681799 41.5485241 -45.93223134 56.65811987 -45.76977539 69.6706543 C-45.76584778 70.39355652 -45.76192017 71.11645874 -45.75787354 71.86126709 C-45.66207283 84.35789895 -45.15920195 96.49564988 -37.08227539 106.7331543 C-31.38608132 111.81019684 -24.45894996 110.50750097 -17.20727539 110.2956543 C-14.82035008 110.07729204 -12.56285296 109.74433574 -10.20727539 109.2956543 C-10.53727539 109.9556543 -10.86727539 110.6156543 -11.20727539 111.2956543 C-21.39546282 114.68136292 -36.67388082 117.19278867 -46.89477539 112.7956543 C-51.02395864 110.17219112 -53.67212324 106.40671184 -56.20727539 102.2956543 C-56.5643457 101.72331055 -56.92141602 101.1509668 -57.28930664 100.5612793 C-59.80471616 96.03153785 -61.32985529 91.15099299 -62.89477539 86.2331543 C-63.10948486 85.56026367 -63.32419434 84.88737305 -63.54541016 84.1940918 C-63.74706787 83.53538086 -63.94872559 82.87666992 -64.15649414 82.19799805 C-64.42465942 81.32389282 -64.42465942 81.32389282 -64.69824219 80.43212891 C-65.96745824 75.10507392 -66.33476236 69.86169374 -66.34008789 64.40112305 C-66.34137695 63.1152832 -66.34266602 61.82944336 -66.34399414 60.50463867 C-66.34189941 59.84294678 -66.33980469 59.18125488 -66.33764648 58.49951172 C-66.33231659 56.49862252 -66.33811206 54.49771383 -66.34399414 52.49682617 C-66.32456231 33.05528273 -64.28217541 11.31180487 -50.45336914 -3.5949707 C-37.51215321 -14.43418874 -13.50511574 -6.31503595 0 0 Z " fill="#F7D305" transform="translate(194.207275390625,92.704345703125)"/>
<path d="M0 0 C0.99 0.495 0.99 0.495 2 1 C1.20078125 1.69222656 0.4015625 2.38445313 -0.421875 3.09765625 C-15.75547849 16.65068943 -31.23159811 34.17666583 -35 55 C-35.67905479 66.83122383 -35.38635757 77.15152324 -28 87 C-23.75821033 93.05969953 -22.06190208 97.5049631 -23 105 C-25.20457686 111.91870571 -28.58955381 118.31057846 -32.125 124.625 C-32.60364502 125.48746338 -33.08229004 126.34992676 -33.57543945 127.23852539 C-37.75306521 134.69773636 -42.2227899 141.94735041 -46.82568359 149.14941406 C-48.75075378 152.18310055 -50.62494784 155.24773569 -52.5 158.3125 C-54.29391771 161.24232052 -56.0942866 164.1414299 -58 167 C-69.43790537 134.67548483 -64.11922724 94.86679268 -50.5 64.125 C-49.67740137 62.41147185 -48.84384187 60.70316708 -48 59 C-47.29037109 57.50726563 -47.29037109 57.50726563 -46.56640625 55.984375 C-41.48496498 45.47833019 -34.91752282 36.36594241 -28 27 C-27.46761719 26.23300781 -26.93523438 25.46601562 -26.38671875 24.67578125 C-25.70029297 23.84626953 -25.70029297 23.84626953 -25 23 C-24.34 23 -23.68 23 -23 23 C-22.61714844 22.12794922 -22.61714844 22.12794922 -22.2265625 21.23828125 C-17.58297275 12.76446938 -7.51828705 5.87366176 0 0 Z " fill="#F8D407" transform="translate(67,33)"/>
<path d="M0 0 C0.66 0.33 1.32 0.66 2 1 C1.18917969 1.70382813 0.37835938 2.40765625 -0.45703125 3.1328125 C-7.20977902 9.1164546 -13.117597 15.201766 -18.39575195 22.54150391 C-21.55176668 26.83524397 -21.55176668 26.83524397 -24.16796875 27.796875 C-24.77253906 27.86390625 -25.37710938 27.9309375 -26 28 C-28.2072358 29.48800372 -28.2072358 29.48800372 -30 31 C-28.63055898 28.05043472 -27.12169591 25.47531189 -25 23 C-24.34 23 -23.68 23 -23 23 C-22.74476562 22.41863281 -22.48953125 21.83726563 -22.2265625 21.23828125 C-17.58297275 12.76446938 -7.51828705 5.87366176 0 0 Z " fill="#DEC948" transform="translate(67,33)"/>
<path d="M0 0 C0.66 0.33 1.32 0.66 2 1 C0.0862931 2.46236093 -1.83075233 3.91994246 -3.75 5.375 C-4.28882813 5.7875 -4.82765625 6.2 -5.3828125 6.625 C-10.55619964 10.5365854 -13.7513233 12.20117326 -20.25 12.625 C-21.86648437 12.73714844 -21.86648437 12.73714844 -23.515625 12.8515625 C-24.33546875 12.90054687 -25.1553125 12.94953125 -26 13 C-22.98272461 10.98848307 -20.34069996 9.96687722 -16.9375 8.75 C-11.48567052 6.71318675 -6.76592305 4.25526147 -1.92578125 1.0390625 C-1.29027344 0.69617188 -0.65476563 0.35328125 0 0 Z " fill="#DCC32F" transform="translate(256,285)"/>
<path d="M0 0 C0.33 0.99 0.66 1.98 1 3 C-1.8343252 5.99178771 -4.20737064 8.35652728 -8 10 C-8.99 10.66 -9.98 11.32 -11 12 C-9.63055898 9.05043472 -8.12169591 6.47531189 -6 4 C-5.34 4 -4.68 4 -4 4 C-3.67 3.01 -3.34 2.02 -3 1 C-2.01 0.67 -1.02 0.34 0 0 Z " fill="#F4D837" transform="translate(48,52)"/>
<path d="M0 0 C0.66 0 1.32 0 2 0 C0.52296046 3.85205198 -1.48702291 5.25475324 -5 7.3125 C-5.886875 7.84488281 -6.77375 8.37726563 -7.6875 8.92578125 C-8.450625 9.28027344 -9.21375 9.63476562 -10 10 C-10.66 9.67 -11.32 9.34 -12 9 C-11.21753906 8.43410156 -10.43507812 7.86820313 -9.62890625 7.28515625 C-8.61699219 6.55167969 -7.60507813 5.81820312 -6.5625 5.0625 C-5.55316406 4.33160156 -4.54382813 3.60070312 -3.50390625 2.84765625 C-1.17707392 1.22678115 -1.17707392 1.22678115 0 0 Z " fill="#E4D25B" transform="translate(216,183)"/>
<path d="M0 0 C3.6875 -0.3125 3.6875 -0.3125 7 0 C3.8745041 2.64465038 0.91211733 3.84414715 -3 5 C-1.9375 2.5 -1.9375 2.5 0 0 Z " fill="#FCDE32" transform="translate(234,297)"/>
<path d="M0 0 C0.33 1.32 0.66 2.64 1 4 C-0.98 5.32 -2.96 6.64 -5 8 C-4.45773019 4.20411134 -2.79872437 2.52788007 0 0 Z " fill="#EACC18" transform="translate(223,177)"/>
<path d="M0 0 C0.66 0.33 1.32 0.66 2 1 C-0.31 3.31 -2.62 5.62 -5 8 C-5.66 7.67 -6.32 7.34 -7 7 C-4.78071806 4.09197539 -3.07030857 2.04687238 0 0 Z " fill="#E1C30C" transform="translate(147,87)"/>
</svg>
