<?xml version="1.0" encoding="UTF-8"?>
<svg version="1.1" xmlns="http://www.w3.org/2000/svg" width="320" height="320">
<path d="M0 0 C105.6 0 211.2 0 320 0 C320 0.33 320 0.66 320 1 C253.67 1.495 253.67 1.495 186 2 C194.25 3.98 202.5 5.96 211 8 C217.50395362 10.48916743 223.76269097 12.97585017 230 16 C231.00812744 16.48339844 231.00812744 16.48339844 232.03662109 16.9765625 C244.98964339 23.27855208 256.51883999 31.31184941 267.01171875 41.1875 C269.07099988 43.15610321 269.07099988 43.15610321 272 45 C272 45.66 272 46.32 272 47 C273.32 47.66 274.64 48.32 276 49 C276 49.66 276 50.32 276 51 C276.99 51.33 277.98 51.66 279 52 C280.78719952 54.00428032 282.43393481 55.99772589 284.0625 58.125 C284.54638184 58.75317627 285.03026367 59.38135254 285.52880859 60.02856445 C301.16213533 80.55462835 311.83635733 102.58103846 317.3125 127.875 C317.55190308 128.97908203 317.55190308 128.97908203 317.79614258 130.10546875 C325.89723313 170.40067787 316.95772175 212.92612073 294.875 247.30859375 C271.15394443 282.72620667 235.43541194 308.28720521 193.40234375 317.00390625 C189.28273796 317.79201654 185.15440516 318.42371605 181 319 C180.06414062 319.13148438 179.12828125 319.26296875 178.1640625 319.3984375 C139.78759412 323.76745082 99.37405306 313.4627519 68 291 C67.16057861 290.40179443 67.16057861 290.40179443 66.30419922 289.79150391 C50.82977761 278.59227141 37.48960634 264.96244443 27 249 C26.60232422 248.39865234 26.20464844 247.79730469 25.79492188 247.17773438 C13.28243027 227.98641693 6.4759849 207.37992452 2 185 C1.67 229.55 1.34 274.1 1 320 C0.67 320 0.34 320 0 320 C0 214.4 0 108.8 0 0 Z M1 1 C1 48.19 1 95.38 1 144 C1.33 144 1.66 144 2 144 C2.15855469 142.75347656 2.31710938 141.50695312 2.48046875 140.22265625 C4.95747132 121.73379721 10.02871264 105.83161377 18 89 C18.4434375 88.03191406 18.886875 87.06382813 19.34375 86.06640625 C24.6025203 74.96258382 32.03077811 65.28147798 40 56 C40.72058594 55.15566406 41.44117188 54.31132813 42.18359375 53.44140625 C67.76955381 24.20682444 105.45486822 5.80129505 144 2 C144 1.67 144 1.34 144 1 C96.81 1 49.62 1 1 1 Z " fill="#67D470" transform="translate(0,0)"/>
<path d="M0 0 C0.84912964 0.00068481 1.69825928 0.00136963 2.57312012 0.0020752 C30.77946763 0.07723382 30.77946763 0.07723382 35.125 2.25 C37.26647073 2.58876685 39.41526628 2.88168402 41.56640625 3.15234375 C42.87287109 3.32056641 44.17933594 3.48878906 45.52539062 3.66210938 C47.59629401 3.92423361 49.66736644 4.18497162 51.73852539 4.44506836 C61.49186803 5.67611834 70.85399583 6.86187512 80.03466797 10.48242188 C83.14668673 11.62516738 86.3310544 12.43866461 89.53271484 13.29052734 C98.96531599 15.81132364 107.63794722 18.80460941 116.30712891 23.31152344 C118.24699978 24.31298243 120.205636 25.26994282 122.16796875 26.2265625 C136.61027661 33.39820293 136.61027661 33.39820293 139.125 39.25 C140.12730541 44.35931296 139.73915318 48.04362768 137.375 52.6875 C133.38347751 57.23340061 130.40773498 58.90758975 124.375 59.8125 C118.14744577 59.7620336 113.25787307 56.37521081 108 53.40625 C84.1904412 39.96917226 55.91987527 35.47235228 29.125 32.25 C28.33730225 32.15356201 27.54960449 32.05712402 26.73803711 31.95776367 C17.45814867 30.96531497 8.13555602 30.96347841 -1.1875 30.9375 C-2.08740662 30.93488159 -2.98731323 30.93226318 -3.91448975 30.92956543 C-24.64293282 30.92314071 -44.98005652 32.57106256 -64.94921875 38.484375 C-70.92156619 40.04723227 -75.73561838 40.30024189 -81.3125 37.5625 C-84.70666453 34.49947347 -86.60591833 31.91606402 -87.34375 27.34765625 C-87.39285764 22.5780772 -87.31262785 19.14146415 -85.1875 14.8125 C-66.60181731 -2.69500773 -23.55640539 -0.02715498 0 0 Z " fill="#FCFEFC" transform="translate(137.875,84.75)"/>
<path d="M0 0 C1.03302246 0.19335938 2.06604492 0.38671875 3.13037109 0.5859375 C25.26015094 4.88646152 46.20536514 12.1966709 66 23 C67.52947266 23.80244141 67.52947266 23.80244141 69.08984375 24.62109375 C72.94387894 26.74993672 75.52369594 28.34157968 78.125 31.9375 C79.17708782 35.61980738 79.54439994 38.18920041 79 42 C76.90425003 45.63429658 74.09473417 48.79566642 70 50 C64.36326998 50.44900423 60.7089984 49.24902631 55.875 46.5625 C54.46473513 45.82334398 53.05183083 45.08920815 51.63671875 44.359375 C50.88825684 43.97330078 50.13979492 43.58722656 49.36865234 43.18945312 C35.70537834 36.32824194 21.88927368 31.37251847 7 28 C5.77925781 27.70480469 4.55851562 27.40960938 3.30078125 27.10546875 C-11.75440696 23.62063043 -26.78713248 22.61801081 -42.1875 22.6875 C-42.98960907 22.68865814 -43.79171814 22.68981628 -44.61813354 22.69100952 C-71.49401948 22.55995127 -71.49401948 22.55995127 -97 30 C-101.30212445 30.62133059 -105.33395487 30.97036679 -109.1796875 28.73046875 C-111.60531765 26.66214097 -113.5667697 24.8664606 -115 22 C-115.38602595 14.02213041 -115.38602595 14.02213041 -113 10 C-107.86487113 5.54533625 -101.82663689 3.78158696 -95.3125 2.375 C-93.92587158 2.06816284 -93.92587158 2.06816284 -92.51123047 1.75512695 C-89.67860554 1.14573007 -86.84090519 0.56938929 -84 0 C-83.21061035 -0.16806152 -82.4212207 -0.33612305 -81.60791016 -0.50927734 C-55.72292392 -5.86843025 -25.86216508 -4.88650184 0 0 Z " fill="#FCFEFD" transform="translate(176,143)"/>
<path d="M0 0 C0.71745392 -0.00172211 1.43490784 -0.00344421 2.17410278 -0.00521851 C33.1183412 0.00323292 71.71206536 6.93128697 96.4375 27.375 C98.9290904 31.1123856 98.89543285 32.94831583 98.4375 37.375 C97 40.25 97 40.25 94.4375 42.375 C88.08936114 44.40335478 83.41698364 42.98443887 77.62109375 40.10351562 C76.29271484 39.40258789 76.29271484 39.40258789 74.9375 38.6875 C73.15675584 37.78675969 71.37551002 36.88701042 69.59375 35.98828125 C68.73031982 35.54693848 67.86688965 35.1055957 66.97729492 34.65087891 C58.35083292 30.31733181 49.81851563 27.63379097 40.4375 25.375 C39.71710037 25.20024139 38.99670074 25.02548279 38.25447083 24.84542847 C25.8327604 21.90332074 13.98288565 20.76432378 1.22851562 20.90844727 C-1.56180375 20.93749275 -4.35021715 20.92897039 -7.140625 20.91601562 C-21.38703039 20.93375418 -35.21429199 22.46434998 -49.125 25.5625 C-54.24362713 26.60804551 -59.38141453 27.3341431 -64.5625 26.375 C-67.81510324 23.34932257 -68.78571015 20.63379079 -69.1875 16.3125 C-68.5625 12.375 -68.5625 12.375 -66.3125 9.5625 C-50.31119018 -1.61729227 -19.08949781 -0.01163347 0 0 Z " fill="#FBFDFC" transform="translate(136.5625,191.625)"/>
<path d="M0 0 C0.66 0 1.32 0 2 0 C1.98839844 0.81082031 1.97679688 1.62164062 1.96484375 2.45703125 C1.91301498 8.81716219 2.11705062 15.01981578 2.77734375 21.34375 C3.13098583 25.56263794 3.08257967 29.77008555 3 34 C2.67 34 2.34 34 2 34 C1.855625 32.865625 1.71125 31.73125 1.5625 30.5625 C1.38828522 27.19222799 1.38828522 27.19222799 0 26 C-0.08748207 24.07332493 -0.10697334 22.14348139 -0.09765625 20.21484375 C-0.09443359 19.04501953 -0.09121094 17.87519531 -0.08789062 16.66992188 C-0.07951172 15.43822266 -0.07113281 14.20652344 -0.0625 12.9375 C-0.05798828 11.70193359 -0.05347656 10.46636719 -0.04882812 9.19335938 C-0.03699608 6.12885883 -0.02051173 3.06445279 0 0 Z " fill="#87DC8E" transform="translate(0,151)"/>
<path d="M0 0 C0 3 0 3 -1.46875 4.796875 C-2.1390625 5.44140625 -2.809375 6.0859375 -3.5 6.75 C-4.221875 7.44609375 -4.94375 8.1421875 -5.6875 8.859375 C-9.06093216 11.98207909 -12.49941732 15.0207807 -16 18 C-16 15 -16 15 -14.0234375 12.6953125 C-13.14945313 11.84710938 -12.27546875 10.99890625 -11.375 10.125 C-10.4675 9.24328125 -9.56 8.3615625 -8.625 7.453125 C-5.83005792 4.84118508 -3.00139319 2.36952094 0 0 Z " fill="#8DDD94" transform="translate(58,37)"/>
<path d="M0 0 C0.66 0 1.32 0 2 0 C3.32286246 4.96073422 3.08893197 9.91111512 3 15 C2.67 15 2.34 15 2 15 C1.855625 13.865625 1.71125 12.73125 1.5625 11.5625 C1.38828522 8.19222799 1.38828522 8.19222799 0 7 C-0.04092937 4.66702567 -0.04241723 2.33294775 0 0 Z " fill="#B2E3B6" transform="translate(0,170)"/>
</svg>
