<?xml version="1.0" encoding="UTF-8"?>
<svg version="1.1" xmlns="http://www.w3.org/2000/svg" width="512" height="512">
<path d="M0 0 C1.92551949 -0.01506844 1.92551949 -0.01506844 3.88993835 -0.03044128 C5.31085146 -0.03647129 6.73176519 -0.04235629 8.15267944 -0.04811096 C9.65114051 -0.05765381 11.14959939 -0.06754516 12.64805603 -0.07775879 C17.57193394 -0.10912478 22.49582854 -0.12942351 27.41976929 -0.14796448 C28.25986526 -0.1512618 29.09996123 -0.15455912 29.96551466 -0.15795636 C37.90368914 -0.18876117 45.84186761 -0.21544536 53.78008461 -0.23237514 C63.8970221 -0.25421003 74.01342403 -0.29601906 84.13014758 -0.36581272 C91.2616574 -0.4133178 98.39302423 -0.43734459 105.52468717 -0.44457203 C109.77320361 -0.44949274 114.02111643 -0.46422456 118.26945877 -0.50431633 C151.76922924 -0.80574034 151.76922924 -0.80574034 166.75570679 6.16062927 C168.84073404 6.99689561 170.92755714 7.82872327 173.01742554 8.65281677 C174.83030743 9.43725081 176.63901178 10.23141668 178.44320679 11.03562927 C179.41234009 11.46271179 180.38147339 11.88979431 181.37997437 12.32981873 C189.3917182 15.90531321 197.12665366 19.83506566 204.75570679 24.16062927 C205.75086304 24.7097699 206.74601929 25.25891052 207.77133179 25.82469177 C222.42986161 34.094611 235.99307327 44.06554089 248.55258179 55.24656677 C250.76025075 57.16457704 253.01821927 59.01275419 255.28646851 60.85838318 C260.28049902 64.93773367 264.86752116 68.97638178 268.75570679 74.16062927 C268.75570679 74.82062927 268.75570679 75.48062927 268.75570679 76.16062927 C269.34867554 76.40812927 269.94164429 76.65562927 270.55258179 76.91062927 C273.10399545 78.35823986 274.2725004 79.80481477 276.00570679 82.16062927 C279.26037302 86.52131845 282.66887448 90.72062374 286.15414429 94.89891052 C287.69440905 97.07406491 288.33871018 98.55737905 288.75570679 101.16062927 C289.41570679 101.16062927 290.07570679 101.16062927 290.75570679 101.16062927 C292.33456678 103.40069482 293.77671711 105.63207006 295.19320679 107.97312927 C295.63422729 108.69524597 296.0752478 109.41736267 296.52963257 110.16136169 C297.46986198 111.70815333 298.40593036 113.2574805 299.33822632 114.80906677 C300.68956246 117.05089758 302.06324037 119.27767289 303.43930054 121.50437927 C324.88823787 156.80794934 324.88823787 156.80794934 324.91633606 173.4058075 C324.92142388 174.14916092 324.9265117 174.89251434 324.9317537 175.65839362 C324.94748714 178.15685833 324.95600586 180.65529409 324.96444702 183.15379333 C324.97398535 184.94268477 324.9838765 186.73157436 324.99409485 188.52046204 C325.02550252 194.4057038 325.04575905 200.29095974 325.06430054 206.17625427 C325.06759786 207.17869769 325.07089518 208.18114111 325.07429242 209.2139616 C325.10509056 218.67652932 325.1317886 228.13910026 325.1487112 237.60170364 C325.1705768 249.68556144 325.21244954 261.76897255 325.28214878 273.85265183 C325.32953145 282.35818161 325.35366432 290.86359155 325.36090809 299.36924911 C325.36584564 304.44315673 325.38074349 309.5165612 325.42065239 314.5903244 C325.45778139 319.37411497 325.46584315 324.15712059 325.45264626 328.94102859 C325.45269978 330.68599986 325.462822 332.43100823 325.48439789 334.1758461 C325.62226206 345.96657667 323.79683185 354.46094387 318.75570679 365.16062927 C317.72731928 367.6292022 316.7425581 370.11245581 315.75570679 372.59812927 C308.88870837 388.69231745 299.19267148 404.13925247 288.75570679 418.16062927 C288.18980835 418.92504333 287.62390991 419.6894574 287.04086304 420.47703552 C255.59371285 461.83928718 212.41395825 495.60787879 162.75570679 512.16062927 C160.34514181 512.27281738 157.96220035 512.33021814 155.55090332 512.34144592 C154.44222328 512.3522527 154.44222328 512.3522527 153.31114566 512.36327779 C150.82669831 512.38605307 148.3422609 512.40158698 145.85775757 512.41697693 C144.07860064 512.43142612 142.29944619 512.44618378 140.52029419 512.46122742 C124.22240218 512.59190046 107.9238185 512.65748047 91.62550545 512.70907021 C79.59547585 512.74785008 67.56639232 512.81595382 55.53677762 512.92361796 C47.0617403 512.9968772 38.5869588 513.03497014 30.11161792 513.04809606 C25.06070298 513.0569007 20.01095619 513.08065058 14.960392 513.14276505 C-24.76306331 513.60992104 -24.76306331 513.60992104 -40.29991531 504.30178452 C-42.95744286 502.7420818 -45.72030779 501.45696686 -48.5127697 500.15931129 C-60.19683734 494.66077612 -71.4647052 487.93740208 -82.31069946 480.94969177 C-83.44100586 480.22193542 -83.44100586 480.22193542 -84.59414673 479.47947693 C-85.13869507 479.0442572 -85.68324341 478.60903748 -86.24429321 478.16062927 C-86.24429321 477.50062927 -86.24429321 476.84062927 -86.24429321 476.16062927 C-86.97261353 475.9053949 -87.70093384 475.65016052 -88.45132446 475.38719177 C-91.40440798 474.09031314 -93.45477674 472.5909388 -95.93179321 470.53562927 C-100.36402465 466.88320397 -104.86291524 463.33517042 -109.40835571 459.82469177 C-110.01421509 459.27555115 -110.62007446 458.72641052 -111.24429321 458.16062927 C-111.24429321 457.50062927 -111.24429321 456.84062927 -111.24429321 456.16062927 C-111.83855103 455.88090271 -112.43280884 455.60117615 -113.04507446 455.31297302 C-119.82403884 451.76094018 -124.37065127 445.76368931 -129.06069946 439.87937927 C-130.87836044 437.61624503 -132.74051041 435.44159512 -134.68179321 433.28562927 C-152.30019761 413.23710013 -165.90967881 389.77402544 -176.61929321 365.41062927 C-177.18982422 364.11971375 -177.18982422 364.11971375 -177.7718811 362.80271912 C-178.5273706 361.03239543 -179.25118162 359.24825829 -179.94471741 357.45275879 C-180.82064987 355.23381696 -181.76151318 353.03956104 -182.76089478 350.87341309 C-189.18716047 335.80854095 -188.09129306 319.51472939 -187.98438311 303.46463943 C-187.96145921 299.20935867 -187.96999101 294.95411644 -187.97387695 290.6987915 C-187.97563278 283.56359443 -187.95368716 276.42878107 -187.91665649 269.29368591 C-187.87425486 261.07732111 -187.86732466 252.86151572 -187.87978041 244.64506358 C-187.89121556 236.69041863 -187.8798256 228.735968 -187.85743332 220.78135109 C-187.84821264 217.41763479 -187.84636219 214.05403873 -187.85060501 210.69031334 C-187.85440555 206.72463703 -187.83790139 202.75952064 -187.80648422 198.79397202 C-187.79808839 197.34975185 -187.79623589 195.90547437 -187.80186462 194.46124077 C-187.84535254 181.29452525 -184.48484856 170.4179107 -179.24429321 158.47312927 C-178.57667825 156.92796574 -177.91001403 155.38239108 -177.24429321 153.83641052 C-176.91155396 153.0699823 -176.5788147 152.30355408 -176.23599243 151.51390076 C-175.227418 149.12058491 -174.30276329 146.70424889 -173.37710571 144.27781677 C-171.10482697 138.56559122 -168.17469155 133.29849616 -165.11929321 127.97312927 C-164.54598267 126.96790222 -163.97267212 125.96267517 -163.38198853 124.92698669 C-148.98635705 99.92689381 -130.75225974 74.53270253 -108.24429321 56.16062927 C-107.4850354 55.5135199 -106.72577759 54.86641052 -105.94351196 54.19969177 C-83.48335084 35.31816026 -57.16514995 17.62196224 -29.24429321 8.16062927 C-27.62278784 7.56370147 -26.0031481 6.96169296 -24.38491821 6.35594177 C-17.36542988 3.73096002 -17.36542988 3.73096002 -14.33413696 2.61375427 C-13.64182983 2.3575531 -12.94952271 2.10135193 -12.23623657 1.83738708 C-8.05774489 0.41775491 -4.43379632 0.02729955 0 0 Z " fill="#00A1DE" transform="translate(187.24429321289063,-0.1606292724609375)"/>
<path d="M0 0 C3.125 1.875 3.125 1.875 5 5 C5.10732178 11.39654832 3.52399545 17.76658238 1.94628906 23.92773438 C1.73959595 24.75859558 1.53290283 25.58945679 1.31994629 26.44549561 C0.64197693 29.16333611 -0.04601435 31.8785245 -0.734375 34.59375 C-1.21476507 36.50917967 -1.69459288 38.42475044 -2.17388916 40.3404541 C-3.17835945 44.34915832 -4.18741665 48.35666817 -5.20019531 52.36328125 C-6.48511963 57.44674284 -7.76201746 62.53217346 -9.03582382 67.61843109 C-10.26572588 72.52761245 -11.49999418 77.43569328 -12.734375 82.34375 C-12.96314079 83.25505173 -13.19190659 84.16635345 -13.42760468 85.10527039 C-15.68747375 94.09683931 -17.98924262 103.06891554 -20.50219727 111.9934082 C-23.28061114 121.86622913 -25.76063001 131.80798372 -28.23046875 141.76171875 C-28.71153232 143.69226572 -29.19284537 145.62275053 -29.6743927 147.55317688 C-30.92666573 152.57541279 -32.17629581 157.59830194 -33.42510986 162.62139893 C-35.43299998 170.69652181 -37.44423218 178.77081134 -39.45693398 186.8447361 C-40.15489974 189.64675258 -40.85124333 192.44916852 -41.54740906 195.25163269 C-41.97580598 196.97204933 -42.40425474 198.69245306 -42.83276367 200.4128418 C-43.02343414 201.18226105 -43.21410461 201.9516803 -43.41055298 202.74441528 C-47.2947193 218.31367149 -47.2947193 218.31367149 -53.5 222.8125 C-58.90550937 224.64651211 -63.37150523 225.21178182 -69 224 C-73.40187729 221.64072045 -77.17112667 218.73720898 -81.03710938 215.59179688 C-83.11103944 213.90995309 -85.2144205 212.27215818 -87.328125 210.640625 C-90.38242038 208.2817641 -93.42729657 205.91163708 -96.46484375 203.53125 C-106.80025902 195.45553334 -117.35796294 187.66587415 -128 180 C-133.36289021 183.83063586 -138.35278259 187.98218202 -143.3125 192.3125 C-144.61841243 193.4480054 -145.92440173 194.58342242 -147.23046875 195.71875 C-149.04850827 197.29957382 -150.86529464 198.881519 -152.67431641 200.47265625 C-154.14768387 201.76432526 -155.63589657 203.03900424 -157.125 204.3125 C-157.95257813 205.03050781 -158.78015625 205.74851562 -159.6328125 206.48828125 C-162 208 -162 208 -164.4921875 208.73046875 C-168.63405 207.5240384 -169.99485997 203.58933472 -172 200 C-174.56841587 195.13199124 -177.03352528 190.21512134 -179.48828125 185.2890625 C-180.19834963 183.87027504 -180.90865535 182.45160635 -181.6191864 181.03305054 C-183.09841568 178.07752418 -184.5747738 175.12058657 -186.04907227 172.16259766 C-187.94125579 168.36676593 -189.84067704 164.57460924 -191.74221516 160.7834568 C-193.20601923 157.86305826 -194.66602465 154.94077385 -196.12486839 152.01789474 C-196.82423587 150.61782447 -197.52479493 149.21834876 -198.22655678 147.81947708 C-199.20219648 145.87325568 -200.17269986 143.92455902 -201.1418457 141.97509766 C-201.69524124 140.86671539 -202.24863678 139.75833313 -202.81880188 138.61636353 C-204 136 -204 136 -204 134 C-204.87676392 133.77848267 -204.87676392 133.77848267 -205.77124023 133.55249023 C-214.18858769 131.3463848 -222.41482702 128.62993109 -230.66137695 125.86645508 C-233.05988753 125.06337472 -235.46047247 124.2667415 -237.86132812 123.47070312 C-245.00024548 121.09303485 -252.10003301 118.69749048 -259.05249023 115.80834961 C-260.38079661 115.25701171 -261.72117221 114.7340991 -263.07055664 114.23657227 C-265.68902016 113.23696396 -267.65568673 112.40169882 -269.5 110.25 C-270.26121155 106.82454803 -269.90581342 104.38170343 -269 101 C-265.14810567 97.22535382 -260.94442901 95.56356446 -255.98046875 93.7578125 C-254.81612053 93.3215303 -254.81612053 93.3215303 -253.62825012 92.87643433 C-251.15115961 91.95053013 -248.66954074 91.03753987 -246.1875 90.125 C-244.56283148 89.52038925 -242.93847943 88.91492741 -241.31445312 88.30859375 C-238.09202386 87.10703752 -234.86790434 85.91021121 -231.64208984 84.71777344 C-219.06120825 80.06603529 -206.52392497 75.30264305 -194 70.5 C-185.01705554 67.05524319 -176.02852887 63.62812635 -167.01708984 60.25854492 C-159.32890711 57.38042891 -151.66493853 54.43933123 -144 51.5 C-135.01705554 48.05524319 -126.02852887 44.62812635 -117.01708984 41.25854492 C-109.32890711 38.38042891 -101.66493853 35.43933123 -94 32.5 C-63.47711734 20.7951622 -63.47711734 20.7951622 -52.25 16.9375 C-46.44338152 14.9152748 -40.76371561 12.71011994 -35.109375 10.2890625 C-30.68166321 8.45345334 -26.19200034 6.79475775 -21.69311523 5.14257812 C-18.51451501 3.96933673 -15.39800542 2.74437088 -12.30859375 1.3515625 C-8.00274426 -0.40737956 -4.56870581 -0.8694179 0 0 Z " fill="#FDFEFE" transform="translate(370,144)"/>
<path d="M0 0 C0.33 0 0.66 0 1 0 C1.14002453 8.99803162 1.24613319 17.99567897 1.31087303 26.99456882 C1.34197078 31.17475373 1.38403854 35.35418451 1.45263672 39.53393555 C1.51861296 43.58000352 1.55386733 47.62535382 1.56926346 51.67191887 C1.58021167 53.20310683 1.60158408 54.73426278 1.63438034 56.26513863 C1.8672694 67.60387722 -0.21066253 75.69512711 -5 86 C-6.02586078 88.46944783 -7.01198596 90.95249934 -8 93.4375 C-14.86699842 109.53168817 -24.56303531 124.97862319 -35 139 C-35.56589844 139.76441406 -36.13179687 140.52882813 -36.71484375 141.31640625 C-68.16199394 182.67865791 -111.34174854 216.44724951 -161 233 C-163.28459674 233.08989374 -165.57179326 233.11757205 -167.8581543 233.11352539 C-168.55109589 233.11367142 -169.24403748 233.11381744 -169.95797729 233.1139679 C-172.24675637 233.11327163 -174.5354539 233.1054926 -176.82421875 233.09765625 C-178.41176814 233.09579106 -179.99931811 233.09436763 -181.58686829 233.09336853 C-185.7642272 233.08955134 -189.94155131 233.07972786 -194.11889648 233.06866455 C-198.38199391 233.05843328 -202.64509696 233.05386723 -206.90820312 233.04882812 C-215.27215138 233.03810489 -223.63607136 233.02103803 -232 233 C-232 232.67 -232 232.34 -232 232 C-231.4423999 231.92483154 -230.8847998 231.84966309 -230.31030273 231.7722168 C-170.71746734 223.67346783 -118.75563044 200.75822648 -75 159 C-74.12730469 158.16855469 -73.25460937 157.33710938 -72.35546875 156.48046875 C-66.41051046 150.68162311 -61.12947096 144.52440454 -56 138 C-55.22011719 137.03707031 -54.44023437 136.07414063 -53.63671875 135.08203125 C-36.50878537 113.52869882 -23.35931842 88.84194063 -14 63 C-13.71930664 62.22817383 -13.43861328 61.45634766 -13.14941406 60.66113281 C-6.07018976 40.94103214 -2.20850972 20.80539997 0 0 Z " fill="#000101" transform="translate(511,279)"/>
<path d="M0 0 C0.33 0 0.66 0 1 0 C1.05945801 0.56581787 1.11891602 1.13163574 1.18017578 1.71459961 C6.15349517 47.44074517 21.86316454 92.26846565 50 129 C50.65226562 129.85207031 51.30453125 130.70414063 51.9765625 131.58203125 C53.94536679 134.08962354 55.96044599 136.54960058 58 139 C58.42474609 139.51498047 58.84949219 140.02996094 59.28710938 140.56054688 C70.06896617 153.59305925 81.60284671 165.62433235 95 176 C95.98097656 176.78632813 96.96195312 177.57265625 97.97265625 178.3828125 C136.76726018 209.24796991 183.81626738 227.15807814 233 232 C233 232.33 233 232.66 233 233 C224.62725837 233.2110802 216.25567722 233.36969911 207.88090992 233.46630955 C203.98953817 233.51274339 200.1000211 233.57541125 196.2097168 233.67895508 C178.42363079 234.13982563 163.04776585 234.13294241 147.06333923 225.14682007 C144.33942292 223.6328461 141.53736372 222.31709879 138.71530151 220.99790955 C127.0472241 215.46339464 115.7815211 208.77801823 104.93359375 201.7890625 C103.80328735 201.06130615 103.80328735 201.06130615 102.65014648 200.31884766 C102.10559814 199.88362793 101.5610498 199.4484082 101 199 C101 198.34 101 197.68 101 197 C100.27167969 196.74476563 99.54335937 196.48953125 98.79296875 196.2265625 C95.83988523 194.92968387 93.78951647 193.43030953 91.3125 191.375 C86.88026857 187.7225747 82.38137798 184.17454114 77.8359375 180.6640625 C77.23007813 180.11492187 76.62421875 179.56578125 76 179 C76 178.34 76 177.68 76 177 C75.40574219 176.72027344 74.81148438 176.44054687 74.19921875 176.15234375 C67.42025437 172.6003109 62.87364194 166.60306004 58.18359375 160.71875 C56.36593277 158.45561576 54.5037828 156.28096584 52.5625 154.125 C34.9440956 134.07647085 21.3346144 110.61339616 10.625 86.25 C10.244646 85.38938965 9.86429199 84.5287793 9.47241211 83.64208984 C8.25257253 80.78366374 7.12996056 77.89510606 6 75 C5.61476166 74.12362885 5.61476166 74.12362885 5.22174072 73.22955322 C-1.32529614 58.27706201 -0.69373182 43.4438946 -0.375 27.375 C-0.34136139 24.71096806 -0.31747339 22.04695698 -0.29296875 19.3828125 C-0.22753446 12.92113798 -0.12769154 6.46072875 0 0 Z " fill="#000001" transform="translate(0,279)"/>
<path d="M0 0 C7.787824 -0.1539206 15.57524674 -0.25794699 23.36425781 -0.32958984 C26.00660139 -0.35607347 28.6469109 -0.40022877 31.2890625 -0.45263672 C47.04000953 -0.75691638 60.4886116 -0.40312914 75 6 C76.0837793 6.42974121 77.16755859 6.85948242 78.28417969 7.30224609 C81.11587558 8.43390285 83.90243464 9.63356843 86.6875 10.875 C87.6566333 11.30208252 88.6257666 11.72916504 89.62426758 12.16918945 C97.63601141 15.74468394 105.37094687 19.67443638 113 24 C113.99515625 24.54914062 114.9903125 25.09828125 116.015625 25.6640625 C130.67415482 33.93398173 144.23736648 43.90491162 156.796875 55.0859375 C159.00454396 57.00394777 161.26251248 58.85212492 163.53076172 60.69775391 C168.52479223 64.7771044 173.11181438 68.8157525 177 74 C177 74.66 177 75.32 177 76 C177.59296875 76.2475 178.1859375 76.495 178.796875 76.75 C181.34828866 78.19761059 182.51679362 79.6441855 184.25 82 C187.50466624 86.36068918 190.91316769 90.55999447 194.3984375 94.73828125 C195.93870227 96.91343564 196.5830034 98.39674978 197 101 C197.66 101 198.32 101 199 101 C200.57885999 103.24006554 202.02101032 105.47144079 203.4375 107.8125 C203.87852051 108.5346167 204.31954102 109.2567334 204.77392578 110.00073242 C205.71415519 111.54752406 206.65022357 113.09685123 207.58251953 114.6484375 C208.93385567 116.89026831 210.30753358 119.11704362 211.68359375 121.34375 C233.14321781 156.66490972 233.14321781 156.66490972 233.11352539 172.4909668 C233.11367142 173.1448941 233.11381744 173.79882141 233.1139679 174.4725647 C233.11327188 176.63148326 233.10549408 178.79031528 233.09765625 180.94921875 C233.09579096 182.44708713 233.09436758 183.94495611 233.09336853 185.44282532 C233.08955207 189.38345019 233.0797292 193.32403814 233.06866455 197.26464844 C233.05843172 201.28645325 233.0538669 205.30826404 233.04882812 209.33007812 C233.03810616 217.22006901 233.02104017 225.11002991 233 233 C232.67 233 232.34 233 232 233 C231.82984375 231.71609375 231.6596875 230.4321875 231.484375 229.109375 C227.62800929 200.65374124 221.14541053 174.14021126 209 148 C208.67418945 147.29327148 208.34837891 146.58654297 208.01269531 145.85839844 C192.11069371 111.73089034 167.85077876 80.10527811 138 57 C136.74679627 55.99553925 135.49423721 54.99027386 134.2421875 53.984375 C119.07304721 41.93723024 102.56805444 32.12976864 85 24 C84.24235352 23.64341309 83.48470703 23.28682617 82.70410156 22.91943359 C56.53908356 10.71508735 28.65999164 3.82144995 0 1 C0 0.67 0 0.34 0 0 Z " fill="#000001" transform="translate(279,0)"/>
<path d="M0 0 C1.04077698 0.00007553 2.08155396 0.00015106 3.15386963 0.00022888 C4.27066101 0.00539017 5.38745239 0.01055145 6.53808594 0.01586914 C8.26088776 0.01799156 8.26088776 0.01799156 10.01849365 0.02015686 C13.68650925 0.02575396 17.35446379 0.03830596 21.02246094 0.05102539 C23.50943922 0.05604076 25.99641846 0.06060361 28.48339844 0.06469727 C34.57977343 0.07572244 40.67611282 0.0924577 46.77246094 0.11352539 C46.77246094 0.44352539 46.77246094 0.77352539 46.77246094 1.11352539 C46.20664307 1.1729834 45.6408252 1.23244141 45.05786133 1.29370117 C-21.40132293 8.52201105 -83.8566515 39.80407034 -126.91503906 91.55102539 C-128.36784904 93.39322067 -129.80453903 95.24820741 -131.22753906 97.11352539 C-131.64567871 97.65525391 -132.06381836 98.19698242 -132.49462891 98.75512695 C-140.17613695 108.74865402 -146.91711772 119.20760146 -153.22753906 130.11352539 C-153.62183105 130.7907666 -154.01612305 131.46800781 -154.42236328 132.16577148 C-172.1114696 162.9199235 -181.76718523 197.96361537 -185.22753906 233.11352539 C-185.55753906 233.11352539 -185.88753906 233.11352539 -186.22753906 233.11352539 C-186.32979603 225.94608894 -186.39936077 218.77884378 -186.44726562 211.61083984 C-186.46725729 209.1775001 -186.4944598 206.74420764 -186.52929688 204.31103516 C-186.88726114 178.64815591 -186.88726114 178.64815591 -182.22753906 168.11352539 C-181.89270508 167.25944092 -181.55787109 166.40535645 -181.21289062 165.52539062 C-180.26550231 163.13508954 -179.26049083 160.78042912 -178.22753906 158.42602539 C-177.5599241 156.88086186 -176.89325987 155.3352872 -176.22753906 153.78930664 C-175.8947998 153.02287842 -175.56206055 152.2564502 -175.21923828 151.46679688 C-174.21066385 149.07348103 -173.28600914 146.65714501 -172.36035156 144.23071289 C-170.08807282 138.51848734 -167.1579374 133.25139228 -164.10253906 127.92602539 C-163.52922852 126.92079834 -162.95591797 125.91557129 -162.36523438 124.87988281 C-147.9696029 99.87978993 -129.73550559 74.48559865 -107.22753906 56.11352539 C-106.46828125 55.46641602 -105.70902344 54.81930664 -104.92675781 54.15258789 C-82.46659669 35.27105638 -56.1483958 17.57485836 -28.22753906 8.11352539 C-26.60603369 7.51659759 -24.98639395 6.91458908 -23.36816406 6.30883789 C-16.34867572 3.68385614 -16.34867572 3.68385614 -13.31738281 2.56665039 C-12.62507568 2.31044922 -11.93276855 2.05424805 -11.21948242 1.7902832 C-7.38206622 0.48653057 -4.06641903 -0.00986995 0 0 Z " fill="#000000" transform="translate(186.2275390625,-0.113525390625)"/>
<path d="M0 0 C0.99 0.495 0.99 0.495 2 1 C1.03320312 1.83402344 0.06640625 2.66804687 -0.9296875 3.52734375 C-9.6567307 11.06284395 -9.6567307 11.06284395 -18.25 18.75 C-21.50010013 21.7007488 -24.82617333 24.50297627 -28.25 27.25 C-33.32342922 31.3488722 -38.06069181 35.73239988 -42.80541992 40.19995117 C-47.12173717 44.24225403 -51.60476234 47.99573491 -56.22265625 51.69140625 C-59.42442799 54.35279458 -62.46234918 57.15462246 -65.5 60 C-70.23864143 64.43834906 -75.12119579 68.59142453 -80.1875 72.65625 C-83.97485715 75.81238095 -87.5505225 79.17279845 -91.14648438 82.54321289 C-95.46274461 86.56488965 -99.93433304 90.30322995 -104.5625 93.96484375 C-107.12265841 96.03226561 -107.12265841 96.03226561 -109.6875 98.75390625 C-112 101 -112 101 -114 101 C-113.93941406 101.56283691 -113.87882812 102.12567383 -113.81640625 102.70556641 C-112.63605189 113.84402575 -111.66078664 124.7871138 -112 136 C-114.20228852 133.2136101 -115.88994217 130.44996125 -117.4519043 127.26318359 C-117.912155 126.32896576 -118.3724057 125.39474792 -118.84660339 124.43222046 C-119.33421646 123.43107208 -119.82182953 122.42992371 -120.32421875 121.3984375 C-120.83048294 120.36562653 -121.33674713 119.33281555 -121.85835266 118.26870728 C-122.92528797 116.08932517 -123.99011507 113.90890988 -125.05297852 111.72753906 C-126.68611728 108.37783607 -128.3279343 105.03248884 -129.97070312 101.6875 C-131.0057307 99.57056782 -132.04025345 97.45338872 -133.07421875 95.3359375 C-133.81474739 93.82814224 -133.81474739 93.82814224 -134.57023621 92.28988647 C-135.24642754 90.8980162 -135.24642754 90.8980162 -135.9362793 89.47802734 C-136.33582321 88.65958344 -136.73536713 87.84113953 -137.14701843 86.99789429 C-138 85 -138 85 -138 83 C-137.13874512 82.51313721 -136.27749023 82.02627441 -135.39013672 81.5246582 C-127.21255256 76.88636115 -119.14276122 72.0982607 -111.125 67.1875 C-100.79490102 60.88145058 -90.41597085 54.66306298 -80 48.5 C-68.83041718 41.88962532 -57.71109523 35.20376809 -46.63085938 28.44482422 C-40.20352981 24.53121699 -33.75594851 20.65511172 -27.28125 16.8203125 C-26.54817627 16.38607971 -25.81510254 15.95184692 -25.05981445 15.50445557 C-21.4771529 13.3836744 -17.89224225 11.2667893 -14.3046875 9.15429688 C-13.00519312 8.3867445 -11.70571322 7.61916762 -10.40625 6.8515625 C-9.81589966 6.50545929 -9.22554932 6.15935608 -8.61730957 5.80276489 C-5.60699373 4.0221766 -2.74894581 2.16408158 0 0 Z " fill="#04A4DF" transform="translate(318,192)"/>
</svg>
