<?xml version="1.0" encoding="UTF-8"?>
<svg version="1.1" xmlns="http://www.w3.org/2000/svg" width="320" height="320">
<path d="M0 0 C0.8058252 0.19335938 1.61165039 0.38671875 2.44189453 0.5859375 C22.18300937 5.4032007 40.3263778 13.36579347 57 25 C57.57878906 25.40379883 58.15757812 25.80759766 58.75390625 26.22363281 C93.74636397 51.15276983 116.67507651 88.85772638 124.140625 130.98046875 C125.39169483 139.62659583 125.39658754 148.28092634 125.375 157 C125.37412384 157.86405457 125.37324768 158.72810913 125.37234497 159.61834717 C125.32829276 172.7898057 124.69820335 185.28062292 121 198 C120.76394043 198.84546387 120.52788086 199.69092773 120.28466797 200.56201172 C108.65117725 241.3129821 81.49698234 276.37151276 44.44799805 297.09814453 C42.64019131 298.08186634 40.82343591 299.04557136 39 300 C38.35724121 300.33773438 37.71448242 300.67546875 37.05224609 301.0234375 C28.94040467 305.21833387 20.73715716 308.64125642 12 311.3125 C11.25476074 311.54275879 10.50952148 311.77301758 9.74169922 312.01025391 C-5.01434147 316.27227626 -19.46379217 317.55034414 -34.75 317.4375 C-35.62674377 317.43445862 -36.50348755 317.43141724 -37.40679932 317.42828369 C-50.62623398 317.36053495 -63.23473706 316.71103202 -76 313 C-76.7415332 312.79632813 -77.48306641 312.59265625 -78.24707031 312.3828125 C-101.68891855 305.82112021 -122.67822222 293.88819814 -141 278 C-142.31291016 276.87078125 -142.31291016 276.87078125 -143.65234375 275.71875 C-148.87836178 271.12928454 -153.6201509 266.39994216 -158 261 C-158.74765625 260.10152344 -159.4953125 259.20304687 -160.265625 258.27734375 C-175.57519647 239.23666602 -186.3354613 216.75044473 -192 193 C-192.16371094 192.32727051 -192.32742187 191.65454102 -192.49609375 190.96142578 C-197.42347691 169.57719369 -197.41803518 143.27783628 -192 122 C-191.80132324 121.18354004 -191.60264648 120.36708008 -191.39794922 119.52587891 C-181.26043292 78.60372509 -155.82770234 42.27193016 -119.5625 20.3125 C-84.30053868 -0.42558895 -40.3718059 -10.23902452 0 0 Z " fill="#2A0F23" transform="translate(195,3)"/>
<path d="M0 0 C14.19 0 28.38 0 43 0 C43.99 6.435 43.99 6.435 45 13 C48.82759341 26.89274643 56.20075126 39.38973741 68 48 C70.42839082 49.28897788 72.8184171 50.48513603 75.3125 51.625 C75.93833984 51.9240625 76.56417969 52.223125 77.20898438 52.53125 C85.09678766 56.1879547 92.18792009 57.11879201 101 58 C101 72.19 101 86.38 101 101 C84.75375235 101 84.75375235 101 78.4375 99.3125 C77.72625977 99.13170898 77.01501953 98.95091797 76.28222656 98.76464844 C66.88935457 96.29106573 58.32778487 93.01857688 50.109375 87.828125 C49.51753418 87.45896973 48.92569336 87.08981445 48.31591797 86.70947266 C46.87498402 85.80998056 45.43715877 84.90551165 44 84 C43.99413376 85.11118698 43.98826752 86.22237396 43.98222351 87.36723328 C43.92478612 97.88536596 43.85191626 108.40329606 43.76428509 118.92122173 C43.71972928 124.32742992 43.68044119 129.7335653 43.65356445 135.13989258 C43.62738316 140.36609232 43.58687781 145.59200965 43.53681374 150.81803322 C43.52024467 152.80287959 43.50866884 154.7877747 43.50238609 156.77268028 C43.41655917 181.41571185 37.826917 203.99038828 20.02734375 222.171875 C3.75790168 237.90238179 -17.05183446 244.53899567 -39.296875 244.2109375 C-56.10770827 243.65695967 -71.05129156 237.62808148 -84 227 C-84.8765625 226.28714844 -85.753125 225.57429687 -86.65625 224.83984375 C-98.58554147 214.65323492 -107.00704723 200.18446828 -111 185 C-111.20367187 184.28328125 -111.40734375 183.5665625 -111.6171875 182.828125 C-116.08293162 164.59810104 -112.43038987 144.0235061 -103.21484375 127.87109375 C-91.50184953 109.63794371 -74.55033838 95.21926669 -53.31640625 89.609375 C-43.48688366 87.86911444 -32.86279576 88.79664339 -23 89 C-23 103.52 -23 118.04 -23 133 C-29.93 133 -36.86 133 -44 133 C-54.38736226 136.71657916 -61.59455634 142.4847192 -66.5 152.5 C-69.49499295 161.05712272 -69.48539695 172.02574968 -66.4375 180.5625 C-62.31243459 189.11873107 -55.91057227 194.5000723 -47.5625 198.75 C-38.88480298 201.76470856 -28.46145032 201.18262644 -20.20703125 197.25390625 C-10.86137539 191.94425044 -5.02147754 185.31132712 -1.64981651 174.94281197 C-0.22377714 168.48473398 -0.56052982 161.77300506 -0.56762695 155.18920898 C-0.5585996 153.49331452 -0.54827001 151.79742656 -0.53674316 150.10154724 C-0.50926125 145.51956425 -0.49990065 140.93770537 -0.49388909 136.35565066 C-0.48448243 131.558996 -0.45827721 126.76243321 -0.43388367 121.96583557 C-0.39027795 112.89258277 -0.3616946 103.81934786 -0.33856028 94.74602228 C-0.3114768 84.41222074 -0.26756725 74.07851187 -0.22227156 63.74477661 C-0.12951014 42.49655459 -0.06001139 21.24834149 0 0 Z " fill="#FDFDFE" transform="translate(162,32)"/>
<path d="M0 0 C5.445 0.495 5.445 0.495 11 1 C11 15.19 11 29.38 11 44 C-2.04448727 44 -2.04448727 44 -8.1875 42.875 C-8.90381592 42.74448242 -9.62013184 42.61396484 -10.3581543 42.47949219 C-24.26462184 39.73020261 -36.25969257 33.82687162 -48 26 C-47.99111755 27.15685806 -47.98223511 28.31371613 -47.9730835 29.50563049 C-47.89162337 40.46443037 -47.83185608 51.42316796 -47.79275131 62.3822031 C-47.77197058 68.01494126 -47.74382864 73.64743294 -47.69824219 79.2800293 C-47.65444279 84.72656071 -47.63079155 90.17285662 -47.62049103 95.6195507 C-47.61316039 97.68655028 -47.59884735 99.75353852 -47.57707977 101.82043648 C-47.42320555 117.05168614 -48.50275814 130.65890563 -55.8125 144.375 C-56.15579346 145.03999512 -56.49908691 145.70499023 -56.8527832 146.39013672 C-59.68893996 151.73623022 -63.02989988 156.43045406 -67 161 C-67.41765625 161.54785156 -67.8353125 162.09570312 -68.265625 162.66015625 C-71.58938826 166.9921277 -75.51053499 169.9844632 -80 173 C-80.84175781 173.56847656 -81.68351562 174.13695312 -82.55078125 174.72265625 C-99.79901033 185.5773509 -120.99915397 189.9251051 -141.1484375 186.38671875 C-155.81120149 182.83826734 -168.42170423 175.47315108 -180 166 C-179.505 165.01 -179.505 165.01 -179 164 C-177.45892578 164.81404297 -177.45892578 164.81404297 -175.88671875 165.64453125 C-154.40049217 176.81009001 -132.97125398 179.18102116 -109.66796875 171.96875 C-91.13779313 165.46230637 -76.48170803 152.31039915 -67.43359375 135.00390625 C-66.20604851 132.36193575 -65.078101 129.70590568 -64 127 C-63.70480469 126.31550781 -63.40960938 125.63101563 -63.10546875 124.92578125 C-58.0880245 112.74055949 -58.66100817 99.73127244 -58.5859375 86.80078125 C-58.56720077 84.75383241 -58.54762554 82.70689109 -58.5272522 80.65995789 C-58.47618952 75.3056789 -58.43642624 69.95137494 -58.39910889 64.59698486 C-58.35890605 59.11993362 -58.30788842 53.64298392 -58.2578125 48.16601562 C-58.16135992 37.44408202 -58.07685812 26.72209073 -58 16 C-57.32566422 16.41019379 -56.65132843 16.82038757 -55.95655823 17.24301147 C-55.06540817 17.78205109 -54.17425812 18.3210907 -53.25610352 18.87646484 C-52.37551773 19.41040863 -51.49493195 19.94435242 -50.58766174 20.49447632 C-47.14143552 22.49952014 -43.62891936 24.1304363 -39.9375 25.625 C-39.21780029 25.91713379 -38.49810059 26.20926758 -37.7565918 26.51025391 C-25.27335304 31.39729754 -13.49110632 33.03634955 0 34 C0 22.78 0 11.56 0 0 Z " fill="#FB1956" transform="translate(263,99)"/>
<path d="M0 0 C14.19 0 28.38 0 43 0 C43 3.3 43 6.6 43 10 C32.11 10 21.22 10 10 10 C10.01571045 15.22908203 10.0314209 20.45816406 10.04760742 25.84570312 C10.09729148 43.11240061 10.13059711 60.37910088 10.15543652 77.64585114 C10.17089894 88.11582587 10.19197657 98.58573283 10.22631836 109.05566406 C10.25623978 118.18229579 10.27557955 127.30887843 10.28226548 136.43555784 C10.28617308 141.26712337 10.29534356 146.09854848 10.31719017 150.93006897 C10.33759861 155.48052726 10.34382498 160.03078768 10.33932304 164.58128738 C10.34014629 166.24854738 10.34608595 167.91581419 10.35761642 169.58303452 C10.44307081 182.57995687 8.79829013 191.80081708 0 202 C-8.07490347 209.14606486 -17.49085322 211.60767545 -28.11328125 211.28125 C-35.75650308 210.53657886 -42.61800096 207.61540206 -48 202 C-48.71875 199.80859375 -48.71875 199.80859375 -49 198 C-48.15953125 198.32226562 -47.3190625 198.64453125 -46.453125 198.9765625 C-37.91874243 201.50598358 -28.26947812 201.09125658 -20.20703125 197.25390625 C-10.86137539 191.94425044 -5.02147754 185.31132712 -1.64981651 174.94281197 C-0.22377714 168.48473398 -0.56052982 161.77300506 -0.56762695 155.18920898 C-0.5585996 153.49331452 -0.54827001 151.79742656 -0.53674316 150.10154724 C-0.50926125 145.51956425 -0.49990065 140.93770537 -0.49388909 136.35565066 C-0.48448243 131.558996 -0.45827721 126.76243321 -0.43388367 121.96583557 C-0.39027795 112.89258277 -0.3616946 103.81934786 -0.33856028 94.74602228 C-0.3114768 84.41222074 -0.26756725 74.07851187 -0.22227156 63.74477661 C-0.12951014 42.49655459 -0.06001139 21.24834149 0 0 Z " fill="#57FDFD" transform="translate(162,32)"/>
<path d="M0 0 C0 3.3 0 6.6 0 10 C-1.29357422 10.00386719 -1.29357422 10.00386719 -2.61328125 10.0078125 C-21.46734846 10.60509024 -37.47483663 17.15191966 -52 29 C-52.81210938 29.60972656 -53.62421875 30.21945313 -54.4609375 30.84765625 C-68.11022947 42.41805606 -76.6678319 61.07971728 -78.23925781 78.6796875 C-79.34820412 96.7697614 -75.99756627 111.30016515 -67.453125 127.14453125 C-66.25305224 129.50273875 -65.47474978 131.42010974 -65 134 C-76.71674943 125.42676871 -84.35703125 109.85354314 -88 96 C-88.20367187 95.28328125 -88.40734375 94.5665625 -88.6171875 93.828125 C-93.08293162 75.59810104 -89.43038987 55.0235061 -80.21484375 38.87109375 C-68.50184953 20.63794371 -51.55033838 6.21926669 -30.31640625 0.609375 C-20.44768877 -1.13782479 -9.97344849 -0.2924765 0 0 Z " fill="#54FAFA" transform="translate(139,121)"/>
<path d="M0 0 C3.63 0 7.26 0 11 0 C11 14.85 11 29.7 11 45 C9.35 44.67 7.7 44.34 6 44 C-5.30639315 43.33491805 -14.94678674 43.74307297 -24.078125 51.06640625 C-31.43773802 58.47089496 -34.99705715 66.9374453 -35.3125 77.25 C-35.23245898 83.52958147 -33.99671642 89.06927684 -32 95 C-38.06663521 92.4666798 -42.17104815 86.32272247 -44.9375 80.5 C-47.72739603 71.8164486 -47.46926922 59.50770395 -43.44140625 51.26953125 C-37.9314888 42.59402437 -31.06040818 35.86630999 -21 33 C-14.01384052 32.16031737 -6.82453512 32.29386622 0 34 C0 22.78 0 11.56 0 0 Z " fill="#FA1B56" transform="translate(139,131)"/>
<path d="M0 0 C3.3 0 6.6 0 10 0 C10.08636719 1.01578125 10.17273438 2.0315625 10.26171875 3.078125 C11.24466336 13.1696077 13.18069585 21.99823633 18.72265625 30.70703125 C19.35494141 31.84205078 19.35494141 31.84205078 20 33 C19.67 33.66 19.34 34.32 19 35 C9.90014144 25.67316084 0 13.77391382 0 0 Z " fill="#F51955" transform="translate(206,42)"/>
<path d="M0 0 C0.845625 0.40992187 1.69125 0.81984375 2.5625 1.2421875 C12.20816322 5.82387753 20.36554252 8.171907 31 9 C31 11.97 31 14.94 31 18 C18.8812639 16.21783293 8.26393773 11.26562715 0 2 C0 1.34 0 0.68 0 0 Z " fill="#52FAF9" transform="translate(232,81)"/>
<path d="M0 0 C0.66 0 1.32 0 2 0 C3.15082685 2.24756784 4.29576858 4.49781748 5.4375 6.75 C5.76298828 7.38421875 6.08847656 8.0184375 6.42382812 8.671875 C7.97063665 11.73359908 9.3915078 14.60615621 10 18 C5.23268026 14.36775639 0.77118619 10.4114502 -2 5 C-1.375 2 -1.375 2 0 0 Z " fill="#53F4F4" transform="translate(64,237)"/>
<path d="M0 0 C1.98498051 0.92512666 3.96286018 1.86550237 5.9375 2.8125 C7.03964844 3.33457031 8.14179687 3.85664063 9.27734375 4.39453125 C12 6 12 6 13 9 C13.99 9.33 14.98 9.66 16 10 C15.34 10.66 14.68 11.32 14 12 C13.24074219 11.44570313 12.48148438 10.89140625 11.69921875 10.3203125 C10.20841797 9.23363281 10.20841797 9.23363281 8.6875 8.125 C7.70136719 7.40570313 6.71523437 6.68640625 5.69921875 5.9453125 C3.82476885 4.5944065 1.92247007 3.28164671 0 2 C0 1.34 0 0.68 0 0 Z " fill="#E91A53" transform="translate(83,263)"/>
<path d="M0 0 C5.66153846 1.47692308 5.66153846 1.47692308 7.375 4.125 C7.684375 5.053125 7.684375 5.053125 8 6 C6.25 6.75 6.25 6.75 4 7 C1.75 5.25 1.75 5.25 0 3 C0 2.01 0 1.02 0 0 Z " fill="#57EBEC" transform="translate(113,230)"/>
<path d="M0 0 C3 1 3 1 4.75 3.375 C6 6 6 6 5 9 C3.02 6.69 1.04 4.38 -1 2 C-0.67 1.34 -0.34 0.68 0 0 Z " fill="#54E6E7" transform="translate(68,246)"/>
<path d="M0 0 C3.53647504 1.67517239 4.7911563 2.49280817 6.3125 6.1875 C6.539375 7.115625 6.76625 8.04375 7 9 C5.82460004 8.07347299 4.65989423 7.13336613 3.5 6.1875 C2.52546875 5.40439453 2.52546875 5.40439453 1.53125 4.60546875 C0 3 0 3 0 0 Z " fill="#EE2F64" transform="translate(219,68)"/>
</svg>
