<?xml version="1.0" encoding="UTF-8"?>
<svg version="1.1" xmlns="http://www.w3.org/2000/svg" width="359" height="359">
<path d="M0 0 C1.01320312 0.26804443 1.01320312 0.26804443 2.046875 0.54150391 C44.37158154 12.13411654 81.84476839 43.59308565 103.68823242 81.13354492 C105.52572785 84.38836582 107.2825172 87.68048835 109 91 C109.31807617 91.61020996 109.63615234 92.22041992 109.96386719 92.84912109 C130.65703375 133.12187212 132.9811758 181.95412269 119.67749023 224.8347168 C112.61888795 246.58429657 102.01366847 266.66494102 87 284 C86.31679688 284.79277344 85.63359375 285.58554687 84.9296875 286.40234375 C82.66084117 288.97614255 80.3446451 291.49506915 78 294 C77.11699219 294.94875 76.23398437 295.8975 75.32421875 296.875 C63.59967955 309.18889459 49.83168027 318.78690371 35 327 C34.39816895 327.3398291 33.79633789 327.6796582 33.17626953 328.02978516 C15.27895341 338.02265245 -4.79020685 343.95023699 -25 347 C-26.00220581 347.15251221 -26.00220581 347.15251221 -27.0246582 347.30810547 C-34.41898754 348.27969904 -41.86607269 348.2436175 -49.3125 348.25 C-50.02175629 348.25067474 -50.73101257 348.25134949 -51.46176147 348.25204468 C-63.19726786 348.23436799 -74.51379116 347.52215003 -86 345 C-86.77520996 344.83371094 -87.55041992 344.66742188 -88.34912109 344.49609375 C-122.46887572 336.94035559 -152.42208169 319.62752772 -177 295 C-177.52787109 294.48002441 -178.05574219 293.96004883 -178.59960938 293.42431641 C-209.18893946 263.05791236 -226.94432527 219.04622381 -227.24169922 176.13549805 C-227.39334663 126.85077385 -211.52299158 82.743748 -177 47 C-176.06871058 46.00548903 -175.13772464 45.01069378 -174.20703125 44.015625 C-129.83631541 -2.66850694 -60.78527607 -16.29055235 0 0 Z " fill="#30BF39" transform="translate(229,8)"/>
<path d="M0 0 C0.66798615 0.00081573 1.33597229 0.00163147 2.02420044 0.00247192 C25.66386214 0.13417214 45.1025925 8.1530905 62.875 23.5625 C63.46023437 24.00464844 64.04546875 24.44679688 64.6484375 24.90234375 C82.26497921 38.50760718 92.70537885 62.05279512 95.875 83.5625 C96.80240481 98.22317102 96.58242194 112.56920464 91.875 126.5625 C91.66069336 127.21250977 91.44638672 127.86251953 91.22558594 128.53222656 C82.19964824 155.11078838 62.17960555 173.35553793 37.94921875 186.1015625 C17.03576937 195.74482205 -8.30092089 196.29727441 -30.125 189.5625 C-33.73238639 188.13047226 -37.25811087 186.53924535 -40.6628418 184.67358398 C-46.06955988 181.90187433 -49.62811076 182.82756821 -55.125 184.5625 C-55.83148682 184.76939453 -56.53797363 184.97628906 -57.26586914 185.18945312 C-59.45886833 185.84581296 -61.63540596 186.54275659 -63.8125 187.25 C-64.61051025 187.50475098 -65.40852051 187.75950195 -66.23071289 188.02197266 C-70.86232682 189.502055 -75.48615203 191.00566884 -80.109375 192.51171875 C-81.59691284 192.99282104 -81.59691284 192.99282104 -83.11450195 193.48364258 C-85.04962843 194.10977418 -86.98312791 194.74096127 -88.91479492 195.37768555 C-89.79756104 195.66297119 -90.68032715 195.94825684 -91.58984375 196.2421875 C-92.369646 196.49726074 -93.14944824 196.75233398 -93.95288086 197.01513672 C-96.125 197.5625 -96.125 197.5625 -100.125 197.5625 C-98.50853103 191.13966111 -96.60161693 184.85003127 -94.4609375 178.5859375 C-94.22191711 177.88462708 -93.98289673 177.18331665 -93.7366333 176.46075439 C-92.74231779 173.55047222 -91.74455225 170.64148567 -90.73535156 167.73632812 C-85.45158737 154.64858796 -85.45158737 154.64858796 -86.41796875 141.21875 C-87.04316406 140.1771875 -87.66835937 139.135625 -88.3125 138.0625 C-99.47247345 118.12842099 -99.45931829 92.24615746 -94.125 70.5625 C-93.85816406 69.44488281 -93.59132813 68.32726562 -93.31640625 67.17578125 C-87.19220573 44.61150466 -70.51255875 25.85821033 -51.125 13.5625 C-47.20576486 11.35851765 -43.21512731 9.42538844 -39.125 7.5625 C-38.3928125 7.18480469 -37.660625 6.80710937 -36.90625 6.41796875 C-25.58218448 0.77706298 -12.43281697 -0.02601832 0 0 Z " fill="#2FBF38" transform="translate(188.125,76.4375)"/>
<path d="M0 0 C0.66798615 0.00081573 1.33597229 0.00163147 2.02420044 0.00247192 C25.66386214 0.13417214 45.1025925 8.1530905 62.875 23.5625 C63.46023437 24.00464844 64.04546875 24.44679688 64.6484375 24.90234375 C82.26497921 38.50760718 92.70537885 62.05279512 95.875 83.5625 C96.80240481 98.22317102 96.58242194 112.56920464 91.875 126.5625 C91.66069336 127.21250977 91.44638672 127.86251953 91.22558594 128.53222656 C82.19964824 155.11078838 62.17960555 173.35553793 37.94921875 186.1015625 C17.03576937 195.74482205 -8.30092089 196.29727441 -30.125 189.5625 C-33.73238639 188.13047226 -37.25811087 186.53924535 -40.6628418 184.67358398 C-46.06955988 181.90187433 -49.62811076 182.82756821 -55.125 184.5625 C-55.83148682 184.76939453 -56.53797363 184.97628906 -57.26586914 185.18945312 C-59.45886833 185.84581296 -61.63540596 186.54275659 -63.8125 187.25 C-64.61051025 187.50475098 -65.40852051 187.75950195 -66.23071289 188.02197266 C-70.86232682 189.502055 -75.48615203 191.00566884 -80.109375 192.51171875 C-81.59691284 192.99282104 -81.59691284 192.99282104 -83.11450195 193.48364258 C-85.04962843 194.10977418 -86.98312791 194.74096127 -88.91479492 195.37768555 C-89.79756104 195.66297119 -90.68032715 195.94825684 -91.58984375 196.2421875 C-92.369646 196.49726074 -93.14944824 196.75233398 -93.95288086 197.01513672 C-96.125 197.5625 -96.125 197.5625 -100.125 197.5625 C-98.50853103 191.13966111 -96.60161693 184.85003127 -94.4609375 178.5859375 C-94.22191711 177.88462708 -93.98289673 177.18331665 -93.7366333 176.46075439 C-92.74231779 173.55047222 -91.74455225 170.64148567 -90.73535156 167.73632812 C-85.45158737 154.64858796 -85.45158737 154.64858796 -86.41796875 141.21875 C-87.04316406 140.1771875 -87.66835937 139.135625 -88.3125 138.0625 C-99.47247345 118.12842099 -99.45931829 92.24615746 -94.125 70.5625 C-93.85816406 69.44488281 -93.59132813 68.32726562 -93.31640625 67.17578125 C-87.19220573 44.61150466 -70.51255875 25.85821033 -51.125 13.5625 C-47.20576486 11.35851765 -43.21512731 9.42538844 -39.125 7.5625 C-38.3928125 7.18480469 -37.660625 6.80710937 -36.90625 6.41796875 C-25.58218448 0.77706298 -12.43281697 -0.02601832 0 0 Z M-27.125 20.5625 C-28.04023438 20.86285156 -28.95546875 21.16320312 -29.8984375 21.47265625 C-46.63956303 27.57234079 -59.57722801 38.70545293 -69.125 53.5625 C-69.82882813 54.63371094 -69.82882813 54.63371094 -70.546875 55.7265625 C-81.5203874 73.81253665 -83.75610386 97.19560239 -79.125 117.5625 C-76.78380504 125.87159959 -73.7518385 133.80687441 -68.12890625 140.47265625 C-65.29879495 146.36413307 -69.69919348 154.66993833 -71.6875 160.375 C-72.33725665 162.25560682 -72.98452244 164.13707668 -73.62890625 166.01953125 C-73.91580322 166.84428955 -74.2027002 167.66904785 -74.49829102 168.51879883 C-75.22272627 170.52491356 -75.22272627 170.52491356 -75.125 172.5625 C-67.00045414 171.4092276 -59.40591331 169.21169627 -51.62890625 166.68359375 C-49.89447266 166.12865234 -49.89447266 166.12865234 -48.125 165.5625 C-47.41214844 165.28535156 -46.69929688 165.00820312 -45.96484375 164.72265625 C-43.07607479 164.47119228 -41.51893435 165.99960286 -39.125 167.5625 C-36.5790178 168.83478152 -33.97945965 169.97814987 -31.375 171.125 C-30.70984375 171.42857422 -30.0446875 171.73214844 -29.359375 172.04492188 C-20.09361476 176.13432952 -11.45450626 176.92533552 -1.375 176.875 C0.35762085 176.86762817 0.35762085 176.86762817 2.12524414 176.86010742 C14.66149146 176.68745623 24.65856545 174.29993887 35.875 168.5625 C36.62136719 168.20542969 37.36773437 167.84835938 38.13671875 167.48046875 C56.93994395 157.92694499 70.08635606 139.96029625 76.99609375 120.38671875 C82.620216 100.93102312 81.16851168 78.6444412 71.875 60.5625 C65.24394886 48.69291847 57.01261208 38.42339432 45.875 30.5625 C44.94429688 29.88316406 44.01359375 29.20382813 43.0546875 28.50390625 C22.33448034 14.48729552 -3.70355249 12.63650664 -27.125 20.5625 Z " fill="#FBFDFB" transform="translate(188.125,76.4375)"/>
<path d="M0 0 C11.00632447 21.02207975 11.00632447 21.02207975 10 28 C8.06479616 30.47299571 5.90349437 32.53301743 3.65234375 34.71875 C1.73530452 36.87122535 1.73530452 36.87122535 2.09765625 39.51953125 C6.67677281 52.10714603 17.73618441 61.56597201 29 68 C29.86496094 68.55429688 30.72992188 69.10859375 31.62109375 69.6796875 C34.57119588 71.3170184 36.67823633 71.23175095 40 71 C40.27328125 70.41734375 40.5465625 69.8346875 40.828125 69.234375 C41.97990734 67.03831001 43.20843226 65.18939167 44.75 63.25 C45.21921875 62.63640625 45.6884375 62.0228125 46.171875 61.390625 C48 60 48 60 50.55859375 59.45703125 C55.76079571 60.27780999 59.79279583 62.82287543 64.3125 65.4375 C65.69018555 66.2119043 65.69018555 66.2119043 67.09570312 67.00195312 C73.78304369 70.78304369 73.78304369 70.78304369 75 72 C75.15686191 77.84870835 74.38720119 82.85125043 70.66796875 87.46484375 C67.528722 90.35412706 63.82800354 92.18000618 60 94 C59.01 94.495 59.01 94.495 58 95 C47.48941513 95.95179941 39.56271843 94.63510587 30 90 C29.39124023 89.71060547 28.78248047 89.42121094 28.15527344 89.12304688 C19.14999917 84.79279248 11.43402927 79.75257659 4 73 C3.3915625 72.47277344 2.783125 71.94554687 2.15625 71.40234375 C-8.77387056 61.32291654 -19.12129283 46.3428452 -23 32 C-23.18175781 31.360625 -23.36351562 30.72125 -23.55078125 30.0625 C-25.19355202 22.52003943 -24.37408253 15.98694629 -20.53125 9.3046875 C-14.71892384 0.55654354 -10.61342797 -1.09794082 0 0 Z " fill="#FCFDFC" transform="translate(163,126)"/>
<path d="M0 0 C0.33 0.99 0.66 1.98 1 3 C-0.40333195 5.35255857 -1.82161123 7.49093839 -3.4375 9.6875 C-3.87126953 10.29400391 -4.30503906 10.90050781 -4.75195312 11.52539062 C-5.82544245 13.02355704 -6.91155165 14.5126661 -8 16 C-8.33 14.68 -8.66 13.36 -9 12 C-8.34 12 -7.68 12 -7 12 C-6.773125 11.319375 -6.54625 10.63875 -6.3125 9.9375 C-4.64427643 6.20385676 -2.44270392 3.27836579 0 0 Z " fill="#42C44A" transform="translate(329,270)"/>
</svg>
