<?xml version="1.0" encoding="UTF-8"?>
<svg version="1.1" xmlns="http://www.w3.org/2000/svg" width="320" height="226">
<path d="M0 0 C1.81959634 -0.00463595 3.63919173 -0.00966164 5.45878601 -0.01504517 C10.38093415 -0.02810058 15.30306868 -0.03460122 20.22523141 -0.03905582 C23.31064485 -0.04199903 26.39605469 -0.04610623 29.48146629 -0.05056 C39.16440414 -0.06421989 48.8473336 -0.07389264 58.53028041 -0.07776189 C69.65221335 -0.08223226 80.77402277 -0.09973904 91.89591819 -0.12876248 C100.52822625 -0.15049526 109.16049986 -0.16047239 117.79283494 -0.16180301 C122.93149629 -0.16284322 128.0700413 -0.16858121 133.20867348 -0.18662262 C138.05397204 -0.20330412 142.89906933 -0.20516331 147.74438667 -0.19648361 C149.50455522 -0.19572371 151.2647355 -0.1999141 153.02487564 -0.20994186 C174.94831755 -0.32732939 199.57978036 0.89800036 216.69018555 16.28613281 C228.40104036 28.85320578 230.08103087 46.9860817 230.10131836 63.33642578 C230.10628326 64.31183823 230.11124817 65.28725067 230.11636353 66.29222107 C230.13087839 69.49592822 230.13777122 72.69958578 230.14331055 75.90332031 C230.14613792 77.00770573 230.1489653 78.11209114 230.15187836 79.24994278 C230.16683191 85.10087571 230.1760841 90.95178425 230.18041992 96.80273438 C230.18588179 102.79470639 230.20987263 108.78644857 230.23839188 114.77834892 C230.25718044 119.43029392 230.26223252 124.08218549 230.2637558 128.73416519 C230.26674921 130.94017917 230.27466296 133.14619299 230.28794098 135.35216904 C230.41753561 158.54846741 229.71647711 183.5593501 212.8425293 201.37597656 C195.36642196 217.92742214 169.9109383 218.47501835 147.18725586 218.43579102 C145.48485087 218.44015295 143.78244783 218.44534094 142.08004761 218.45127869 C137.50951948 218.46452182 132.93907477 218.46526389 128.36853123 218.46271539 C124.52733361 218.46163545 120.68615217 218.46655494 116.84495807 218.47132081 C107.76861499 218.48236556 98.69231332 218.48288213 89.6159668 218.47680664 C80.31095294 218.47077301 71.00609053 218.48307403 61.7011025 218.50437671 C53.65887479 218.52209869 45.61669482 218.52797745 37.57444835 218.52473897 C32.79472012 218.52294253 28.01509991 218.52539553 23.23538971 218.53945351 C-40.66673582 218.71119618 -40.66673582 218.71119618 -62.24731445 199.72363281 C-80.04866047 180.86006656 -79.38953994 151.315486 -79.32543945 127.13378906 C-79.32679361 125.2845403 -79.32874029 123.43529189 -79.33123779 121.58604431 C-79.33415463 117.74490915 -79.33000466 113.90386818 -79.32055664 110.06274414 C-79.30917245 105.20464336 -79.31573739 100.34676399 -79.32770157 95.4886713 C-79.33502133 91.67991041 -79.33258644 87.87119969 -79.32744598 84.06243706 C-79.32613681 82.27396046 -79.32765795 80.4854789 -79.33240509 78.69700813 C-79.35246107 69.02315241 -79.04575434 59.45552179 -78.15258789 49.8190918 C-78.07304996 48.95133401 -77.99351204 48.08357622 -77.91156387 47.18952274 C-76.66714692 34.92547069 -72.55902754 23.12945467 -63.49731445 14.41113281 C-45.85942067 0.29417451 -21.46622108 0.01279975 0 0 Z " fill="#DB2920" transform="translate(83.059814453125,4.8388671875)"/>
<path d="M0 0 C4.7819244 2.02300773 9.31528516 4.46660131 13.875 6.9375 C15.17286989 7.62724056 16.47146176 8.31562421 17.77075195 9.00268555 C20.34386407 10.36582914 22.91274791 11.73643246 25.47802734 13.11425781 C29.27241918 15.14585926 33.08561289 17.13836113 36.90478516 19.12280273 C40.61639542 21.05720667 44.30893197 23.02675713 48 25 C48.82193848 25.43715332 49.64387695 25.87430664 50.49072266 26.32470703 C52.99972913 27.66415184 55.50081183 29.017339 58 30.375 C59.14118286 30.98275269 59.14118286 30.98275269 60.30541992 31.6027832 C66.96837371 35.26118964 66.96837371 35.26118964 69 39 C69.56867873 42.73703162 69.22896468 44.56539212 67.46118164 47.92089844 C64.42797089 51.71564638 61.49114505 53.30363748 57.18359375 55.390625 C56.41881714 55.77710709 55.65404053 56.16358917 54.86608887 56.56178284 C52.39691159 57.80579355 49.91754144 59.02781496 47.4375 60.25 C45.74013097 61.1007922 44.0435977 61.95325382 42.34790039 62.80737305 C39.03962328 64.47255695 35.728198 66.1311773 32.4140625 67.78466797 C27.214863 70.3852334 22.06764539 73.07854606 16.9375 75.8125 C15.5250003 76.55648478 14.1122575 77.30000829 12.69921875 78.04296875 C10.27550746 79.3201527 7.86369158 80.61680106 5.45703125 81.92578125 C-4.78938562 87.35475974 -4.78938562 87.35475974 -10 86 C-12.85302843 84.14823101 -14.47766712 82.03196843 -16 79 C-16.89533203 73.52472095 -16.82129345 68.08737781 -16.76171875 62.55859375 C-16.76322277 60.94629126 -16.76665674 59.33398952 -16.77192688 57.72169495 C-16.77624778 54.35160733 -16.75950001 50.98248014 -16.72729492 47.61254883 C-16.68748139 43.30250528 -16.69683308 38.99425835 -16.72152996 34.68415737 C-16.73574071 31.35794963 -16.72560527 28.03215861 -16.70801735 24.7059803 C-16.70218654 23.11723896 -16.70344178 21.52845464 -16.71204185 19.93972588 C-16.72007316 17.71593943 -16.6956977 15.49475027 -16.6628418 13.27124023 C-16.65584763 12.00884018 -16.64885345 10.74644012 -16.64164734 9.44578552 C-15.79524708 4.90043239 -14.2281069 3.25868791 -11 0 C-7.39267476 -1.80366262 -3.76492313 -0.9251217 0 0 Z " fill="#FEFCFC" transform="translate(139,70)"/>
<path d="M0 0 C1.32 0.33 2.64 0.66 4 1 C1.69 3.31 -0.62 5.62 -3 8 C-3.66 7.67 -4.32 7.34 -5 7 C-3.7251791 4.15616877 -2.54862922 1.86245982 0 0 Z " fill="#DD5E58" transform="translate(20,19)"/>
</svg>
